# MagicaVoxel @ Ephtracy

# group
o 

# material
mtllib trilho.mtl
usemtl palette

# normals
vn -1 0 0
vn 1 0 0
vn 0 0 1
vn 0 0 -1
vn 0 -1 0
vn 0 1 0

# texcoords
vt 0.373047 0.5
vt 0.986328 0.5

# verts
v 1.5 1 1
v 1.5 1 0.7
v 1.5 1 -0.7
v 1.5 1 -1
v 1.5 1.1 1
v 1.5 1.1 0.7
v 1.5 1.1 -0.7
v 1.5 1.1 -1
v 2.1 1 0.7
v 2.1 1 -0.7
v 2.1 1.1 0.7
v 2.1 1.1 -0.7
v 2.9 1 0.7
v 2.9 1 -0.7
v 2.9 1.1 0.7
v 2.9 1.1 -0.7
v 3.7 1 0.7
v 3.7 1 -0.7
v 3.7 1.1 0.7
v 3.7 1.1 -0.7
v 2.3 1 0.7
v 2.3 1 -0.7
v 2.3 1.1 0.7
v 2.3 1.1 -0.7
v 3.1 1 0.7
v 3.1 1 -0.7
v 3.1 1.1 0.7
v 3.1 1.1 -0.7
v 3.9 1 1
v 3.9 1 0.7
v 3.9 1 -0.7
v 3.9 1 -1
v 3.9 1.1 1
v 3.9 1.1 0.7
v 3.9 1.1 -0.7
v 3.9 1.1 -1
v 1.5 1 1
v 1.5 1.1 1
v 3.9 1 1
v 3.9 1.1 1
v 1.5 1 -0.7
v 1.5 1.1 -0.7
v 2.1 1 -0.7
v 2.1 1.1 -0.7
v 2.3 1 -0.7
v 2.3 1.1 -0.7
v 2.9 1 -0.7
v 2.9 1.1 -0.7
v 3.1 1 -0.7
v 3.1 1.1 -0.7
v 3.7 1 -0.7
v 3.7 1.1 -0.7
v 1.5 1 0.7
v 1.5 1.1 0.7
v 2.1 1 0.7
v 2.1 1.1 0.7
v 2.3 1 0.7
v 2.3 1.1 0.7
v 2.9 1 0.7
v 2.9 1.1 0.7
v 3.1 1 0.7
v 3.1 1.1 0.7
v 3.7 1 0.7
v 3.7 1.1 0.7
v 1.5 1 -1
v 1.5 1.1 -1
v 3.9 1 -1
v 3.9 1.1 -1
v 1.5 1 1
v 3.9 1 1
v 1.5 1 0.7
v 2.1 1 0.7
v 2.3 1 0.7
v 2.9 1 0.7
v 3.1 1 0.7
v 3.7 1 0.7
v 3.9 1 0.7
v 1.5 1 -0.7
v 2.1 1 -0.7
v 2.3 1 -0.7
v 2.9 1 -0.7
v 3.1 1 -0.7
v 3.7 1 -0.7
v 3.9 1 -0.7
v 1.5 1 -1
v 3.9 1 -1
v 1.5 1.1 1
v 3.9 1.1 1
v 1.5 1.1 0.7
v 2.1 1.1 0.7
v 2.3 1.1 0.7
v 2.9 1.1 0.7
v 3.1 1.1 0.7
v 3.7 1.1 0.7
v 3.9 1.1 0.7
v 1.5 1.1 -0.7
v 2.1 1.1 -0.7
v 2.3 1.1 -0.7
v 2.9 1.1 -0.7
v 3.1 1.1 -0.7
v 3.7 1.1 -0.7
v 3.9 1.1 -0.7
v 1.5 1.1 -1
v 3.9 1.1 -1

# faces
f 5/2/1 2/2/1 1/2/1
f 6/2/1 2/2/1 5/2/1
f 7/2/1 4/2/1 3/2/1
f 8/2/1 4/2/1 7/2/1
f 11/1/1 10/1/1 9/1/1
f 12/1/1 10/1/1 11/1/1
f 15/1/1 14/1/1 13/1/1
f 16/1/1 14/1/1 15/1/1
f 19/1/1 18/1/1 17/1/1
f 20/1/1 18/1/1 19/1/1
f 21/1/2 22/1/2 23/1/2
f 23/1/2 22/1/2 24/1/2
f 25/1/2 26/1/2 27/1/2
f 27/1/2 26/1/2 28/1/2
f 29/2/2 30/2/2 33/2/2
f 30/1/2 31/1/2 34/1/2
f 33/2/2 30/2/2 34/2/2
f 31/2/2 32/2/2 35/2/2
f 34/1/2 31/1/2 35/1/2
f 35/2/2 32/2/2 36/2/2
f 39/2/3 38/2/3 37/2/3
f 40/2/3 38/2/3 39/2/3
f 43/2/3 42/2/3 41/2/3
f 44/2/3 42/2/3 43/2/3
f 47/2/3 46/2/3 45/2/3
f 48/2/3 46/2/3 47/2/3
f 51/2/3 50/2/3 49/2/3
f 52/2/3 50/2/3 51/2/3
f 53/2/4 54/2/4 55/2/4
f 55/2/4 54/2/4 56/2/4
f 57/2/4 58/2/4 59/2/4
f 59/2/4 58/2/4 60/2/4
f 61/2/4 62/2/4 63/2/4
f 63/2/4 62/2/4 64/2/4
f 65/2/4 66/2/4 67/2/4
f 67/2/4 66/2/4 68/2/4
f 71/2/5 70/2/5 69/2/5
f 72/2/5 70/2/5 71/2/5
f 73/2/5 70/2/5 72/2/5
f 74/2/5 70/2/5 73/2/5
f 75/2/5 70/2/5 74/2/5
f 76/2/5 70/2/5 75/2/5
f 77/2/5 70/2/5 76/2/5
f 79/1/5 73/1/5 72/1/5
f 80/1/5 73/1/5 79/1/5
f 81/1/5 75/1/5 74/1/5
f 82/1/5 75/1/5 81/1/5
f 83/1/5 77/1/5 76/1/5
f 84/1/5 77/1/5 83/1/5
f 85/2/5 80/2/5 79/2/5
f 85/2/5 82/2/5 81/2/5
f 85/2/5 84/2/5 83/2/5
f 85/2/5 83/2/5 82/2/5
f 85/2/5 79/2/5 78/2/5
f 85/2/5 81/2/5 80/2/5
f 86/2/5 84/2/5 85/2/5
f 87/2/6 88/2/6 89/2/6
f 89/2/6 88/2/6 90/2/6
f 90/2/6 88/2/6 91/2/6
f 91/2/6 88/2/6 92/2/6
f 92/2/6 88/2/6 93/2/6
f 93/2/6 88/2/6 94/2/6
f 94/2/6 88/2/6 95/2/6
f 90/1/6 91/1/6 97/1/6
f 97/1/6 91/1/6 98/1/6
f 92/1/6 93/1/6 99/1/6
f 99/1/6 93/1/6 100/1/6
f 94/1/6 95/1/6 101/1/6
f 101/1/6 95/1/6 102/1/6
f 97/2/6 98/2/6 103/2/6
f 99/2/6 100/2/6 103/2/6
f 101/2/6 102/2/6 103/2/6
f 100/2/6 101/2/6 103/2/6
f 96/2/6 97/2/6 103/2/6
f 98/2/6 99/2/6 103/2/6
f 103/2/6 102/2/6 104/2/6
