# MagicaVoxel @ Ephtracy

# group
o Screenshot_1 (1)

# material
mtllib GoblinDeFaca-0-Screenshot_1 (1).mtl
usemtl palette

# normals
vn 1 0 0
vn -1 0 0
vn 0 -1 0
vn 0 1 0
vn 0 0 1
vn 0 0 -1

# texcoords
vt 0.537109 0.5
vt 0.603516 0.5

# verts
v 0.4 -0.7 1.2
v 0.4 -0.5 1.2
v 0.4 -0.1 1.2
v 0.4 -0.5 0.6
v 0.4 -0.1 0.6
v 0.4 -0.1 0.2
v 0.4 0.3 0.2
v 0.4 -0.5 0.1
v 0.4 -0.1 0.1
v 0.4 -0.7 -0.4
v 0.4 -0.5 -0.4
v 0.4 0.3 -0.4
v -0.5 -0.7 1.2
v -0.5 -0.5 1.2
v -0.5 -0.1 1.2
v -0.5 -0.5 0.6
v -0.5 -0.1 0.6
v -0.5 -0.1 0.2
v -0.5 0.3 0.2
v -0.5 -0.5 0.1
v -0.5 -0.1 0.1
v -0.5 -0.7 -0.4
v -0.5 -0.5 -0.4
v -0.5 0.3 -0.4
v 0.4 -0.7 1.2
v 0.4 -0.7 -0.4
v -0.5 -0.7 1.2
v -0.5 -0.7 -0.4
v 0.4 -0.1 1.2
v 0.4 -0.1 0.6
v 0.4 -0.1 0.2
v -0.5 -0.1 1.2
v -0.5 -0.1 0.6
v -0.5 -0.1 0.2
v 0.4 0.3 0.2
v 0.4 0.3 -0.4
v -0.5 0.3 0.2
v -0.5 0.3 -0.4
v 0.4 -0.7 1.2
v -0.5 -0.7 1.2
v 0.4 -0.5 1.2
v -0.5 -0.5 1.2
v 0.4 -0.1 1.2
v -0.5 -0.1 1.2
v 0.4 -0.1 0.2
v -0.5 -0.1 0.2
v 0.4 0.3 0.2
v -0.5 0.3 0.2
v 0.4 -0.7 -0.4
v -0.5 -0.7 -0.4
v 0.4 -0.5 -0.4
v -0.5 -0.5 -0.4
v 0.4 0.3 -0.4
v -0.5 0.3 -0.4

# faces
f 4/1/1 2/1/1 1/1/1
f 4/2/1 3/2/1 2/2/1
f 5/2/1 3/2/1 4/2/1
f 6/1/1 5/1/1 4/1/1
f 8/1/1 4/1/1 1/1/1
f 8/1/1 6/1/1 4/1/1
f 9/2/1 7/2/1 6/2/1
f 9/1/1 6/1/1 8/1/1
f 10/1/1 8/1/1 1/1/1
f 11/2/1 9/2/1 8/2/1
f 11/1/1 8/1/1 10/1/1
f 12/2/1 7/2/1 9/2/1
f 12/2/1 9/2/1 11/2/1
f 13/1/2 14/1/2 16/1/2
f 14/2/2 15/2/2 16/2/2
f 16/2/2 15/2/2 17/2/2
f 16/1/2 17/1/2 18/1/2
f 13/1/2 16/1/2 20/1/2
f 16/1/2 18/1/2 20/1/2
f 18/2/2 19/2/2 21/2/2
f 20/1/2 18/1/2 21/1/2
f 13/1/2 20/1/2 22/1/2
f 20/2/2 21/2/2 23/2/2
f 22/1/2 20/1/2 23/1/2
f 21/2/2 19/2/2 24/2/2
f 23/2/2 21/2/2 24/2/2
f 27/1/3 26/1/3 25/1/3
f 28/1/3 26/1/3 27/1/3
f 29/2/4 30/2/4 32/2/4
f 30/1/4 31/1/4 33/1/4
f 32/2/4 30/2/4 33/2/4
f 33/1/4 31/1/4 34/1/4
f 35/2/4 36/2/4 37/2/4
f 37/2/4 36/2/4 38/2/4
f 41/1/5 40/1/5 39/1/5
f 42/1/5 40/1/5 41/1/5
f 43/2/5 42/2/5 41/2/5
f 44/2/5 42/2/5 43/2/5
f 47/2/5 46/2/5 45/2/5
f 48/2/5 46/2/5 47/2/5
f 49/1/6 50/1/6 51/1/6
f 51/1/6 50/1/6 52/1/6
f 51/2/6 52/2/6 53/2/6
f 53/2/6 52/2/6 54/2/6
