# MagicaVoxel @ Ephtracy

# group
o 

# material
mtllib ogre-4.mtl
usemtl palette

# normals
vn -1 0 0
vn 1 0 0
vn 0 0 1
vn 0 0 -1
vn 0 -1 0
vn 0 1 0

# texcoords
vt 0.146484 0.5
vt 0.150391 0.5
vt 0.318359 0.5
vt 0.494141 0.5
vt 0.560547 0.5
vt 0.580078 0.5
vt 0.603516 0.5
vt 0.607422 0.5
vt 0.958984 0.5
vt 0.962891 0.5
vt 0.986328 0.5

# verts
v -4.4 0.8 1.8
v -4.4 0.8 1.2
v -4.4 2 1.8
v -4.4 2 1.2
v -4 0.6 1.8
v -4 0.6 1.2
v -4 0.8 1.8
v -4 0.8 1.2
v -4 1.2 1.2
v -4 1.2 1
v -4 1.8 1.2
v -4 1.8 1
v -3.6 0.6 1.2
v -3.6 0.6 1
v -3.6 1.2 1.2
v -3.6 1.2 1
v -2.8 1.2 1.8
v -2.8 1.2 1.4
v -2.8 1.6 1.8
v -2.8 1.6 1.4
v -2.4 -1.2 3.4
v -2.4 -1.2 -0.4
v -2.4 -0.8 -0.4
v -2.4 -0.8 -0.8
v -2.4 -0.4 -0.8
v -2.4 -0.4 -1.2
v -2.4 0.6 1.8
v -2.4 0.6 1
v -2.4 0.8 1.8
v -2.4 0.8 1.4
v -2.4 1.2 1.8
v -2.4 1.2 1.4
v -2.4 1.4 1.2
v -2.4 1.4 1
v -2.4 2 1.8
v -2.4 2 1.2
v -2.4 3.4 3.4
v -2.4 3.4 2.8
v -2.4 3.4 -0.8
v -2.4 3.4 -1.2
v -2.4 3.8 2.8
v -2.4 3.8 2.6
v -2.4 3.8 -0.4
v -2.4 3.8 -0.8
v -2.4 4.2 2.6
v -2.4 4.2 -0.4
v -2 -1.2 -0.4
v -2 -1.2 -0.8
v -2 -1 4.8
v -2 -1 3.4
v -2 -0.8 -0.4
v -2 -0.8 -0.8
v -2 -0.8 -1.2
v -2 -0.4 4.8
v -2 -0.4 4.6
v -2 -0.4 3.4
v -2 -0.4 -0.8
v -2 -0.4 -1.2
v -2 -0.2 4.6
v -2 -0.2 4
v -2 -0.2 3.4
v -2 0 4.6
v -2 0 4
v -2 0.6 4.6
v -2 0.6 4
v -2 3.4 3.4
v -2 3.4 2.8
v -2 3.4 -0.8
v -2 3.4 -1.2
v -2 3.8 3.4
v -2 3.8 3
v -2 3.8 2.8
v -2 3.8 2.6
v -2 3.8 -0.4
v -2 3.8 -0.8
v -2 3.8 -1.2
v -2 4.2 3
v -2 4.2 2.6
v -2 4.2 -0.4
v -2 4.2 -0.8
v -1.8 -1.6 4.2
v -1.8 -1.6 1.8
v -1.8 -1.2 4.8
v -1.8 -1.2 4.2
v -1.8 -1.2 3.4
v -1.8 -1.2 1.8
v -1.8 -1 4.8
v -1.8 -1 3.4
v -1.8 -0.4 4.8
v -1.8 -0.4 4.6
v -1.8 -0.2 4.8
v -1.8 -0.2 4.6
v -1.8 0 4.8
v -1.8 0 4.6
v -1.8 0.6 4.8
v -1.8 0.6 4.6
v -1.6 -1.2 -0.8
v -1.6 -1.2 -1.2
v -1.6 -0.8 -0.8
v -1.6 -0.8 -1.2
v -1.6 3.8 3.4
v -1.6 3.8 3
v -1.6 3.8 -0.8
v -1.6 3.8 -1.2
v -1.6 4.2 3.4
v -1.6 4.2 3
v -1.6 4.2 -0.8
v -1.6 4.2 -1.2
v -0.4 0 3.8
v -0.4 0 3.4
v -0.4 1.4 3.8
v -0.4 1.4 3.4
v 1.2 -0.2 4.8
v 1.2 -0.2 4.6
v 1.2 -0.2 4
v 1.2 0 4.8
v 1.2 0 4
v 1.2 0.6 4.8
v 1.2 0.6 4
v 3.8 0.8 1.4
v 3.8 0.8 1
v 3.8 1.4 1.4
v 3.8 1.4 1
v 4 1.4 1.4
v 4 1.4 1
v 4 1.6 1.4
v 4 1.6 1
v -4 1.4 1.8
v -4 1.4 1.4
v -4 1.6 1.8
v -4 1.6 1.4
v -3.6 0.8 1.8
v -3.6 0.8 1.4
v -3.6 1.4 1.8
v -3.6 1.4 1.4
v -2.8 1.4 1.2
v -2.8 1.4 1
v -2.8 1.8 1.2
v -2.8 1.8 1
v -1.2 -0.2 4.8
v -1.2 -0.2 4.6
v -1.2 -0.2 4
v -1.2 0 4.8
v -1.2 0 4
v -1.2 0.6 4.8
v -1.2 0.6 4
v 0.4 0 3.8
v 0.4 0 3.4
v 0.4 1.4 3.8
v 0.4 1.4 3.4
v 1.6 -1.2 -0.8
v 1.6 -1.2 -1.2
v 1.6 -0.8 -0.8
v 1.6 -0.8 -1.2
v 1.6 3.8 3.4
v 1.6 3.8 3
v 1.6 3.8 -0.8
v 1.6 3.8 -1.2
v 1.6 4.2 3.4
v 1.6 4.2 3
v 1.6 4.2 -0.8
v 1.6 4.2 -1.2
v 1.8 -1.6 4.2
v 1.8 -1.6 1.8
v 1.8 -1.2 4.8
v 1.8 -1.2 4.2
v 1.8 -1.2 3.4
v 1.8 -1.2 1.8
v 1.8 -1 4.8
v 1.8 -1 3.4
v 1.8 -0.4 4.8
v 1.8 -0.4 4.6
v 1.8 -0.2 4.8
v 1.8 -0.2 4.6
v 1.8 0 4.8
v 1.8 0 4.6
v 1.8 0.6 4.8
v 1.8 0.6 4.6
v 2 -1.2 -0.4
v 2 -1.2 -0.8
v 2 -1 4.8
v 2 -1 3.4
v 2 -0.8 -0.4
v 2 -0.8 -0.8
v 2 -0.8 -1.2
v 2 -0.4 4.8
v 2 -0.4 4.6
v 2 -0.4 3.4
v 2 -0.4 -0.8
v 2 -0.4 -1.2
v 2 -0.2 4.6
v 2 -0.2 4
v 2 -0.2 3.4
v 2 0 4.6
v 2 0 4
v 2 0.6 4.6
v 2 0.6 4
v 2 3.4 3.4
v 2 3.4 2.8
v 2 3.4 -0.8
v 2 3.4 -1.2
v 2 3.8 3.4
v 2 3.8 3
v 2 3.8 2.8
v 2 3.8 2.6
v 2 3.8 -0.4
v 2 3.8 -0.8
v 2 3.8 -1.2
v 2 4.2 3
v 2 4.2 2.6
v 2 4.2 -0.4
v 2 4.2 -0.8
v 2.4 -1.2 3.4
v 2.4 -1.2 -0.4
v 2.4 -0.8 -0.4
v 2.4 -0.8 -0.8
v 2.4 -0.4 -0.8
v 2.4 -0.4 -1.2
v 2.4 0.6 1.4
v 2.4 0.6 0.8
v 2.4 0.8 1.4
v 2.4 0.8 1
v 2.4 1.6 1.4
v 2.4 1.6 1
v 2.4 2 1.4
v 2.4 2 0.8
v 2.4 3.4 3.4
v 2.4 3.4 2.8
v 2.4 3.4 -0.8
v 2.4 3.4 -1.2
v 2.4 3.8 2.8
v 2.4 3.8 2.6
v 2.4 3.8 -0.4
v 2.4 3.8 -0.8
v 2.4 4.2 2.6
v 2.4 4.2 -0.4
v 4 0.6 1.4
v 4 0.6 0.8
v 4 0.8 1.4
v 4 0.8 0.8
v 4.4 0.8 1.4
v 4.4 0.8 0.8
v 4.4 2 1.4
v 4.4 2 0.8
v -2 -1 4.8
v -2 -0.4 4.8
v -1.8 -1.2 4.8
v -1.8 -1 4.8
v -1.8 -0.4 4.8
v -1.8 -0.2 4.8
v -1.8 0 4.8
v -1.8 0.6 4.8
v -1.6 -0.6 4.8
v -1.6 -0.4 4.8
v -1.2 -0.2 4.8
v -1.2 0 4.8
v -1.2 0.6 4.8
v 1.2 -0.2 4.8
v 1.2 0 4.8
v 1.2 0.6 4.8
v 1.6 -0.6 4.8
v 1.6 -0.4 4.8
v 1.8 -1.2 4.8
v 1.8 -1 4.8
v 1.8 -0.4 4.8
v 1.8 -0.2 4.8
v 1.8 0 4.8
v 1.8 0.6 4.8
v 2 -1 4.8
v 2 -0.4 4.8
v -2 -0.4 4.6
v -2 -0.2 4.6
v -2 0 4.6
v -2 0.6 4.6
v -1.8 -0.4 4.6
v -1.8 -0.2 4.6
v -1.8 0 4.6
v -1.8 0.6 4.6
v 1.8 -0.4 4.6
v 1.8 -0.2 4.6
v 1.8 0 4.6
v 1.8 0.6 4.6
v 2 -0.4 4.6
v 2 -0.2 4.6
v 2 0 4.6
v 2 0.6 4.6
v -1.8 -1.6 4.2
v -1.8 -1.2 4.2
v 1.8 -1.6 4.2
v 1.8 -1.2 4.2
v -0.4 0 3.8
v -0.4 1.4 3.8
v 0.4 0 3.8
v 0.4 1.4 3.8
v -2.4 -1.2 3.4
v -2.4 3.4 3.4
v -2 -1 3.4
v -2 -0.4 3.4
v -2 -0.2 3.4
v -2 1.4 3.4
v -2 2.2 3.4
v -2 3.4 3.4
v -2 3.8 3.4
v -1.8 -1.2 3.4
v -1.8 -1 3.4
v -1.8 -0.2 3.4
v -1.6 1 3.4
v -1.6 1.4 3.4
v -1.6 3.8 3.4
v -1.6 4.2 3.4
v -1.4 1 3.4
v -1.4 1.4 3.4
v -1 1 3.4
v -1 1.4 3.4
v -0.8 1 3.4
v -0.8 1.4 3.4
v -0.4 0 3.4
v -0.4 1.4 3.4
v -0.4 2.2 3.4
v 0.4 0 3.4
v 0.4 1.4 3.4
v 0.4 2.2 3.4
v 0.8 1 3.4
v 0.8 1.4 3.4
v 1 1 3.4
v 1 1.4 3.4
v 1.4 1 3.4
v 1.4 1.4 3.4
v 1.6 1 3.4
v 1.6 1.4 3.4
v 1.6 3.8 3.4
v 1.6 4.2 3.4
v 1.8 -1.2 3.4
v 1.8 -1 3.4
v 1.8 -0.2 3.4
v 2 -1 3.4
v 2 -0.4 3.4
v 2 -0.2 3.4
v 2 1.4 3.4
v 2 2.2 3.4
v 2 3.4 3.4
v 2 3.8 3.4
v 2.4 -1.2 3.4
v 2.4 3.4 3.4
v -2 3.8 3
v -2 4.2 3
v -1.6 3.8 3
v -1.6 4.2 3
v 1.6 3.8 3
v 1.6 4.2 3
v 2 3.8 3
v 2 4.2 3
v -2.4 3.4 2.8
v -2.4 3.8 2.8
v -2 3.4 2.8
v -2 3.8 2.8
v 2 3.4 2.8
v 2 3.8 2.8
v 2.4 3.4 2.8
v 2.4 3.8 2.8
v -2.4 3.8 2.6
v -2.4 4.2 2.6
v -2 3.8 2.6
v -2 4.2 2.6
v 2 3.8 2.6
v 2 4.2 2.6
v 2.4 3.8 2.6
v 2.4 4.2 2.6
v -4.4 0.8 1.8
v -4.4 2 1.8
v -4 0.6 1.8
v -4 0.8 1.8
v -4 1.4 1.8
v -4 1.6 1.8
v -3.6 0.8 1.8
v -3.6 1.4 1.8
v -2.8 1.2 1.8
v -2.8 1.6 1.8
v -2.4 0.6 1.8
v -2.4 0.8 1.8
v -2.4 1.2 1.8
v -2.4 2 1.8
v -4 1.4 1.4
v -4 1.6 1.4
v -3.6 0.8 1.4
v -3.6 1.4 1.4
v -2.8 1.2 1.4
v -2.8 1.6 1.4
v -2.4 0.8 1.4
v -2.4 1.2 1.4
v 2.4 0.6 1.4
v 2.4 0.8 1.4
v 2.4 1.6 1.4
v 2.4 2 1.4
v 3.8 0.8 1.4
v 3.8 1.4 1.4
v 4 0.6 1.4
v 4 0.8 1.4
v 4 1.4 1.4
v 4 1.6 1.4
v 4.4 0.8 1.4
v 4.4 2 1.4
v 2.4 0.8 1
v 2.4 1.6 1
v 3.8 0.8 1
v 3.8 1.4 1
v 4 1.4 1
v 4 1.6 1
v -2 -0.2 4
v -2 0 4
v -2 0.6 4
v -1.8 -0.2 4
v -1.2 -0.2 4
v -1.2 0 4
v -1.2 0.6 4
v 1.2 -0.2 4
v 1.2 0 4
v 1.2 0.6 4
v 1.8 -0.2 4
v 2 -0.2 4
v 2 0 4
v 2 0.6 4
v -1.8 -1.6 1.8
v -1.8 -1.2 1.8
v 1.8 -1.6 1.8
v 1.8 -1.2 1.8
v -4.4 0.8 1.2
v -4.4 2 1.2
v -4 0.6 1.2
v -4 0.8 1.2
v -4 1.2 1.2
v -4 1.8 1.2
v -3.6 0.6 1.2
v -3.6 1.2 1.2
v -2.8 1.4 1.2
v -2.8 1.8 1.2
v -2.4 1.4 1.2
v -2.4 2 1.2
v -4 1.2 1
v -4 1.8 1
v -3.6 0.6 1
v -3.6 1.2 1
v -2.8 1.4 1
v -2.8 1.8 1
v -2.4 0.6 1
v -2.4 1.4 1
v 2.4 0.6 0.8
v 2.4 2 0.8
v 4 0.6 0.8
v 4 0.8 0.8
v 4.4 0.8 0.8
v 4.4 2 0.8
v -2.4 -1.2 -0.4
v -2.4 -0.8 -0.4
v -2.4 3.8 -0.4
v -2.4 4.2 -0.4
v -2 -1.2 -0.4
v -2 -0.8 -0.4
v -2 3.8 -0.4
v -2 4.2 -0.4
v 2 -1.2 -0.4
v 2 -0.8 -0.4
v 2 3.8 -0.4
v 2 4.2 -0.4
v 2.4 -1.2 -0.4
v 2.4 -0.8 -0.4
v 2.4 3.8 -0.4
v 2.4 4.2 -0.4
v -2.4 -0.8 -0.8
v -2.4 -0.4 -0.8
v -2.4 3.4 -0.8
v -2.4 3.8 -0.8
v -2 -1.2 -0.8
v -2 -0.8 -0.8
v -2 -0.4 -0.8
v -2 3.4 -0.8
v -2 3.8 -0.8
v -2 4.2 -0.8
v -1.6 -1.2 -0.8
v -1.6 -0.8 -0.8
v -1.6 3.8 -0.8
v -1.6 4.2 -0.8
v 1.6 -1.2 -0.8
v 1.6 -0.8 -0.8
v 1.6 3.8 -0.8
v 1.6 4.2 -0.8
v 2 -1.2 -0.8
v 2 -0.8 -0.8
v 2 -0.4 -0.8
v 2 3.4 -0.8
v 2 3.8 -0.8
v 2 4.2 -0.8
v 2.4 -0.8 -0.8
v 2.4 -0.4 -0.8
v 2.4 3.4 -0.8
v 2.4 3.8 -0.8
v -2.4 -0.4 -1.2
v -2.4 3.4 -1.2
v -2 -0.8 -1.2
v -2 -0.4 -1.2
v -2 3.4 -1.2
v -2 3.8 -1.2
v -1.6 -1.2 -1.2
v -1.6 -0.8 -1.2
v -1.6 3.8 -1.2
v -1.6 4.2 -1.2
v 1.6 -1.2 -1.2
v 1.6 -0.8 -1.2
v 1.6 3.8 -1.2
v 1.6 4.2 -1.2
v 2 -0.8 -1.2
v 2 -0.4 -1.2
v 2 3.4 -1.2
v 2 3.8 -1.2
v 2.4 -0.4 -1.2
v 2.4 3.4 -1.2
v -1.8 -1.6 4.2
v 1.8 -1.6 4.2
v -1.8 -1.6 1.8
v 1.8 -1.6 1.8
v -1.8 -1.2 4.8
v 1.8 -1.2 4.8
v -1.8 -1.2 4.2
v 1.8 -1.2 4.2
v -2.4 -1.2 3.4
v -1.8 -1.2 3.4
v 1.8 -1.2 3.4
v 2.4 -1.2 3.4
v -1.8 -1.2 1.8
v 1.8 -1.2 1.8
v -2.4 -1.2 -0.4
v -2 -1.2 -0.4
v 2 -1.2 -0.4
v 2.4 -1.2 -0.4
v -2 -1.2 -0.8
v -1.6 -1.2 -0.8
v 1.6 -1.2 -0.8
v 2 -1.2 -0.8
v -1.6 -1.2 -1.2
v 1.6 -1.2 -1.2
v -2 -1 4.8
v -1.8 -1 4.8
v 1.8 -1 4.8
v 2 -1 4.8
v -2 -1 3.4
v -1.8 -1 3.4
v 1.8 -1 3.4
v 2 -1 3.4
v -2.4 -0.8 -0.4
v -2 -0.8 -0.4
v 2 -0.8 -0.4
v 2.4 -0.8 -0.4
v -2.4 -0.8 -0.8
v -2 -0.8 -0.8
v -1.6 -0.8 -0.8
v 1.6 -0.8 -0.8
v 2 -0.8 -0.8
v 2.4 -0.8 -0.8
v -2 -0.8 -1.2
v -1.6 -0.8 -1.2
v 1.6 -0.8 -1.2
v 2 -0.8 -1.2
v -2.4 -0.4 -0.8
v -2 -0.4 -0.8
v 2 -0.4 -0.8
v 2.4 -0.4 -0.8
v -2.4 -0.4 -1.2
v -2 -0.4 -1.2
v 2 -0.4 -1.2
v 2.4 -0.4 -1.2
v -0.4 0 3.8
v 0.4 0 3.8
v -0.4 0 3.4
v 0.4 0 3.4
v -4 0.6 1.8
v -2.4 0.6 1.8
v 2.4 0.6 1.4
v 4 0.6 1.4
v -4 0.6 1.2
v -3.6 0.6 1.2
v -3.6 0.6 1
v -2.4 0.6 1
v 2.4 0.6 0.8
v 4 0.6 0.8
v -4.4 0.8 1.8
v -4 0.8 1.8
v 4 0.8 1.4
v 4.4 0.8 1.4
v -4.4 0.8 1.2
v -4 0.8 1.2
v 4 0.8 0.8
v 4.4 0.8 0.8
v -2.8 1.2 1.8
v -2.4 1.2 1.8
v -2.8 1.2 1.4
v -2.4 1.2 1.4
v -4 1.2 1.2
v -3.6 1.2 1.2
v -4 1.2 1
v -3.6 1.2 1
v -4 1.6 1.8
v -2.8 1.6 1.8
v -4 1.6 1.4
v -2.8 1.6 1.4
v 2.4 1.6 1.4
v 4 1.6 1.4
v 2.4 1.6 1
v 4 1.6 1
v -2 -0.4 4.8
v -1.8 -0.4 4.8
v 1.8 -0.4 4.8
v 2 -0.4 4.8
v -2 -0.4 4.6
v -1.8 -0.4 4.6
v 1.8 -0.4 4.6
v 2 -0.4 4.6
v -1.2 -0.2 4.8
v 1.2 -0.2 4.8
v -1.2 -0.2 4.6
v 1.2 -0.2 4.6
v -2 -0.2 4
v -1.8 -0.2 4
v -1.2 -0.2 4
v -1 -0.2 4
v 1 -0.2 4
v 1.2 -0.2 4
v 1.8 -0.2 4
v 2 -0.2 4
v -1 -0.2 3.8
v 1 -0.2 3.8
v -2 -0.2 3.4
v -1.8 -0.2 3.4
v 1.8 -0.2 3.4
v 2 -0.2 3.4
v -1.8 0.6 4.8
v -1.2 0.6 4.8
v 1.2 0.6 4.8
v 1.8 0.6 4.8
v -2 0.6 4.6
v -1.8 0.6 4.6
v 1.8 0.6 4.6
v 2 0.6 4.6
v -2 0.6 4
v -1.2 0.6 4
v 1.2 0.6 4
v 2 0.6 4
v -3.6 0.8 1.8
v -2.4 0.8 1.8
v -3.6 0.8 1.4
v -2.4 0.8 1.4
v 2.4 0.8 1.4
v 3.8 0.8 1.4
v 2.4 0.8 1
v 3.8 0.8 1
v -0.4 1.4 3.8
v 0.4 1.4 3.8
v -0.4 1.4 3.4
v 0.4 1.4 3.4
v -4 1.4 1.8
v -3.6 1.4 1.8
v -4 1.4 1.4
v -3.6 1.4 1.4
v 3.8 1.4 1.4
v 4 1.4 1.4
v -2.8 1.4 1.2
v -2.4 1.4 1.2
v -2.8 1.4 1
v -2.4 1.4 1
v 3.8 1.4 1
v 4 1.4 1
v -4 1.8 1.2
v -2.8 1.8 1.2
v -4 1.8 1
v -2.8 1.8 1
v -4.4 2 1.8
v -2.4 2 1.8
v 2.4 2 1.4
v 4.4 2 1.4
v -4.4 2 1.2
v -2.4 2 1.2
v 2.4 2 0.8
v 4.4 2 0.8
v -2.4 3.4 3.4
v -2 3.4 3.4
v 2 3.4 3.4
v 2.4 3.4 3.4
v -2.4 3.4 2.8
v -2 3.4 2.8
v 2 3.4 2.8
v 2.4 3.4 2.8
v -2.4 3.4 -0.8
v -2 3.4 -0.8
v 2 3.4 -0.8
v 2.4 3.4 -0.8
v -2.4 3.4 -1.2
v -2 3.4 -1.2
v 2 3.4 -1.2
v 2.4 3.4 -1.2
v -2 3.8 3.4
v -1.6 3.8 3.4
v 1.6 3.8 3.4
v 2 3.8 3.4
v -2 3.8 3
v -1.6 3.8 3
v 1.6 3.8 3
v 2 3.8 3
v -2.4 3.8 2.8
v -2 3.8 2.8
v 2 3.8 2.8
v 2.4 3.8 2.8
v -2.4 3.8 2.6
v -2 3.8 2.6
v 2 3.8 2.6
v 2.4 3.8 2.6
v -2.4 3.8 -0.4
v -2 3.8 -0.4
v 2 3.8 -0.4
v 2.4 3.8 -0.4
v -2.4 3.8 -0.8
v -2 3.8 -0.8
v -1.6 3.8 -0.8
v 1.6 3.8 -0.8
v 2 3.8 -0.8
v 2.4 3.8 -0.8
v -2 3.8 -1.2
v -1.6 3.8 -1.2
v 1.6 3.8 -1.2
v 2 3.8 -1.2
v -1.6 4.2 3.4
v 1.6 4.2 3.4
v -2 4.2 3
v -1.6 4.2 3
v 1.6 4.2 3
v 2 4.2 3
v -2.4 4.2 2.6
v -2 4.2 2.6
v 2 4.2 2.6
v 2.4 4.2 2.6
v -2.4 4.2 -0.4
v -2 4.2 -0.4
v 2 4.2 -0.4
v 2.4 4.2 -0.4
v -2 4.2 -0.8
v -1.6 4.2 -0.8
v 1.6 4.2 -0.8
v 2 4.2 -0.8
v -1.6 4.2 -1.2
v 1.6 4.2 -1.2

# faces
f 3/7/1 2/7/1 1/7/1
f 4/7/1 2/7/1 3/7/1
f 7/7/1 6/7/1 5/7/1
f 8/7/1 6/7/1 7/7/1
f 11/7/1 10/7/1 9/7/1
f 12/7/1 10/7/1 11/7/1
f 15/7/1 14/7/1 13/7/1
f 16/7/1 14/7/1 15/7/1
f 19/7/1 18/7/1 17/7/1
f 20/7/1 18/7/1 19/7/1
f 23/6/1 22/6/1 21/6/1
f 25/6/1 24/6/1 23/6/1
f 27/6/1 23/6/1 21/6/1
f 27/6/1 26/6/1 25/6/1
f 27/6/1 25/6/1 23/6/1
f 28/6/1 26/6/1 27/6/1
f 29/6/1 27/6/1 21/6/1
f 31/6/1 29/6/1 21/6/1
f 31/6/1 30/6/1 29/6/1
f 32/6/1 30/6/1 31/6/1
f 34/6/1 26/6/1 28/6/1
f 35/6/1 31/6/1 21/6/1
f 36/6/1 34/6/1 33/6/1
f 37/6/1 35/6/1 21/6/1
f 37/6/1 36/6/1 35/6/1
f 38/6/1 36/6/1 37/6/1
f 39/6/1 34/6/1 36/6/1
f 39/6/1 36/6/1 38/6/1
f 39/6/1 26/6/1 34/6/1
f 40/6/1 26/6/1 39/6/1
f 41/6/1 39/6/1 38/6/1
f 42/6/1 39/6/1 41/6/1
f 43/6/1 39/6/1 42/6/1
f 44/6/1 39/6/1 43/6/1
f 45/6/1 43/6/1 42/6/1
f 46/6/1 43/6/1 45/6/1
f 51/6/1 48/6/1 47/6/1
f 52/6/1 48/6/1 51/6/1
f 54/6/1 50/6/1 49/6/1
f 55/6/1 50/6/1 54/6/1
f 56/6/1 50/6/1 55/6/1
f 57/6/1 53/6/1 52/6/1
f 58/6/1 53/6/1 57/6/1
f 59/2/1 56/2/1 55/2/1
f 60/2/1 56/2/1 59/2/1
f 61/2/1 56/2/1 60/2/1
f 62/10/1 60/10/1 59/10/1
f 63/10/1 60/10/1 62/10/1
f 64/9/1 63/9/1 62/9/1
f 65/9/1 63/9/1 64/9/1
f 70/6/1 67/6/1 66/6/1
f 71/6/1 67/6/1 70/6/1
f 72/6/1 67/6/1 71/6/1
f 75/6/1 69/6/1 68/6/1
f 76/6/1 69/6/1 75/6/1
f 77/6/1 73/6/1 72/6/1
f 77/6/1 72/6/1 71/6/1
f 78/6/1 73/6/1 77/6/1
f 79/6/1 75/6/1 74/6/1
f 80/6/1 75/6/1 79/6/1
f 84/6/1 82/6/1 81/6/1
f 85/6/1 82/6/1 84/6/1
f 86/6/1 82/6/1 85/6/1
f 87/6/1 84/6/1 83/6/1
f 87/6/1 85/6/1 84/6/1
f 88/6/1 85/6/1 87/6/1
f 91/2/1 90/2/1 89/2/1
f 92/2/1 90/2/1 91/2/1
f 93/10/1 92/10/1 91/10/1
f 94/10/1 92/10/1 93/10/1
f 95/9/1 94/9/1 93/9/1
f 96/9/1 94/9/1 95/9/1
f 99/6/1 98/6/1 97/6/1
f 100/6/1 98/6/1 99/6/1
f 105/6/1 102/6/1 101/6/1
f 106/6/1 102/6/1 105/6/1
f 107/6/1 104/6/1 103/6/1
f 108/6/1 104/6/1 107/6/1
f 111/8/1 110/8/1 109/8/1
f 112/8/1 110/8/1 111/8/1
f 116/10/1 114/10/1 113/10/1
f 116/10/1 115/10/1 114/10/1
f 117/10/1 115/10/1 116/10/1
f 118/9/1 117/9/1 116/9/1
f 119/9/1 117/9/1 118/9/1
f 122/7/1 121/7/1 120/7/1
f 123/7/1 121/7/1 122/7/1
f 126/7/1 125/7/1 124/7/1
f 127/7/1 125/7/1 126/7/1
f 128/7/2 129/7/2 130/7/2
f 130/7/2 129/7/2 131/7/2
f 132/7/2 133/7/2 134/7/2
f 134/7/2 133/7/2 135/7/2
f 136/7/2 137/7/2 138/7/2
f 138/7/2 137/7/2 139/7/2
f 140/10/2 141/10/2 143/10/2
f 141/10/2 142/10/2 143/10/2
f 143/10/2 142/10/2 144/10/2
f 143/9/2 144/9/2 145/9/2
f 145/9/2 144/9/2 146/9/2
f 147/8/2 148/8/2 149/8/2
f 149/8/2 148/8/2 150/8/2
f 151/6/2 152/6/2 153/6/2
f 153/6/2 152/6/2 154/6/2
f 155/6/2 156/6/2 159/6/2
f 159/6/2 156/6/2 160/6/2
f 157/6/2 158/6/2 161/6/2
f 161/6/2 158/6/2 162/6/2
f 163/6/2 164/6/2 166/6/2
f 166/6/2 164/6/2 167/6/2
f 167/6/2 164/6/2 168/6/2
f 165/6/2 166/6/2 169/6/2
f 166/6/2 167/6/2 169/6/2
f 169/6/2 167/6/2 170/6/2
f 171/2/2 172/2/2 173/2/2
f 173/2/2 172/2/2 174/2/2
f 173/10/2 174/10/2 175/10/2
f 175/10/2 174/10/2 176/10/2
f 175/9/2 176/9/2 177/9/2
f 177/9/2 176/9/2 178/9/2
f 179/6/2 180/6/2 183/6/2
f 183/6/2 180/6/2 184/6/2
f 181/6/2 182/6/2 186/6/2
f 186/6/2 182/6/2 187/6/2
f 187/6/2 182/6/2 188/6/2
f 184/6/2 185/6/2 189/6/2
f 189/6/2 185/6/2 190/6/2
f 187/2/2 188/2/2 191/2/2
f 191/2/2 188/2/2 192/2/2
f 192/2/2 188/2/2 193/2/2
f 191/10/2 192/10/2 194/10/2
f 194/10/2 192/10/2 195/10/2
f 194/9/2 195/9/2 196/9/2
f 196/9/2 195/9/2 197/9/2
f 198/6/2 199/6/2 202/6/2
f 202/6/2 199/6/2 203/6/2
f 203/6/2 199/6/2 204/6/2
f 200/6/2 201/6/2 207/6/2
f 207/6/2 201/6/2 208/6/2
f 204/6/2 205/6/2 209/6/2
f 203/6/2 204/6/2 209/6/2
f 209/6/2 205/6/2 210/6/2
f 206/6/2 207/6/2 211/6/2
f 211/6/2 207/6/2 212/6/2
f 213/6/2 214/6/2 215/6/2
f 215/6/2 216/6/2 217/6/2
f 213/6/2 215/6/2 219/6/2
f 217/6/2 218/6/2 219/6/2
f 215/6/2 217/6/2 219/6/2
f 219/6/2 218/6/2 220/6/2
f 213/6/2 219/6/2 221/6/2
f 213/6/2 221/6/2 223/6/2
f 221/6/2 222/6/2 223/6/2
f 223/6/2 222/6/2 224/6/2
f 213/6/2 223/6/2 225/6/2
f 220/6/2 218/6/2 226/6/2
f 213/6/2 225/6/2 227/6/2
f 225/6/2 226/6/2 227/6/2
f 227/6/2 226/6/2 228/6/2
f 226/6/2 218/6/2 229/6/2
f 228/6/2 226/6/2 229/6/2
f 229/6/2 218/6/2 230/6/2
f 228/6/2 229/6/2 231/6/2
f 231/6/2 229/6/2 232/6/2
f 232/6/2 229/6/2 233/6/2
f 233/6/2 229/6/2 234/6/2
f 232/6/2 233/6/2 235/6/2
f 235/6/2 233/6/2 236/6/2
f 237/7/2 238/7/2 239/7/2
f 239/7/2 238/7/2 240/7/2
f 241/7/2 242/7/2 243/7/2
f 243/7/2 242/7/2 244/7/2
f 248/6/3 246/6/3 245/6/3
f 249/6/3 246/6/3 248/6/3
f 253/6/3 248/6/3 247/6/3
f 253/6/3 249/6/3 248/6/3
f 254/2/3 250/2/3 249/2/3
f 254/6/3 249/6/3 253/6/3
f 255/10/3 251/10/3 250/10/3
f 255/2/3 250/2/3 254/2/3
f 255/2/3 254/2/3 253/2/3
f 256/9/3 252/9/3 251/9/3
f 256/10/3 251/10/3 255/10/3
f 257/9/3 252/9/3 256/9/3
f 258/2/3 255/2/3 253/2/3
f 261/6/3 253/6/3 247/6/3
f 261/2/3 258/2/3 253/2/3
f 262/2/3 258/2/3 261/2/3
f 263/6/3 261/6/3 247/6/3
f 263/6/3 262/6/3 261/6/3
f 264/6/3 262/6/3 263/6/3
f 265/2/3 258/2/3 262/2/3
f 265/6/3 262/6/3 264/6/3
f 266/10/3 259/10/3 258/10/3
f 266/2/3 258/2/3 265/2/3
f 267/9/3 260/9/3 259/9/3
f 267/10/3 259/10/3 266/10/3
f 268/9/3 260/9/3 267/9/3
f 269/6/3 265/6/3 264/6/3
f 270/6/3 265/6/3 269/6/3
f 275/2/3 272/2/3 271/2/3
f 276/10/3 273/10/3 272/10/3
f 276/2/3 272/2/3 275/2/3
f 277/9/3 274/9/3 273/9/3
f 277/10/3 273/10/3 276/10/3
f 278/9/3 274/9/3 277/9/3
f 283/2/3 280/2/3 279/2/3
f 284/10/3 281/10/3 280/10/3
f 284/2/3 280/2/3 283/2/3
f 285/9/3 282/9/3 281/9/3
f 285/10/3 281/10/3 284/10/3
f 286/9/3 282/9/3 285/9/3
f 289/6/3 288/6/3 287/6/3
f 290/6/3 288/6/3 289/6/3
f 293/8/3 292/8/3 291/8/3
f 294/8/3 292/8/3 293/8/3
f 297/6/3 296/6/3 295/6/3
f 298/6/3 296/6/3 297/6/3
f 299/6/3 296/6/3 298/6/3
f 300/6/3 296/6/3 299/6/3
f 301/6/3 296/6/3 300/6/3
f 302/6/3 296/6/3 301/6/3
f 304/6/3 297/6/3 295/6/3
f 305/6/3 297/6/3 304/6/3
f 306/6/3 300/6/3 299/6/3
f 307/6/3 300/6/3 306/6/3
f 308/8/3 301/8/3 300/8/3
f 308/6/3 300/6/3 307/6/3
f 309/6/3 303/6/3 302/6/3
f 309/6/3 302/6/3 301/6/3
f 311/4/3 308/4/3 307/4/3
f 311/6/3 307/6/3 306/6/3
f 312/8/3 301/8/3 308/8/3
f 312/4/3 308/4/3 311/4/3
f 313/6/3 311/6/3 306/6/3
f 313/5/3 312/5/3 311/5/3
f 314/8/3 301/8/3 312/8/3
f 314/5/3 312/5/3 313/5/3
f 315/6/3 313/6/3 306/6/3
f 315/4/3 314/4/3 313/4/3
f 316/8/3 301/8/3 314/8/3
f 316/4/3 314/4/3 315/4/3
f 317/6/3 315/6/3 306/6/3
f 317/6/3 316/6/3 315/6/3
f 318/8/3 301/8/3 316/8/3
f 318/6/3 316/6/3 317/6/3
f 319/6/3 310/6/3 309/6/3
f 319/8/3 301/8/3 318/8/3
f 319/6/3 309/6/3 301/6/3
f 320/6/3 317/6/3 306/6/3
f 321/6/3 319/6/3 318/6/3
f 322/6/3 310/6/3 319/6/3
f 322/6/3 319/6/3 321/6/3
f 323/6/3 321/6/3 320/6/3
f 324/8/3 322/8/3 321/8/3
f 324/6/3 321/6/3 323/6/3
f 325/6/3 323/6/3 320/6/3
f 325/4/3 324/4/3 323/4/3
f 326/8/3 322/8/3 324/8/3
f 326/4/3 324/4/3 325/4/3
f 327/6/3 325/6/3 320/6/3
f 327/5/3 326/5/3 325/5/3
f 328/8/3 322/8/3 326/8/3
f 328/5/3 326/5/3 327/5/3
f 329/6/3 327/6/3 320/6/3
f 329/4/3 328/4/3 327/4/3
f 330/8/3 322/8/3 328/8/3
f 330/4/3 328/4/3 329/4/3
f 331/6/3 310/6/3 322/6/3
f 332/6/3 310/6/3 331/6/3
f 335/6/3 320/6/3 306/6/3
f 335/6/3 329/6/3 320/6/3
f 335/6/3 330/6/3 329/6/3
f 336/6/3 334/6/3 333/6/3
f 338/6/3 330/6/3 335/6/3
f 339/8/3 322/8/3 330/8/3
f 339/6/3 330/6/3 338/6/3
f 340/6/3 331/6/3 322/6/3
f 340/8/3 322/8/3 339/8/3
f 341/6/3 331/6/3 340/6/3
f 342/6/3 331/6/3 341/6/3
f 343/6/3 338/6/3 337/6/3
f 343/6/3 337/6/3 336/6/3
f 343/6/3 341/6/3 340/6/3
f 343/6/3 340/6/3 339/6/3
f 343/6/3 339/6/3 338/6/3
f 343/6/3 336/6/3 333/6/3
f 344/6/3 341/6/3 343/6/3
f 347/6/3 346/6/3 345/6/3
f 348/6/3 346/6/3 347/6/3
f 351/6/3 350/6/3 349/6/3
f 352/6/3 350/6/3 351/6/3
f 355/6/3 354/6/3 353/6/3
f 356/6/3 354/6/3 355/6/3
f 359/6/3 358/6/3 357/6/3
f 360/6/3 358/6/3 359/6/3
f 363/6/3 362/6/3 361/6/3
f 364/6/3 362/6/3 363/6/3
f 367/6/3 366/6/3 365/6/3
f 368/6/3 366/6/3 367/6/3
f 372/7/3 370/7/3 369/7/3
f 373/7/3 370/7/3 372/7/3
f 374/7/3 370/7/3 373/7/3
f 375/7/3 372/7/3 371/7/3
f 375/7/3 373/7/3 372/7/3
f 376/7/3 373/7/3 375/7/3
f 378/7/3 370/7/3 374/7/3
f 379/7/3 375/7/3 371/7/3
f 380/7/3 375/7/3 379/7/3
f 381/7/3 378/7/3 377/7/3
f 382/7/3 370/7/3 378/7/3
f 382/7/3 378/7/3 381/7/3
f 386/7/3 384/7/3 383/7/3
f 387/7/3 386/7/3 385/7/3
f 388/7/3 384/7/3 386/7/3
f 388/7/3 386/7/3 387/7/3
f 389/7/3 387/7/3 385/7/3
f 390/7/3 387/7/3 389/7/3
f 395/7/3 392/7/3 391/7/3
f 397/7/3 395/7/3 391/7/3
f 397/7/3 396/7/3 395/7/3
f 398/7/3 396/7/3 397/7/3
f 399/7/3 396/7/3 398/7/3
f 400/7/3 394/7/3 393/7/3
f 401/7/3 399/7/3 398/7/3
f 401/7/3 400/7/3 399/7/3
f 402/7/3 394/7/3 400/7/3
f 402/7/3 400/7/3 401/7/3
f 405/7/3 404/7/3 403/7/3
f 406/7/3 404/7/3 405/7/3
f 407/7/3 404/7/3 406/7/3
f 408/7/3 404/7/3 407/7/3
f 409/10/4 410/10/4 412/10/4
f 412/10/4 410/10/4 413/10/4
f 410/9/4 411/9/4 414/9/4
f 413/10/4 410/10/4 414/10/4
f 414/9/4 411/9/4 415/9/4
f 416/10/4 417/10/4 419/10/4
f 419/10/4 417/10/4 420/10/4
f 417/9/4 418/9/4 421/9/4
f 420/10/4 417/10/4 421/10/4
f 421/9/4 418/9/4 422/9/4
f 423/6/4 424/6/4 425/6/4
f 425/6/4 424/6/4 426/6/4
f 427/7/4 428/7/4 430/7/4
f 430/7/4 428/7/4 431/7/4
f 431/7/4 428/7/4 432/7/4
f 429/7/4 430/7/4 433/7/4
f 430/7/4 431/7/4 433/7/4
f 433/7/4 431/7/4 434/7/4
f 432/7/4 428/7/4 436/7/4
f 435/7/4 436/7/4 437/7/4
f 436/7/4 428/7/4 438/7/4
f 437/7/4 436/7/4 438/7/4
f 439/7/4 440/7/4 442/7/4
f 442/7/4 440/7/4 443/7/4
f 441/7/4 442/7/4 443/7/4
f 443/7/4 440/7/4 444/7/4
f 441/7/4 443/7/4 445/7/4
f 445/7/4 443/7/4 446/7/4
f 447/7/4 448/7/4 449/7/4
f 449/7/4 448/7/4 450/7/4
f 450/7/4 448/7/4 451/7/4
f 451/7/4 448/7/4 452/7/4
f 453/6/4 454/6/4 457/6/4
f 457/6/4 454/6/4 458/6/4
f 455/6/4 456/6/4 459/6/4
f 459/6/4 456/6/4 460/6/4
f 461/6/4 462/6/4 465/6/4
f 465/6/4 462/6/4 466/6/4
f 463/6/4 464/6/4 467/6/4
f 467/6/4 464/6/4 468/6/4
f 469/6/4 470/6/4 474/6/4
f 474/6/4 470/6/4 475/6/4
f 471/6/4 472/6/4 476/6/4
f 476/6/4 472/6/4 477/6/4
f 473/6/4 474/6/4 479/6/4
f 479/6/4 474/6/4 480/6/4
f 477/6/4 478/6/4 481/6/4
f 481/6/4 478/6/4 482/6/4
f 483/6/4 484/6/4 487/6/4
f 487/6/4 484/6/4 488/6/4
f 485/6/4 486/6/4 491/6/4
f 491/6/4 486/6/4 492/6/4
f 488/6/4 489/6/4 493/6/4
f 493/6/4 489/6/4 494/6/4
f 490/6/4 491/6/4 495/6/4
f 495/6/4 491/6/4 496/6/4
f 497/6/4 498/6/4 500/6/4
f 500/6/4 498/6/4 501/6/4
f 499/6/4 500/6/4 504/6/4
f 501/6/4 502/6/4 504/6/4
f 500/6/4 501/6/4 504/6/4
f 504/6/4 502/6/4 505/6/4
f 503/6/4 504/6/4 507/6/4
f 505/6/4 506/6/4 507/6/4
f 504/6/4 505/6/4 507/6/4
f 507/6/4 506/6/4 508/6/4
f 508/6/4 506/6/4 509/6/4
f 509/6/4 506/6/4 510/6/4
f 508/6/4 509/6/4 511/6/4
f 511/6/4 509/6/4 512/6/4
f 512/6/4 509/6/4 513/6/4
f 513/6/4 509/6/4 514/6/4
f 512/6/4 513/6/4 515/6/4
f 515/6/4 513/6/4 516/6/4
f 519/6/5 518/6/5 517/6/5
f 520/6/5 518/6/5 519/6/5
f 523/6/5 522/6/5 521/6/5
f 524/6/5 522/6/5 523/6/5
f 529/6/5 526/6/5 525/6/5
f 530/6/5 528/6/5 527/6/5
f 531/6/5 529/6/5 525/6/5
f 531/6/5 530/6/5 529/6/5
f 532/6/5 530/6/5 531/6/5
f 533/6/5 528/6/5 530/6/5
f 533/6/5 530/6/5 532/6/5
f 534/6/5 528/6/5 533/6/5
f 535/6/5 533/6/5 532/6/5
f 536/6/5 533/6/5 535/6/5
f 537/6/5 533/6/5 536/6/5
f 538/6/5 533/6/5 537/6/5
f 539/6/5 537/6/5 536/6/5
f 540/6/5 537/6/5 539/6/5
f 545/6/5 542/6/5 541/6/5
f 546/6/5 542/6/5 545/6/5
f 547/6/5 544/6/5 543/6/5
f 548/6/5 544/6/5 547/6/5
f 553/6/5 550/6/5 549/6/5
f 554/6/5 550/6/5 553/6/5
f 557/6/5 552/6/5 551/6/5
f 558/6/5 552/6/5 557/6/5
f 559/6/5 555/6/5 554/6/5
f 560/6/5 555/6/5 559/6/5
f 561/6/5 557/6/5 556/6/5
f 562/6/5 557/6/5 561/6/5
f 567/6/5 564/6/5 563/6/5
f 568/6/5 564/6/5 567/6/5
f 569/6/5 566/6/5 565/6/5
f 570/6/5 566/6/5 569/6/5
f 573/8/5 572/8/5 571/8/5
f 574/8/5 572/8/5 573/8/5
f 579/7/5 576/7/5 575/7/5
f 580/7/5 576/7/5 579/7/5
f 581/7/5 576/7/5 580/7/5
f 582/7/5 576/7/5 581/7/5
f 583/7/5 578/7/5 577/7/5
f 584/7/5 578/7/5 583/7/5
f 589/7/5 586/7/5 585/7/5
f 590/7/5 586/7/5 589/7/5
f 591/7/5 588/7/5 587/7/5
f 592/7/5 588/7/5 591/7/5
f 595/7/5 594/7/5 593/7/5
f 596/7/5 594/7/5 595/7/5
f 599/7/5 598/7/5 597/7/5
f 600/7/5 598/7/5 599/7/5
f 603/7/5 602/7/5 601/7/5
f 604/7/5 602/7/5 603/7/5
f 607/7/5 606/7/5 605/7/5
f 608/7/5 606/7/5 607/7/5
f 609/6/6 610/6/6 613/6/6
f 613/6/6 610/6/6 614/6/6
f 611/6/6 612/6/6 615/6/6
f 615/6/6 612/6/6 616/6/6
f 617/2/6 618/2/6 619/2/6
f 619/2/6 618/2/6 620/2/6
f 619/1/6 620/1/6 623/1/6
f 623/1/6 620/1/6 624/1/6
f 624/1/6 620/1/6 625/1/6
f 625/1/6 620/1/6 626/1/6
f 622/11/6 623/11/6 629/11/6
f 623/11/6 624/11/6 629/11/6
f 624/1/6 625/1/6 629/1/6
f 625/11/6 626/11/6 630/11/6
f 629/1/6 625/1/6 630/1/6
f 626/11/6 627/11/6 630/11/6
f 621/2/6 622/2/6 631/2/6
f 622/11/6 629/11/6 632/11/6
f 631/2/6 622/2/6 632/2/6
f 629/11/6 630/11/6 632/11/6
f 630/11/6 627/11/6 633/11/6
f 632/11/6 630/11/6 633/11/6
f 627/2/6 628/2/6 633/2/6
f 633/2/6 628/2/6 634/2/6
f 635/9/6 636/9/6 640/9/6
f 637/9/6 638/9/6 641/9/6
f 639/9/6 640/9/6 643/9/6
f 640/9/6 636/9/6 644/9/6
f 643/9/6 640/9/6 644/9/6
f 641/9/6 642/9/6 645/9/6
f 637/9/6 641/9/6 645/9/6
f 645/9/6 642/9/6 646/9/6
f 647/7/6 648/7/6 649/7/6
f 649/7/6 648/7/6 650/7/6
f 651/7/6 652/7/6 653/7/6
f 653/7/6 652/7/6 654/7/6
f 655/8/6 656/8/6 657/8/6
f 657/8/6 656/8/6 658/8/6
f 659/7/6 660/7/6 661/7/6
f 661/7/6 660/7/6 662/7/6
f 665/7/6 666/7/6 667/7/6
f 667/7/6 666/7/6 668/7/6
f 663/7/6 664/7/6 669/7/6
f 669/7/6 664/7/6 670/7/6
f 671/7/6 672/7/6 673/7/6
f 673/7/6 672/7/6 674/7/6
f 675/7/6 676/7/6 679/7/6
f 679/7/6 676/7/6 680/7/6
f 677/7/6 678/7/6 681/7/6
f 681/7/6 678/7/6 682/7/6
f 683/6/6 684/6/6 687/6/6
f 687/6/6 684/6/6 688/6/6
f 685/6/6 686/6/6 689/6/6
f 689/6/6 686/6/6 690/6/6
f 691/6/6 692/6/6 695/6/6
f 695/6/6 692/6/6 696/6/6
f 693/6/6 694/6/6 697/6/6
f 697/6/6 694/6/6 698/6/6
f 699/6/6 700/6/6 703/6/6
f 703/6/6 700/6/6 704/6/6
f 701/6/6 702/6/6 705/6/6
f 705/6/6 702/6/6 706/6/6
f 707/6/6 708/6/6 711/6/6
f 711/6/6 708/6/6 712/6/6
f 709/6/6 710/6/6 713/6/6
f 713/6/6 710/6/6 714/6/6
f 715/6/6 716/6/6 719/6/6
f 719/6/6 716/6/6 720/6/6
f 717/6/6 718/6/6 723/6/6
f 723/6/6 718/6/6 724/6/6
f 720/6/6 721/6/6 725/6/6
f 725/6/6 721/6/6 726/6/6
f 722/6/6 723/6/6 727/6/6
f 727/6/6 723/6/6 728/6/6
f 729/6/6 730/6/6 732/6/6
f 732/6/6 730/6/6 733/6/6
f 731/6/6 732/6/6 736/6/6
f 733/6/6 734/6/6 736/6/6
f 732/6/6 733/6/6 736/6/6
f 736/6/6 734/6/6 737/6/6
f 735/6/6 736/6/6 739/6/6
f 737/6/6 738/6/6 739/6/6
f 736/6/6 737/6/6 739/6/6
f 739/6/6 738/6/6 740/6/6
f 740/6/6 738/6/6 741/6/6
f 741/6/6 738/6/6 742/6/6
f 740/6/6 741/6/6 743/6/6
f 743/6/6 741/6/6 744/6/6
f 744/6/6 741/6/6 745/6/6
f 745/6/6 741/6/6 746/6/6
f 744/6/6 745/6/6 747/6/6
f 747/6/6 745/6/6 748/6/6
