# MagicaVoxel @ Ephtracy

# group
o 

# material
mtllib ogre-2.mtl
usemtl palette

# normals
vn -1 0 0
vn 1 0 0
vn 0 0 1
vn 0 0 -1
vn 0 -1 0
vn 0 1 0

# texcoords
vt 0.177734 0.5
vt 0.310547 0.5
vt 0.580078 0.5
vt 0.619141 0.5

# verts
v -0.9 -1.8 3.1
v -0.9 -1.8 -0.7
v -0.9 -1.2 3.1
v -0.9 -1.2 2.9
v -0.9 -1.2 0.9
v -0.9 -0.4 2.9
v -0.9 -0.4 2.7
v -0.9 -0.4 1.9
v -0.9 -0.4 0.9
v -0.9 -0.2 3.1
v -0.9 -0.2 2.7
v -0.9 -0.2 1.9
v -0.9 0.4 0.9
v -0.9 0.4 -0.7
v -0.1 -0.6 3.1
v -0.1 -0.6 2.9
v -0.1 -0.6 1.9
v -0.1 -0.4 1.9
v -0.1 -0.2 3.1
v -0.1 -0.2 1.9
v 0.9 -1.8 3.1
v 0.9 -1.8 -0.7
v 0.9 -1.2 3.1
v 0.9 -1.2 0.9
v 0.9 -1 3.1
v 0.9 -1 2.9
v 0.9 -0.6 3.1
v 0.9 -0.6 2.9
v 0.9 -0.6 1.9
v 0.9 -0.4 1.9
v 0.9 -0.4 0.9
v 0.9 0.4 0.9
v 0.9 0.4 -0.7
v -0.9 -1.8 3.1
v -0.9 -1.2 3.1
v -0.9 -0.2 3.1
v -0.3 -1.2 3.1
v -0.3 -0.2 3.1
v -0.1 -1 3.1
v -0.1 -0.6 3.1
v -0.1 -0.2 3.1
v 0.3 -1 3.1
v 0.3 -0.6 3.1
v 0.5 -1 3.1
v 0.5 -0.6 3.1
v 0.9 -1.8 3.1
v 0.9 -1.2 3.1
v 0.9 -1 3.1
v 0.9 -0.6 3.1
v -0.1 -0.6 1.9
v -0.1 -0.4 1.9
v 0.9 -0.6 1.9
v 0.9 -0.4 1.9
v -0.9 -0.4 0.9
v -0.9 0.4 0.9
v -0.7 -0.4 0.9
v -0.7 -1.19209e-07 0.9
v 0.7 -0.4 0.9
v 0.7 -1.19209e-07 0.9
v 0.9 -0.4 0.9
v 0.9 0.4 0.9
v -0.9 -0.4 1.9
v -0.9 -0.2 1.9
v -0.1 -0.4 1.9
v -0.1 -0.2 1.9
v -0.9 -1.8 -0.7
v -0.9 0.4 -0.7
v 0.9 -1.8 -0.7
v 0.9 0.4 -0.7
v -0.9 -1.8 3.1
v 0.9 -1.8 3.1
v -0.9 -1.8 -0.7
v 0.9 -1.8 -0.7
v -0.1 -0.6 3.1
v 0.3 -0.6 3.1
v 0.5 -0.6 3.1
v 0.9 -0.6 3.1
v -0.1 -0.6 2.9
v 0.3 -0.6 2.9
v 0.5 -0.6 2.9
v 0.9 -0.6 2.9
v -0.1 -0.6 1.9
v 0.9 -0.6 1.9
v -0.9 -0.4 1.9
v -0.1 -0.4 1.9
v 0.9 -0.4 1.9
v -0.9 -0.4 0.9
v -0.7 -0.4 0.9
v 0.7 -0.4 0.9
v 0.9 -0.4 0.9
v -0.9 -0.2 3.1
v -0.3 -0.2 3.1
v -0.1 -0.2 3.1
v -0.9 -0.2 2.7
v -0.3 -0.2 2.7
v -0.9 -0.2 1.9
v -0.1 -0.2 1.9
v -0.9 0.4 0.9
v 0.9 0.4 0.9
v -0.9 0.4 -0.7
v 0.9 0.4 -0.7

# faces
f 3/2/1 2/2/1 1/2/1
f 4/2/1 2/2/1 3/2/1
f 5/2/1 2/2/1 4/2/1
f 6/4/1 4/4/1 3/4/1
f 6/3/1 5/3/1 4/3/1
f 7/3/1 5/3/1 6/3/1
f 8/3/1 5/3/1 7/3/1
f 9/2/1 2/2/1 5/2/1
f 9/3/1 5/3/1 8/3/1
f 10/4/1 6/4/1 3/4/1
f 10/4/1 7/4/1 6/4/1
f 11/3/1 8/3/1 7/3/1
f 11/4/1 7/4/1 10/4/1
f 12/3/1 8/3/1 11/3/1
f 13/2/1 2/2/1 9/2/1
f 14/2/1 2/2/1 13/2/1
f 15/3/2 16/3/2 18/3/2
f 16/3/2 17/3/2 18/3/2
f 15/3/2 18/3/2 19/3/2
f 19/3/2 18/3/2 20/3/2
f 21/2/2 22/2/2 23/2/2
f 23/2/2 22/2/2 24/2/2
f 23/3/2 24/3/2 25/3/2
f 25/3/2 24/3/2 26/3/2
f 25/4/2 26/4/2 27/4/2
f 26/3/2 24/3/2 28/3/2
f 27/4/2 26/4/2 28/4/2
f 28/3/2 24/3/2 29/3/2
f 29/3/2 24/3/2 30/3/2
f 24/2/2 22/2/2 31/2/2
f 30/3/2 24/3/2 31/3/2
f 31/2/2 22/2/2 32/2/2
f 32/2/2 22/2/2 33/2/2
f 37/2/3 35/2/3 34/2/3
f 37/4/3 36/4/3 35/4/3
f 38/4/3 36/4/3 37/4/3
f 39/3/3 38/3/3 37/3/3
f 40/3/3 38/3/3 39/3/3
f 41/3/3 38/3/3 40/3/3
f 42/3/3 39/3/3 37/3/3
f 42/4/3 40/4/3 39/4/3
f 43/4/3 40/4/3 42/4/3
f 44/3/3 42/3/3 37/3/3
f 44/3/3 43/3/3 42/3/3
f 45/3/3 43/3/3 44/3/3
f 46/2/3 37/2/3 34/2/3
f 47/3/3 44/3/3 37/3/3
f 47/2/3 37/2/3 46/2/3
f 48/4/3 45/4/3 44/4/3
f 48/3/3 44/3/3 47/3/3
f 49/4/3 45/4/3 48/4/3
f 52/3/3 51/3/3 50/3/3
f 53/3/3 51/3/3 52/3/3
f 56/2/3 55/2/3 54/2/3
f 57/2/3 55/2/3 56/2/3
f 58/3/3 57/3/3 56/3/3
f 59/2/3 55/2/3 57/2/3
f 59/3/3 57/3/3 58/3/3
f 60/2/3 59/2/3 58/2/3
f 61/2/3 55/2/3 59/2/3
f 61/2/3 59/2/3 60/2/3
f 62/3/4 63/3/4 64/3/4
f 64/3/4 63/3/4 65/3/4
f 66/2/4 67/2/4 68/2/4
f 68/2/4 67/2/4 69/2/4
f 72/2/5 71/2/5 70/2/5
f 73/2/5 71/2/5 72/2/5
f 74/4/6 75/4/6 78/4/6
f 75/3/6 76/3/6 79/3/6
f 78/4/6 75/4/6 79/4/6
f 76/4/6 77/4/6 80/4/6
f 79/3/6 76/3/6 80/3/6
f 80/4/6 77/4/6 81/4/6
f 78/3/6 79/3/6 82/3/6
f 79/3/6 80/3/6 82/3/6
f 80/3/6 81/3/6 82/3/6
f 82/3/6 81/3/6 83/3/6
f 84/3/6 85/3/6 87/3/6
f 85/3/6 86/3/6 87/3/6
f 87/3/6 86/3/6 88/3/6
f 88/3/6 86/3/6 89/3/6
f 89/3/6 86/3/6 90/3/6
f 91/4/6 92/4/6 94/4/6
f 92/3/6 93/3/6 95/3/6
f 94/4/6 92/4/6 95/4/6
f 94/3/6 95/3/6 96/3/6
f 95/3/6 93/3/6 97/3/6
f 96/3/6 95/3/6 97/3/6
f 98/2/6 99/2/6 100/2/6
f 100/2/6 99/2/6 101/2/6
