# MagicaVoxel @ Ephtracy

# group
o 

# material
mtllib ogre-1.mtl
usemtl palette

# normals
vn -1 0 0
vn 1 0 0
vn 0 0 1
vn 0 0 -1
vn 0 -1 0
vn 0 1 0

# texcoords
vt 0.0605469 0.5
vt 0.150391 0.5
vt 0.310547 0.5
vt 0.552734 0.5
vt 0.580078 0.5

# verts
v -3.4 2.4 2.9
v -3.4 2.4 -2.9
v -3.4 5.3 2.9
v -3.4 5.3 -2.9
v -2.6 -1.7 2.3
v -2.6 -1.7 -2.3
v -2.6 -0.9 2.3
v -2.6 -0.9 -2.3
v -2.6 1.4 0.0999999
v -2.6 1.4 -2.3
v -2.6 1.6 0.7
v -2.6 1.6 0.0999999
v -2.6 1.8 1.3
v -2.6 1.8 0.7
v -2.6 2 1.9
v -2.6 2 1.3
v -2.6 2.2 2.3
v -2.6 2.2 1.9
v -2.6 2.4 2.3
v -2.6 2.4 -2.3
v 2.6 -1.7 2.3
v 2.6 -1.7 -2.3
v 2.6 -0.9 2.3
v 2.6 -0.9 -2.3
v 2.6 1.4 -0.3
v 2.6 1.4 -2.3
v 2.6 1.6 0.5
v 2.6 1.6 -0.3
v 2.6 1.8 1.1
v 2.6 1.8 0.5
v 2.6 2 1.9
v 2.6 2 1.1
v 2.6 2.2 2.3
v 2.6 2.2 1.9
v 2.6 2.4 2.3
v 2.6 2.4 -2.3
v 3.4 2.4 2.9
v 3.4 2.4 -2.9
v 3.4 5.3 2.9
v 3.4 5.3 -2.9
v -3.4 2.4 2.9
v -3.4 5.3 2.9
v -2.4 2.4 2.9
v -2.4 3.6 2.9
v -2.4 3.8 2.9
v -2.2 3.8 2.9
v -2.2 4 2.9
v -2.2 5.3 2.9
v 2.2 3.8 2.9
v 2.2 4 2.9
v 2.2 5.3 2.9
v 2.4 2.4 2.9
v 2.4 3.6 2.9
v 2.4 3.8 2.9
v 3.4 2.4 2.9
v 3.4 5.3 2.9
v -2.6 -1.7 2.3
v -2.6 -0.9 2.3
v -2.6 2.2 2.3
v -2.6 2.4 2.3
v -2.4 2.2 2.3
v -2.4 2.4 2.3
v 2.4 2.2 2.3
v 2.4 2.4 2.3
v 2.6 -1.7 2.3
v 2.6 -0.9 2.3
v 2.6 2.2 2.3
v 2.6 2.4 2.3
v -2.6 -1.7 -2.3
v -2.6 -0.9 -2.3
v -2.6 1.4 -2.3
v -2.6 2.4 -2.3
v 0.2 2.4 -2.3
v 0.4 2.4 -2.3
v 2.6 -1.7 -2.3
v 2.6 -0.9 -2.3
v 2.6 1.4 -2.3
v 2.6 2.4 -2.3
v -3.4 2.4 -2.9
v -3.4 5.3 -2.9
v -3 2.4 -2.9
v -3 3 -2.9
v -3 3.8 -2.9
v -3 4.2 -2.9
v -2.8 3 -2.9
v -2.8 3.4 -2.9
v -2.8 3.8 -2.9
v -2.8 4 -2.9
v -2.6 3.4 -2.9
v -2.6 3.8 -2.9
v -2.4 3.4 -2.9
v -2.4 3.8 -2.9
v -2.4 4 -2.9
v -2.2 3 -2.9
v -2.2 3.4 -2.9
v -2.2 4 -2.9
v -2.2 4.2 -2.9
v -2 2.6 -2.9
v -2 3 -2.9
v -2 3.6 -2.9
v -2 3.8 -2.9
v -2 4 -2.9
v -2 4.4 -2.9
v -1.8 2.4 -2.9
v -1.8 2.6 -2.9
v -1.8 3.4 -2.9
v -1.8 3.6 -2.9
v -1.8 3.8 -2.9
v -1.8 4.2 -2.9
v -1.8 4.4 -2.9
v -1.8 4.6 -2.9
v -1.6 3.2 -2.9
v -1.6 3.4 -2.9
v -1.6 3.6 -2.9
v -1.6 3.8 -2.9
v -1.6 4.2 -2.9
v -1.6 4.4 -2.9
v -1.6 4.6 -2.9
v -1.6 4.8 -2.9
v -1.4 3.4 -2.9
v -1.4 3.6 -2.9
v -1.4 4.4 -2.9
v -1.4 4.6 -2.9
v -1.4 4.8 -2.9
v -1.4 5 -2.9
v -1.2 3 -2.9
v -1.2 3.2 -2.9
v -1.2 4.6 -2.9
v -1.2 4.8 -2.9
v -1 3.2 -2.9
v -1 3.4 -2.9
v -1 5 -2.9
v -1 5.3 -2.9
v -0.8 3.4 -2.9
v -0.8 3.8 -2.9
v -0.8 4.8 -2.9
v -0.8 5 -2.9
v -0.6 3.8 -2.9
v -0.6 4.2 -2.9
v -0.4 2.8 -2.9
v -0.4 3 -2.9
v -0.4 4.2 -2.9
v -0.4 4.4 -2.9
v -0.4 5 -2.9
v -0.4 5.2 -2.9
v -0.2 3 -2.9
v -0.2 3.2 -2.9
v -0.2 4.4 -2.9
v -0.2 4.6 -2.9
v 0 4.6 -2.9
v 0 5 -2.9
v 0.2 2.4 -2.9
v 0.2 2.8 -2.9
v 0.4 2.4 -2.9
v 0.4 2.8 -2.9
v 0.4 4.6 -2.9
v 0.4 5 -2.9
v 0.6 3 -2.9
v 0.6 3.2 -2.9
v 0.6 4.4 -2.9
v 0.6 4.6 -2.9
v 0.8 2.8 -2.9
v 0.8 3 -2.9
v 0.8 4.2 -2.9
v 0.8 4.4 -2.9
v 1 3.8 -2.9
v 1 4.2 -2.9
v 1 5 -2.9
v 1 5.2 -2.9
v 1.2 3.4 -2.9
v 1.2 3.8 -2.9
v 1.4 3.2 -2.9
v 1.4 3.4 -2.9
v 1.4 4.8 -2.9
v 1.4 5 -2.9
v 1.6 3 -2.9
v 1.6 3.2 -2.9
v 1.6 3.4 -2.9
v 1.6 3.6 -2.9
v 1.6 4.6 -2.9
v 1.6 4.8 -2.9
v 1.6 5 -2.9
v 1.6 5.3 -2.9
v 1.8 2.4 -2.9
v 1.8 2.6 -2.9
v 1.8 3.2 -2.9
v 1.8 3.4 -2.9
v 1.8 3.6 -2.9
v 1.8 3.8 -2.9
v 1.8 4.2 -2.9
v 1.8 4.6 -2.9
v 1.8 4.8 -2.9
v 1.8 5 -2.9
v 2 2.6 -2.9
v 2 3 -2.9
v 2 3.4 -2.9
v 2 3.6 -2.9
v 2 3.8 -2.9
v 2 4.2 -2.9
v 2 4.8 -2.9
v 2.2 3 -2.9
v 2.2 3.4 -2.9
v 2.2 3.6 -2.9
v 2.2 3.8 -2.9
v 2.4 3.4 -2.9
v 2.4 3.8 -2.9
v 2.4 4 -2.9
v 2.6 3.4 -2.9
v 2.6 3.8 -2.9
v 2.8 3 -2.9
v 2.8 3.4 -2.9
v 3 2.4 -2.9
v 3 3 -2.9
v 3 4 -2.9
v 3 4.2 -2.9
v 3.4 2.4 -2.9
v 3.4 5.3 -2.9
v -2.6 -1.7 2.3
v 2.6 -1.7 2.3
v -2.6 -1.7 -2.3
v 2.6 -1.7 -2.3
v -3.4 2.4 2.9
v -2.4 2.4 2.9
v 2.4 2.4 2.9
v 3.4 2.4 2.9
v -2.6 2.4 2.3
v -2.4 2.4 2.3
v 2.4 2.4 2.3
v 2.6 2.4 2.3
v -2.6 2.4 -2.3
v 0.2 2.4 -2.3
v 0.4 2.4 -2.3
v 2.6 2.4 -2.3
v -3 2.4 -2.7
v -1.8 2.4 -2.7
v 1.8 2.4 -2.7
v 3 2.4 -2.7
v -3.4 2.4 -2.9
v -3 2.4 -2.9
v -1.8 2.4 -2.9
v 0.2 2.4 -2.9
v 0.4 2.4 -2.9
v 1.8 2.4 -2.9
v 3 2.4 -2.9
v 3.4 2.4 -2.9
v -3.4 5.3 2.9
v -2.2 5.3 2.9
v 2.2 5.3 2.9
v 3.4 5.3 2.9
v -2.2 5.3 0.3
v 2.2 5.3 0.3
v -0.6 5.3 -2.5
v 1.2 5.3 -2.5
v -1 5.3 -2.7
v -0.6 5.3 -2.7
v 1.2 5.3 -2.7
v 1.6 5.3 -2.7
v -3.4 5.3 -2.9
v -1 5.3 -2.9
v 1.6 5.3 -2.9
v 3.4 5.3 -2.9

# faces
f 3/3/1 2/3/1 1/3/1
f 4/3/1 2/3/1 3/3/1
f 7/3/1 6/3/1 5/3/1
f 8/3/1 6/3/1 7/3/1
f 9/5/1 8/5/1 7/5/1
f 10/5/1 8/5/1 9/5/1
f 11/5/1 9/5/1 7/5/1
f 12/3/1 10/3/1 9/3/1
f 12/5/1 9/5/1 11/5/1
f 13/5/1 11/5/1 7/5/1
f 14/3/1 12/3/1 11/3/1
f 14/5/1 11/5/1 13/5/1
f 15/5/1 13/5/1 7/5/1
f 16/3/1 14/3/1 13/3/1
f 16/5/1 13/5/1 15/5/1
f 17/5/1 15/5/1 7/5/1
f 18/3/1 16/3/1 15/3/1
f 18/5/1 15/5/1 17/5/1
f 19/3/1 18/3/1 17/3/1
f 20/3/1 10/3/1 12/3/1
f 20/3/1 18/3/1 19/3/1
f 20/3/1 12/3/1 14/3/1
f 20/3/1 16/3/1 18/3/1
f 20/3/1 14/3/1 16/3/1
f 21/3/2 22/3/2 23/3/2
f 23/3/2 22/3/2 24/3/2
f 23/5/2 24/5/2 25/5/2
f 25/5/2 24/5/2 26/5/2
f 23/5/2 25/5/2 27/5/2
f 25/3/2 26/3/2 28/3/2
f 27/5/2 25/5/2 28/5/2
f 23/5/2 27/5/2 29/5/2
f 27/3/2 28/3/2 30/3/2
f 29/5/2 27/5/2 30/5/2
f 23/5/2 29/5/2 31/5/2
f 29/3/2 30/3/2 32/3/2
f 31/5/2 29/5/2 32/5/2
f 23/5/2 31/5/2 33/5/2
f 31/3/2 32/3/2 34/3/2
f 33/5/2 31/5/2 34/5/2
f 33/3/2 34/3/2 35/3/2
f 28/3/2 26/3/2 36/3/2
f 35/3/2 34/3/2 36/3/2
f 30/3/2 28/3/2 36/3/2
f 34/3/2 32/3/2 36/3/2
f 32/3/2 30/3/2 36/3/2
f 37/3/2 38/3/2 39/3/2
f 39/3/2 38/3/2 40/3/2
f 43/3/3 42/3/3 41/3/3
f 44/3/3 42/3/3 43/3/3
f 45/3/3 42/3/3 44/3/3
f 46/2/3 45/2/3 44/2/3
f 46/3/3 42/3/3 45/3/3
f 47/3/3 42/3/3 46/3/3
f 48/3/3 42/3/3 47/3/3
f 49/2/3 46/2/3 44/2/3
f 49/2/3 47/2/3 46/2/3
f 50/5/3 48/5/3 47/5/3
f 50/2/3 47/2/3 49/2/3
f 51/5/3 48/5/3 50/5/3
f 52/5/3 44/5/3 43/5/3
f 53/2/3 49/2/3 44/2/3
f 53/5/3 44/5/3 52/5/3
f 54/3/3 50/3/3 49/3/3
f 54/2/3 49/2/3 53/2/3
f 54/3/3 51/3/3 50/3/3
f 55/3/3 53/3/3 52/3/3
f 55/3/3 54/3/3 53/3/3
f 56/3/3 51/3/3 54/3/3
f 56/3/3 54/3/3 55/3/3
f 61/5/3 59/5/3 58/5/3
f 61/3/3 60/3/3 59/3/3
f 62/3/3 60/3/3 61/3/3
f 63/5/3 61/5/3 58/5/3
f 63/5/3 62/5/3 61/5/3
f 64/5/3 62/5/3 63/5/3
f 65/3/3 58/3/3 57/3/3
f 66/5/3 63/5/3 58/5/3
f 66/3/3 58/3/3 65/3/3
f 67/3/3 64/3/3 63/3/3
f 67/5/3 63/5/3 66/5/3
f 68/3/3 64/3/3 67/3/3
f 71/3/4 72/3/4 73/3/4
f 71/3/4 73/3/4 74/3/4
f 69/3/4 70/3/4 75/3/4
f 70/5/4 71/5/4 76/5/4
f 75/3/4 70/3/4 76/3/4
f 71/3/4 74/3/4 77/3/4
f 76/5/4 71/5/4 77/5/4
f 77/3/4 74/3/4 78/3/4
f 79/3/4 80/3/4 81/3/4
f 81/3/4 80/3/4 82/3/4
f 82/3/4 80/3/4 83/3/4
f 83/3/4 80/3/4 84/3/4
f 81/1/4 82/1/4 85/1/4
f 82/3/4 83/3/4 85/3/4
f 85/3/4 83/3/4 86/3/4
f 83/2/4 84/2/4 87/2/4
f 86/3/4 83/3/4 87/3/4
f 87/2/4 84/2/4 88/2/4
f 85/1/4 86/1/4 89/1/4
f 86/3/4 87/3/4 89/3/4
f 87/3/4 88/3/4 89/3/4
f 89/3/4 88/3/4 90/3/4
f 85/1/4 89/1/4 91/1/4
f 89/1/4 90/1/4 91/1/4
f 90/3/4 88/3/4 92/3/4
f 91/1/4 90/1/4 92/1/4
f 88/2/4 84/2/4 93/2/4
f 92/3/4 88/3/4 93/3/4
f 81/1/4 85/1/4 94/1/4
f 85/1/4 91/1/4 94/1/4
f 91/3/4 92/3/4 95/3/4
f 94/1/4 91/1/4 95/1/4
f 93/2/4 84/2/4 96/2/4
f 92/2/4 93/2/4 96/2/4
f 84/3/4 80/3/4 97/3/4
f 96/2/4 84/2/4 97/2/4
f 81/1/4 94/1/4 98/1/4
f 94/3/4 95/3/4 99/3/4
f 98/1/4 94/1/4 99/1/4
f 95/3/4 92/3/4 100/3/4
f 99/3/4 95/3/4 100/3/4
f 92/2/4 96/2/4 101/2/4
f 100/3/4 92/3/4 101/3/4
f 96/3/4 97/3/4 102/3/4
f 101/2/4 96/2/4 102/2/4
f 97/3/4 80/3/4 103/3/4
f 102/3/4 97/3/4 103/3/4
f 81/1/4 98/1/4 104/1/4
f 99/3/4 100/3/4 105/3/4
f 104/1/4 98/1/4 105/1/4
f 98/3/4 99/3/4 105/3/4
f 105/3/4 100/3/4 106/3/4
f 101/2/4 102/2/4 107/2/4
f 106/3/4 100/3/4 107/3/4
f 102/2/4 103/2/4 107/2/4
f 100/2/4 101/2/4 107/2/4
f 107/2/4 103/2/4 108/2/4
f 108/2/4 103/2/4 109/2/4
f 103/3/4 80/3/4 110/3/4
f 109/2/4 103/2/4 110/2/4
f 110/3/4 80/3/4 111/3/4
f 105/3/4 106/3/4 112/3/4
f 104/3/4 105/3/4 112/3/4
f 106/2/4 107/2/4 113/2/4
f 112/3/4 106/3/4 113/3/4
f 107/2/4 108/2/4 113/2/4
f 113/2/4 108/2/4 114/2/4
f 108/3/4 109/3/4 115/3/4
f 114/2/4 108/2/4 115/2/4
f 110/2/4 111/2/4 116/2/4
f 115/3/4 109/3/4 116/3/4
f 109/2/4 110/2/4 116/2/4
f 116/2/4 111/2/4 117/2/4
f 111/3/4 80/3/4 118/3/4
f 117/2/4 111/2/4 118/2/4
f 118/3/4 80/3/4 119/3/4
f 113/2/4 114/2/4 120/2/4
f 112/2/4 113/2/4 120/2/4
f 116/3/4 117/3/4 121/3/4
f 120/2/4 114/2/4 121/2/4
f 114/3/4 115/3/4 121/3/4
f 115/3/4 116/3/4 121/3/4
f 117/2/4 118/2/4 122/2/4
f 121/3/4 117/3/4 122/3/4
f 118/2/4 119/2/4 122/2/4
f 122/2/4 119/2/4 123/2/4
f 119/3/4 80/3/4 124/3/4
f 123/2/4 119/2/4 124/2/4
f 124/3/4 80/3/4 125/3/4
f 104/3/4 112/3/4 126/3/4
f 112/2/4 120/2/4 127/2/4
f 126/3/4 112/3/4 127/3/4
f 120/3/4 121/3/4 128/3/4
f 122/3/4 123/3/4 128/3/4
f 121/3/4 122/3/4 128/3/4
f 124/2/4 125/2/4 128/2/4
f 123/2/4 124/2/4 128/2/4
f 128/2/4 125/2/4 129/2/4
f 127/2/4 120/2/4 130/2/4
f 126/2/4 127/2/4 130/2/4
f 128/3/4 129/3/4 131/3/4
f 130/2/4 120/2/4 131/2/4
f 120/3/4 128/3/4 131/3/4
f 129/2/4 125/2/4 132/2/4
f 125/3/4 80/3/4 132/3/4
f 132/3/4 80/3/4 133/3/4
f 131/3/4 129/3/4 134/3/4
f 130/3/4 131/3/4 134/3/4
f 134/3/4 129/3/4 135/3/4
f 132/2/4 133/2/4 136/2/4
f 135/3/4 129/3/4 136/3/4
f 129/2/4 132/2/4 136/2/4
f 136/2/4 133/2/4 137/2/4
f 134/1/4 135/1/4 138/1/4
f 135/3/4 136/3/4 138/3/4
f 136/3/4 137/3/4 138/3/4
f 138/3/4 137/3/4 139/3/4
f 104/3/4 126/3/4 140/3/4
f 126/2/4 130/2/4 141/2/4
f 140/3/4 126/3/4 141/3/4
f 139/3/4 137/3/4 142/3/4
f 138/1/4 139/1/4 142/1/4
f 142/3/4 137/3/4 143/3/4
f 137/2/4 133/2/4 144/2/4
f 143/3/4 137/3/4 144/3/4
f 144/2/4 133/2/4 145/2/4
f 141/2/4 130/2/4 146/2/4
f 140/2/4 141/2/4 146/2/4
f 130/3/4 134/3/4 147/3/4
f 146/2/4 130/2/4 147/2/4
f 142/1/4 143/1/4 148/1/4
f 144/3/4 145/3/4 148/3/4
f 143/3/4 144/3/4 148/3/4
f 148/3/4 145/3/4 149/3/4
f 148/1/4 149/1/4 150/1/4
f 149/3/4 145/3/4 150/3/4
f 150/3/4 145/3/4 151/3/4
f 104/3/4 140/3/4 152/3/4
f 140/2/4 146/2/4 153/2/4
f 152/3/4 140/3/4 153/3/4
f 152/2/4 153/2/4 154/2/4
f 153/2/4 146/2/4 155/2/4
f 154/2/4 153/2/4 155/2/4
f 148/1/4 150/1/4 156/1/4
f 150/1/4 151/1/4 156/1/4
f 151/3/4 145/3/4 157/3/4
f 156/1/4 151/1/4 157/1/4
f 146/3/4 147/3/4 158/3/4
f 155/2/4 146/2/4 158/2/4
f 147/3/4 134/3/4 159/3/4
f 158/3/4 147/3/4 159/3/4
f 148/1/4 156/1/4 160/1/4
f 142/1/4 148/1/4 160/1/4
f 156/3/4 157/3/4 161/3/4
f 160/1/4 156/1/4 161/1/4
f 155/2/4 158/2/4 162/2/4
f 158/2/4 159/2/4 162/2/4
f 154/3/4 155/3/4 162/3/4
f 162/2/4 159/2/4 163/2/4
f 138/1/4 142/1/4 164/1/4
f 142/1/4 160/1/4 164/1/4
f 160/3/4 161/3/4 165/3/4
f 164/1/4 160/1/4 165/1/4
f 134/1/4 138/1/4 166/1/4
f 138/1/4 164/1/4 166/1/4
f 164/3/4 165/3/4 167/3/4
f 166/1/4 164/1/4 167/1/4
f 161/3/4 157/3/4 168/3/4
f 167/3/4 165/3/4 168/3/4
f 165/3/4 161/3/4 168/3/4
f 157/3/4 145/3/4 168/3/4
f 145/2/4 133/2/4 169/2/4
f 168/3/4 145/3/4 169/3/4
f 159/3/4 134/3/4 170/3/4
f 134/1/4 166/1/4 170/1/4
f 167/3/4 168/3/4 171/3/4
f 170/1/4 166/1/4 171/1/4
f 166/3/4 167/3/4 171/3/4
f 159/3/4 170/3/4 172/3/4
f 163/2/4 159/2/4 172/2/4
f 170/3/4 171/3/4 172/3/4
f 172/3/4 171/3/4 173/3/4
f 171/3/4 168/3/4 174/3/4
f 173/3/4 171/3/4 174/3/4
f 168/2/4 169/2/4 175/2/4
f 174/3/4 168/3/4 175/3/4
f 172/2/4 173/2/4 176/2/4
f 162/3/4 163/3/4 176/3/4
f 163/2/4 172/2/4 176/2/4
f 176/2/4 173/2/4 177/2/4
f 173/3/4 174/3/4 178/3/4
f 177/2/4 173/2/4 178/2/4
f 178/3/4 174/3/4 179/3/4
f 179/3/4 174/3/4 180/3/4
f 174/2/4 175/2/4 181/2/4
f 180/3/4 174/3/4 181/3/4
f 175/2/4 169/2/4 182/2/4
f 181/2/4 175/2/4 182/2/4
f 169/2/4 133/2/4 183/2/4
f 182/2/4 169/2/4 183/2/4
f 154/3/4 162/3/4 184/3/4
f 176/3/4 177/3/4 184/3/4
f 162/3/4 176/3/4 184/3/4
f 184/3/4 177/3/4 185/3/4
f 178/2/4 179/2/4 186/2/4
f 185/3/4 177/3/4 186/3/4
f 177/2/4 178/2/4 186/2/4
f 186/2/4 179/2/4 187/2/4
f 179/3/4 180/3/4 188/3/4
f 187/2/4 179/2/4 188/2/4
f 188/3/4 180/3/4 189/3/4
f 189/3/4 180/3/4 190/3/4
f 180/2/4 181/2/4 191/2/4
f 190/3/4 180/3/4 191/3/4
f 181/2/4 182/2/4 191/2/4
f 191/2/4 182/2/4 192/2/4
f 182/3/4 183/3/4 193/3/4
f 192/2/4 182/2/4 193/2/4
f 186/3/4 187/3/4 194/3/4
f 184/1/4 185/1/4 194/1/4
f 185/3/4 186/3/4 194/3/4
f 194/3/4 187/3/4 195/3/4
f 188/2/4 189/2/4 196/2/4
f 195/3/4 187/3/4 196/3/4
f 187/2/4 188/2/4 196/2/4
f 196/2/4 189/2/4 197/2/4
f 189/3/4 190/3/4 198/3/4
f 197/2/4 189/2/4 198/2/4
f 191/2/4 192/2/4 199/2/4
f 198/3/4 190/3/4 199/3/4
f 190/2/4 191/2/4 199/2/4
f 192/3/4 193/3/4 200/3/4
f 199/2/4 192/2/4 200/2/4
f 196/3/4 197/3/4 201/3/4
f 194/1/4 195/1/4 201/1/4
f 195/3/4 196/3/4 201/3/4
f 201/3/4 197/3/4 202/3/4
f 197/2/4 198/2/4 203/2/4
f 202/3/4 197/3/4 203/3/4
f 198/2/4 199/2/4 203/2/4
f 203/2/4 199/2/4 204/2/4
f 201/1/4 202/1/4 205/1/4
f 202/3/4 203/3/4 205/3/4
f 203/3/4 204/3/4 205/3/4
f 204/2/4 199/2/4 206/2/4
f 205/3/4 204/3/4 206/3/4
f 206/2/4 199/2/4 207/2/4
f 201/1/4 205/1/4 208/1/4
f 205/1/4 206/1/4 208/1/4
f 206/3/4 207/3/4 209/3/4
f 208/1/4 206/1/4 209/1/4
f 194/1/4 201/1/4 210/1/4
f 201/1/4 208/1/4 210/1/4
f 208/3/4 209/3/4 211/3/4
f 210/1/4 208/1/4 211/1/4
f 184/1/4 194/1/4 212/1/4
f 194/1/4 210/1/4 212/1/4
f 210/3/4 211/3/4 213/3/4
f 212/1/4 210/1/4 213/1/4
f 207/2/4 199/2/4 214/2/4
f 213/3/4 211/3/4 214/3/4
f 209/3/4 207/3/4 214/3/4
f 211/3/4 209/3/4 214/3/4
f 199/3/4 200/3/4 215/3/4
f 214/2/4 199/2/4 215/2/4
f 213/3/4 214/3/4 216/3/4
f 212/3/4 213/3/4 216/3/4
f 214/3/4 215/3/4 216/3/4
f 200/3/4 193/3/4 217/3/4
f 216/3/4 215/3/4 217/3/4
f 215/3/4 200/3/4 217/3/4
f 193/3/4 183/3/4 217/3/4
f 220/3/5 219/3/5 218/3/5
f 221/3/5 219/3/5 220/3/5
f 226/3/5 223/3/5 222/3/5
f 227/5/5 224/5/5 223/5/5
f 227/3/5 223/3/5 226/3/5
f 228/3/5 225/3/5 224/3/5
f 228/5/5 224/5/5 227/5/5
f 229/3/5 225/3/5 228/3/5
f 230/3/5 226/3/5 222/3/5
f 233/3/5 225/3/5 229/3/5
f 234/3/5 230/3/5 222/3/5
f 234/3/5 231/3/5 230/3/5
f 235/3/5 231/3/5 234/3/5
f 236/3/5 233/3/5 232/3/5
f 237/3/5 225/3/5 233/3/5
f 237/3/5 233/3/5 236/3/5
f 238/3/5 234/3/5 222/3/5
f 239/1/5 235/1/5 234/1/5
f 239/3/5 234/3/5 238/3/5
f 240/3/5 231/3/5 235/3/5
f 240/1/5 235/1/5 239/1/5
f 241/2/5 232/2/5 231/2/5
f 241/3/5 231/3/5 240/3/5
f 242/3/5 236/3/5 232/3/5
f 242/2/5 232/2/5 241/2/5
f 243/1/5 237/1/5 236/1/5
f 243/3/5 236/3/5 242/3/5
f 244/3/5 225/3/5 237/3/5
f 244/1/5 237/1/5 243/1/5
f 245/3/5 225/3/5 244/3/5
f 246/3/6 247/3/6 250/3/6
f 247/5/6 248/5/6 250/5/6
f 248/3/6 249/3/6 251/3/6
f 250/5/6 248/5/6 251/5/6
f 250/3/6 251/3/6 252/3/6
f 252/3/6 251/3/6 253/3/6
f 250/3/6 252/3/6 254/3/6
f 252/2/6 253/2/6 255/2/6
f 254/3/6 252/3/6 255/3/6
f 253/3/6 251/3/6 256/3/6
f 255/2/6 253/2/6 256/2/6
f 256/3/6 251/3/6 257/3/6
f 246/3/6 250/3/6 258/3/6
f 250/3/6 254/3/6 258/3/6
f 254/2/6 255/2/6 259/2/6
f 258/3/6 254/3/6 259/3/6
f 256/2/6 257/2/6 259/2/6
f 255/2/6 256/2/6 259/2/6
f 257/3/6 251/3/6 260/3/6
f 259/2/6 257/2/6 260/2/6
f 251/3/6 249/3/6 261/3/6
f 260/3/6 251/3/6 261/3/6
