# MagicaVoxel @ Ephtracy

# group
o 

# material
mtllib mogerco-3.mtl
usemtl palette

# normals
vn -1 0 0
vn 1 0 0
vn 0 0 1
vn 0 0 -1
vn 0 -1 0
vn 0 1 0

# texcoords
vt 0.849609 0.5
vt 0.990234 0.5

# verts
v -0.4 -0.1 -0.1
v -0.4 -0.1 -1.2
v -0.4 0 -0.1
v -0.4 0 -1.2
v -0.3 -0.1 0
v -0.3 -0.1 -0.1
v -0.3 -0.1 -1.2
v -0.3 -0.1 -1.3
v -0.3 0 0
v -0.3 0 -0.1
v -0.3 0 -1.2
v -0.3 0 -1.3
v -0.2 -0.1 -1.3
v -0.2 -0.1 -1.4
v -0.2 0 -1.3
v -0.2 0 -1.4
v -0.1 -0.1 -1.4
v -0.1 -0.1 -1.5
v -0.1 0 -1.4
v -0.1 0 -1.5
v 0 -0.1 0
v 0 -0.1 -0.2
v 0 0 0
v 0 0 -0.2
v 0.2 -0.1 -0.2
v 0.2 -0.1 -0.5
v 0.2 -0.1 -0.7
v 0.2 -0.1 -0.9
v 0.2 -0.1 -1.1
v 0.2 -0.1 -1.3
v 0.2 0 -0.2
v 0.2 0 -0.5
v 0.2 0 -0.7
v 0.2 0 -0.9
v 0.2 0 -1.1
v 0.2 0 -1.3
v 0.3 -0.1 -0.5
v 0.3 -0.1 -0.6
v 0.3 -0.1 -0.7
v 0.3 -0.1 -0.9
v 0.3 -0.1 -1
v 0.3 -0.1 -1.1
v 0.3 -0.1 -1.3
v 0.3 -0.1 -1.4
v 0.3 -0.1 -1.5
v 0.3 0 -0.5
v 0.3 0 -0.6
v 0.3 0 -0.7
v 0.3 0 -0.9
v 0.3 0 -1
v 0.3 0 -1.1
v 0.3 0 -1.3
v 0.3 0 -1.4
v 0.3 0 -1.5
v -0.3 -0.1 0
v -0.3 0 0
v 0 -0.1 0
v 0 0 0
v -0.4 -0.1 -0.1
v -0.4 0 -0.1
v -0.3 -0.1 -0.1
v -0.3 0 -0.1
v 0 -0.1 -0.2
v 0 0 -0.2
v 0.2 -0.1 -0.2
v 0.2 0 -0.2
v 0.2 -0.1 -0.5
v 0.2 0 -0.5
v 0.3 -0.1 -0.5
v 0.3 0 -0.5
v 0.2 -0.1 -0.9
v 0.2 0 -0.9
v 0.3 -0.1 -0.9
v 0.3 0 -0.9
v 0.2 -0.1 -1.3
v 0.2 0 -1.3
v 0.3 -0.1 -1.3
v 0.3 0 -1.3
v 0.2 -0.1 -0.7
v 0.2 0 -0.7
v 0.3 -0.1 -0.7
v 0.3 0 -0.7
v 0.2 -0.1 -1.1
v 0.2 0 -1.1
v 0.3 -0.1 -1.1
v 0.3 0 -1.1
v -0.4 -0.1 -1.2
v -0.4 0 -1.2
v -0.3 -0.1 -1.2
v -0.3 0 -1.2
v -0.3 -0.1 -1.3
v -0.3 0 -1.3
v -0.2 -0.1 -1.3
v -0.2 0 -1.3
v -0.2 -0.1 -1.4
v -0.2 0 -1.4
v -0.1 -0.1 -1.4
v -0.1 0 -1.4
v -0.1 -0.1 -1.5
v -0.1 0 -1.5
v 0.3 -0.1 -1.5
v 0.3 0 -1.5
v -0.3 -0.1 0
v 0 -0.1 0
v -0.4 -0.1 -0.1
v -0.3 -0.1 -0.1
v 0 -0.1 -0.2
v 0.2 -0.1 -0.2
v -0.3 -0.1 -0.3
v -0.1 -0.1 -0.3
v -0.3 -0.1 -0.4
v -0.1 -0.1 -0.4
v 0 -0.1 -0.4
v -0.3 -0.1 -0.5
v -0.2 -0.1 -0.5
v -0.1 -0.1 -0.5
v 0 -0.1 -0.5
v 0.2 -0.1 -0.5
v 0.3 -0.1 -0.5
v 0 -0.1 -0.6
v 0.3 -0.1 -0.6
v -0.2 -0.1 -0.7
v -0.1 -0.1 -0.7
v 0.2 -0.1 -0.7
v 0.3 -0.1 -0.7
v -0.3 -0.1 -0.8
v -0.1 -0.1 -0.8
v 0 -0.1 -0.8
v -0.3 -0.1 -0.9
v -0.2 -0.1 -0.9
v -0.1 -0.1 -0.9
v 0 -0.1 -0.9
v 0.2 -0.1 -0.9
v 0.3 -0.1 -0.9
v 0 -0.1 -1
v 0.3 -0.1 -1
v -0.2 -0.1 -1.1
v -0.1 -0.1 -1.1
v 0.2 -0.1 -1.1
v 0.3 -0.1 -1.1
v -0.4 -0.1 -1.2
v -0.3 -0.1 -1.2
v -0.1 -0.1 -1.2
v 0 -0.1 -1.2
v -0.3 -0.1 -1.3
v -0.2 -0.1 -1.3
v -0.1 -0.1 -1.3
v 0 -0.1 -1.3
v 0.2 -0.1 -1.3
v 0.3 -0.1 -1.3
v -0.2 -0.1 -1.4
v -0.1 -0.1 -1.4
v 0 -0.1 -1.4
v 0.3 -0.1 -1.4
v -0.1 -0.1 -1.5
v 0.3 -0.1 -1.5
v -0.3 0 0
v 0 0 0
v -0.4 0 -0.1
v -0.3 0 -0.1
v 0 0 -0.2
v 0.2 0 -0.2
v -0.3 0 -0.3
v -0.1 0 -0.3
v -0.3 0 -0.4
v -0.1 0 -0.4
v 0 0 -0.4
v -0.3 0 -0.5
v -0.2 0 -0.5
v -0.1 0 -0.5
v 0 0 -0.5
v 0.2 0 -0.5
v 0.3 0 -0.5
v 0 0 -0.6
v 0.3 0 -0.6
v -0.2 0 -0.7
v -0.1 0 -0.7
v 0.2 0 -0.7
v 0.3 0 -0.7
v -0.3 0 -0.8
v -0.1 0 -0.8
v 0 0 -0.8
v -0.3 0 -0.9
v -0.2 0 -0.9
v -0.1 0 -0.9
v 0 0 -0.9
v 0.2 0 -0.9
v 0.3 0 -0.9
v 0 0 -1
v 0.3 0 -1
v -0.2 0 -1.1
v -0.1 0 -1.1
v 0.2 0 -1.1
v 0.3 0 -1.1
v -0.4 0 -1.2
v -0.3 0 -1.2
v -0.1 0 -1.2
v 0 0 -1.2
v -0.3 0 -1.3
v -0.2 0 -1.3
v -0.1 0 -1.3
v 0 0 -1.3
v 0.2 0 -1.3
v 0.3 0 -1.3
v -0.2 0 -1.4
v -0.1 0 -1.4
v 0 0 -1.4
v 0.3 0 -1.4
v -0.1 0 -1.5
v 0.3 0 -1.5

# faces
f 3/2/1 2/2/1 1/2/1
f 4/2/1 2/2/1 3/2/1
f 9/2/1 6/2/1 5/2/1
f 10/2/1 6/2/1 9/2/1
f 11/2/1 8/2/1 7/2/1
f 12/2/1 8/2/1 11/2/1
f 15/2/1 14/2/1 13/2/1
f 16/2/1 14/2/1 15/2/1
f 19/2/1 18/2/1 17/2/1
f 20/2/1 18/2/1 19/2/1
f 21/2/2 22/2/2 23/2/2
f 23/2/2 22/2/2 24/2/2
f 25/2/2 26/2/2 31/2/2
f 31/2/2 26/2/2 32/2/2
f 27/2/2 28/2/2 33/2/2
f 33/2/2 28/2/2 34/2/2
f 29/2/2 30/2/2 35/2/2
f 35/2/2 30/2/2 36/2/2
f 37/1/2 38/1/2 46/1/2
f 38/2/2 39/2/2 47/2/2
f 46/1/2 38/1/2 47/1/2
f 47/2/2 39/2/2 48/2/2
f 40/1/2 41/1/2 49/1/2
f 41/2/2 42/2/2 50/2/2
f 49/1/2 41/1/2 50/1/2
f 50/2/2 42/2/2 51/2/2
f 43/1/2 44/1/2 52/1/2
f 44/2/2 45/2/2 53/2/2
f 52/1/2 44/1/2 53/1/2
f 53/2/2 45/2/2 54/2/2
f 57/2/3 56/2/3 55/2/3
f 58/2/3 56/2/3 57/2/3
f 61/2/3 60/2/3 59/2/3
f 62/2/3 60/2/3 61/2/3
f 65/2/3 64/2/3 63/2/3
f 66/2/3 64/2/3 65/2/3
f 69/1/3 68/1/3 67/1/3
f 70/1/3 68/1/3 69/1/3
f 73/1/3 72/1/3 71/1/3
f 74/1/3 72/1/3 73/1/3
f 77/1/3 76/1/3 75/1/3
f 78/1/3 76/1/3 77/1/3
f 79/2/4 80/2/4 81/2/4
f 81/2/4 80/2/4 82/2/4
f 83/2/4 84/2/4 85/2/4
f 85/2/4 84/2/4 86/2/4
f 87/2/4 88/2/4 89/2/4
f 89/2/4 88/2/4 90/2/4
f 91/2/4 92/2/4 93/2/4
f 93/2/4 92/2/4 94/2/4
f 95/2/4 96/2/4 97/2/4
f 97/2/4 96/2/4 98/2/4
f 99/2/4 100/2/4 101/2/4
f 101/2/4 100/2/4 102/2/4
f 106/2/5 104/2/5 103/2/5
f 107/2/5 104/2/5 106/2/5
f 107/2/5 106/2/5 105/2/5
f 109/2/5 107/2/5 105/2/5
f 109/2/5 108/2/5 107/2/5
f 110/2/5 108/2/5 109/2/5
f 111/2/5 109/2/5 105/2/5
f 111/1/5 110/1/5 109/1/5
f 112/2/5 108/2/5 110/2/5
f 112/1/5 110/1/5 111/1/5
f 113/2/5 108/2/5 112/2/5
f 114/2/5 111/2/5 105/2/5
f 114/2/5 112/2/5 111/2/5
f 115/2/5 112/2/5 114/2/5
f 116/1/5 113/1/5 112/1/5
f 116/2/5 112/2/5 115/2/5
f 117/2/5 108/2/5 113/2/5
f 117/1/5 113/1/5 116/1/5
f 118/2/5 108/2/5 117/2/5
f 120/2/5 116/2/5 115/2/5
f 120/1/5 119/1/5 118/1/5
f 120/1/5 118/1/5 117/1/5
f 120/2/5 117/2/5 116/2/5
f 121/1/5 119/1/5 120/1/5
f 122/1/5 115/1/5 114/1/5
f 122/2/5 120/2/5 115/2/5
f 122/2/5 121/2/5 120/2/5
f 123/2/5 121/2/5 122/2/5
f 124/2/5 121/2/5 123/2/5
f 125/2/5 121/2/5 124/2/5
f 126/2/5 114/2/5 105/2/5
f 126/1/5 122/1/5 114/1/5
f 126/1/5 123/1/5 122/1/5
f 127/2/5 124/2/5 123/2/5
f 127/1/5 123/1/5 126/1/5
f 128/2/5 124/2/5 127/2/5
f 129/2/5 126/2/5 105/2/5
f 129/2/5 127/2/5 126/2/5
f 130/2/5 127/2/5 129/2/5
f 131/1/5 128/1/5 127/1/5
f 131/2/5 127/2/5 130/2/5
f 132/2/5 124/2/5 128/2/5
f 132/1/5 128/1/5 131/1/5
f 133/2/5 124/2/5 132/2/5
f 135/2/5 131/2/5 130/2/5
f 135/1/5 134/1/5 133/1/5
f 135/1/5 133/1/5 132/1/5
f 135/2/5 132/2/5 131/2/5
f 136/1/5 134/1/5 135/1/5
f 137/1/5 130/1/5 129/1/5
f 137/2/5 135/2/5 130/2/5
f 137/2/5 136/2/5 135/2/5
f 138/2/5 136/2/5 137/2/5
f 139/2/5 136/2/5 138/2/5
f 140/2/5 136/2/5 139/2/5
f 141/2/5 129/2/5 105/2/5
f 142/1/5 137/1/5 129/1/5
f 142/2/5 129/2/5 141/2/5
f 142/1/5 138/1/5 137/1/5
f 143/2/5 139/2/5 138/2/5
f 143/1/5 138/1/5 142/1/5
f 144/2/5 139/2/5 143/2/5
f 145/2/5 143/2/5 142/2/5
f 146/2/5 143/2/5 145/2/5
f 147/1/5 144/1/5 143/1/5
f 147/2/5 143/2/5 146/2/5
f 148/2/5 139/2/5 144/2/5
f 148/1/5 144/1/5 147/1/5
f 149/2/5 139/2/5 148/2/5
f 151/2/5 147/2/5 146/2/5
f 151/2/5 148/2/5 147/2/5
f 152/2/5 148/2/5 151/2/5
f 153/1/5 150/1/5 149/1/5
f 153/2/5 148/2/5 152/2/5
f 153/1/5 149/1/5 148/1/5
f 154/1/5 150/1/5 153/1/5
f 155/2/5 153/2/5 152/2/5
f 155/2/5 154/2/5 153/2/5
f 156/2/5 154/2/5 155/2/5
f 157/2/6 158/2/6 160/2/6
f 160/2/6 158/2/6 161/2/6
f 159/2/6 160/2/6 161/2/6
f 159/2/6 161/2/6 163/2/6
f 161/2/6 162/2/6 163/2/6
f 163/2/6 162/2/6 164/2/6
f 159/2/6 163/2/6 165/2/6
f 163/1/6 164/1/6 165/1/6
f 164/2/6 162/2/6 166/2/6
f 165/1/6 164/1/6 166/1/6
f 166/2/6 162/2/6 167/2/6
f 159/2/6 165/2/6 168/2/6
f 165/2/6 166/2/6 168/2/6
f 168/2/6 166/2/6 169/2/6
f 166/1/6 167/1/6 170/1/6
f 169/2/6 166/2/6 170/2/6
f 167/2/6 162/2/6 171/2/6
f 170/1/6 167/1/6 171/1/6
f 171/2/6 162/2/6 172/2/6
f 169/2/6 170/2/6 174/2/6
f 172/1/6 173/1/6 174/1/6
f 171/1/6 172/1/6 174/1/6
f 170/2/6 171/2/6 174/2/6
f 174/1/6 173/1/6 175/1/6
f 168/1/6 169/1/6 176/1/6
f 169/2/6 174/2/6 176/2/6
f 174/2/6 175/2/6 176/2/6
f 176/2/6 175/2/6 177/2/6
f 177/2/6 175/2/6 178/2/6
f 178/2/6 175/2/6 179/2/6
f 159/2/6 168/2/6 180/2/6
f 168/1/6 176/1/6 180/1/6
f 176/1/6 177/1/6 180/1/6
f 177/2/6 178/2/6 181/2/6
f 180/1/6 177/1/6 181/1/6
f 181/2/6 178/2/6 182/2/6
f 159/2/6 180/2/6 183/2/6
f 180/2/6 181/2/6 183/2/6
f 183/2/6 181/2/6 184/2/6
f 181/1/6 182/1/6 185/1/6
f 184/2/6 181/2/6 185/2/6
f 182/2/6 178/2/6 186/2/6
f 185/1/6 182/1/6 186/1/6
f 186/2/6 178/2/6 187/2/6
f 184/2/6 185/2/6 189/2/6
f 187/1/6 188/1/6 189/1/6
f 186/1/6 187/1/6 189/1/6
f 185/2/6 186/2/6 189/2/6
f 189/1/6 188/1/6 190/1/6
f 183/1/6 184/1/6 191/1/6
f 184/2/6 189/2/6 191/2/6
f 189/2/6 190/2/6 191/2/6
f 191/2/6 190/2/6 192/2/6
f 192/2/6 190/2/6 193/2/6
f 193/2/6 190/2/6 194/2/6
f 159/2/6 183/2/6 195/2/6
f 183/1/6 191/1/6 196/1/6
f 195/2/6 183/2/6 196/2/6
f 191/1/6 192/1/6 196/1/6
f 192/2/6 193/2/6 197/2/6
f 196/1/6 192/1/6 197/1/6
f 197/2/6 193/2/6 198/2/6
f 196/2/6 197/2/6 199/2/6
f 199/2/6 197/2/6 200/2/6
f 197/1/6 198/1/6 201/1/6
f 200/2/6 197/2/6 201/2/6
f 198/2/6 193/2/6 202/2/6
f 201/1/6 198/1/6 202/1/6
f 202/2/6 193/2/6 203/2/6
f 200/2/6 201/2/6 205/2/6
f 201/2/6 202/2/6 205/2/6
f 205/2/6 202/2/6 206/2/6
f 203/1/6 204/1/6 207/1/6
f 206/2/6 202/2/6 207/2/6
f 202/1/6 203/1/6 207/1/6
f 207/1/6 204/1/6 208/1/6
f 206/2/6 207/2/6 209/2/6
f 207/2/6 208/2/6 209/2/6
f 209/2/6 208/2/6 210/2/6
