# MagicaVoxel @ Ephtracy

# group
o 

# material
mtllib pedroFODA-2.mtl
usemtl palette

# normals
vn -1 0 0
vn 1 0 0
vn 0 0 1
vn 0 0 -1
vn 0 -1 0
vn 0 1 0

# texcoords
vt 0.0605469 0.5
vt 0.228516 0.5
vt 0.396484 0.5

# verts
v -0.3 -0.5 0.3
v -0.3 -0.5 -1.3
v -0.3 -0.3 0.3
v -0.3 -0.3 -0.1
v -0.3 -0.3 -0.3
v -0.3 -0.3 -1.3
v -0.3 -0.1 -0.1
v -0.3 -0.1 -0.3
v -0.3 -0.1 -0.9
v -0.3 -0.1 -1.3
v -0.3 0.1 -0.3
v -0.3 0.1 -0.9
v -0.3 0.3 0.3
v -0.3 0.3 0.2
v -0.3 0.3 -0.2
v -0.3 0.3 -0.3
v -0.3 0.4 0.2
v -0.3 0.4 -0.2
v -0.2 0.3 0.3
v -0.2 0.3 0.2
v -0.2 0.3 -0.2
v -0.2 0.3 -0.3
v -0.2 0.4 0.3
v -0.2 0.4 0.2
v -0.2 0.4 -0.2
v -0.2 0.4 -0.3
v -0.1 -0.1 -0.9
v -0.1 -0.1 -1.1
v -0.1 0.1 -0.9
v -0.1 0.1 -1.1
v 0.1 -0.1 -0.9
v 0.1 -0.1 -1.1
v 0.1 0.1 -0.9
v 0.1 0.1 -1.1
v 0.2 0.3 0.3
v 0.2 0.3 0.2
v 0.2 0.3 -0.2
v 0.2 0.3 -0.3
v 0.2 0.4 0.3
v 0.2 0.4 0.2
v 0.2 0.4 -0.2
v 0.2 0.4 -0.3
v 0.3 -0.5 0.3
v 0.3 -0.5 -1.3
v 0.3 -0.3 0.3
v 0.3 -0.3 -0.1
v 0.3 -0.3 -0.3
v 0.3 -0.3 -1.3
v 0.3 -0.1 -0.1
v 0.3 -0.1 -0.3
v 0.3 -0.1 -0.9
v 0.3 -0.1 -1.3
v 0.3 0.1 -0.3
v 0.3 0.1 -0.9
v 0.3 0.3 0.3
v 0.3 0.3 0.2
v 0.3 0.3 -0.2
v 0.3 0.3 -0.3
v 0.3 0.4 0.2
v 0.3 0.4 -0.2
v -0.3 -0.5 0.3
v -0.3 -0.3 0.3
v -0.3 0.3 0.3
v -0.2 0.3 0.3
v -0.2 0.4 0.3
v 0.2 0.3 0.3
v 0.2 0.4 0.3
v 0.3 -0.5 0.3
v 0.3 -0.3 0.3
v 0.3 0.3 0.3
v -0.3 0.3 0.2
v -0.3 0.4 0.2
v -0.2 0.3 0.2
v -0.2 0.4 0.2
v 0.2 0.3 0.2
v 0.2 0.4 0.2
v 0.3 0.3 0.2
v 0.3 0.4 0.2
v -0.3 0.3 -0.2
v -0.3 0.4 -0.2
v -0.2 0.3 -0.2
v -0.2 0.4 -0.2
v 0.2 0.3 -0.2
v 0.2 0.4 -0.2
v 0.3 0.3 -0.2
v 0.3 0.4 -0.2
v -0.3 0.1 -0.3
v -0.3 0.3 -0.3
v -0.2 0.3 -0.3
v -0.2 0.4 -0.3
v 0.2 0.3 -0.3
v 0.2 0.4 -0.3
v 0.3 0.1 -0.3
v 0.3 0.3 -0.3
v -0.3 -0.1 -0.9
v -0.3 0.1 -0.9
v -0.1 -0.1 -0.9
v -0.1 0.1 -0.9
v 0.1 -0.1 -0.9
v 0.1 0.1 -0.9
v 0.3 -0.1 -0.9
v 0.3 0.1 -0.9
v -0.1 -0.1 -1.1
v -0.1 0.1 -1.1
v 0.1 -0.1 -1.1
v 0.1 0.1 -1.1
v -0.3 -0.5 -1.3
v -0.3 -0.3 -1.3
v -0.3 -0.1 -1.3
v 0.3 -0.5 -1.3
v 0.3 -0.3 -1.3
v 0.3 -0.1 -1.3
v -0.3 -0.5 0.3
v 0.3 -0.5 0.3
v -0.3 -0.5 -1.3
v 0.3 -0.5 -1.3
v -0.3 -0.1 -0.9
v -0.1 -0.1 -0.9
v 0.1 -0.1 -0.9
v 0.3 -0.1 -0.9
v -0.1 -0.1 -1.1
v 0.1 -0.1 -1.1
v -0.3 -0.1 -1.3
v 0.3 -0.1 -1.3
v -0.3 0.1 -0.3
v 0.3 0.1 -0.3
v -0.3 0.1 -0.9
v -0.1 0.1 -0.9
v 0.1 0.1 -0.9
v 0.3 0.1 -0.9
v -0.1 0.1 -1.1
v 0.1 0.1 -1.1
v -0.3 0.3 0.3
v -0.2 0.3 0.3
v 0.2 0.3 0.3
v 0.3 0.3 0.3
v -0.3 0.3 0.2
v -0.2 0.3 0.2
v 0.2 0.3 0.2
v 0.3 0.3 0.2
v -0.3 0.3 -0.2
v -0.2 0.3 -0.2
v 0.2 0.3 -0.2
v 0.3 0.3 -0.2
v -0.3 0.3 -0.3
v -0.2 0.3 -0.3
v 0.2 0.3 -0.3
v 0.3 0.3 -0.3
v -0.2 0.4 0.3
v 0.2 0.4 0.3
v -0.3 0.4 0.2
v -0.2 0.4 0.2
v 0.2 0.4 0.2
v 0.3 0.4 0.2
v -0.3 0.4 -0.2
v -0.2 0.4 -0.2
v 0.2 0.4 -0.2
v 0.3 0.4 -0.2
v -0.2 0.4 -0.3
v 0.2 0.4 -0.3

# faces
f 3/3/1 2/3/1 1/3/1
f 4/3/1 2/3/1 3/3/1
f 5/3/1 2/3/1 4/3/1
f 6/3/1 2/3/1 5/3/1
f 7/1/1 4/1/1 3/1/1
f 7/3/1 5/3/1 4/3/1
f 8/1/1 6/1/1 5/1/1
f 8/3/1 5/3/1 7/3/1
f 9/1/1 6/1/1 8/1/1
f 10/1/1 6/1/1 9/1/1
f 11/1/1 8/1/1 7/1/1
f 11/3/1 9/3/1 8/3/1
f 12/3/1 9/3/1 11/3/1
f 13/1/1 7/1/1 3/1/1
f 13/1/1 11/1/1 7/1/1
f 14/1/1 11/1/1 13/1/1
f 15/1/1 11/1/1 14/1/1
f 16/1/1 11/1/1 15/1/1
f 17/1/1 15/1/1 14/1/1
f 18/1/1 15/1/1 17/1/1
f 23/1/1 20/1/1 19/1/1
f 24/1/1 20/1/1 23/1/1
f 25/1/1 22/1/1 21/1/1
f 26/1/1 22/1/1 25/1/1
f 29/3/1 28/3/1 27/3/1
f 30/3/1 28/3/1 29/3/1
f 31/3/2 32/3/2 33/3/2
f 33/3/2 32/3/2 34/3/2
f 35/1/2 36/1/2 39/1/2
f 39/1/2 36/1/2 40/1/2
f 37/1/2 38/1/2 41/1/2
f 41/1/2 38/1/2 42/1/2
f 43/3/2 44/3/2 45/3/2
f 45/3/2 44/3/2 46/3/2
f 46/3/2 44/3/2 47/3/2
f 47/3/2 44/3/2 48/3/2
f 45/1/2 46/1/2 49/1/2
f 46/3/2 47/3/2 49/3/2
f 47/1/2 48/1/2 50/1/2
f 49/3/2 47/3/2 50/3/2
f 50/1/2 48/1/2 51/1/2
f 51/1/2 48/1/2 52/1/2
f 49/1/2 50/1/2 53/1/2
f 50/3/2 51/3/2 53/3/2
f 53/3/2 51/3/2 54/3/2
f 45/1/2 49/1/2 55/1/2
f 49/1/2 53/1/2 55/1/2
f 55/1/2 53/1/2 56/1/2
f 56/1/2 53/1/2 57/1/2
f 57/1/2 53/1/2 58/1/2
f 56/1/2 57/1/2 59/1/2
f 59/1/2 57/1/2 60/1/2
f 64/1/3 63/1/3 62/1/3
f 66/1/3 64/1/3 62/1/3
f 66/1/3 65/1/3 64/1/3
f 67/1/3 65/1/3 66/1/3
f 68/3/3 62/3/3 61/3/3
f 69/1/3 66/1/3 62/1/3
f 69/3/3 62/3/3 68/3/3
f 70/1/3 66/1/3 69/1/3
f 73/1/3 72/1/3 71/1/3
f 74/1/3 72/1/3 73/1/3
f 77/1/3 76/1/3 75/1/3
f 78/1/3 76/1/3 77/1/3
f 79/1/4 80/1/4 81/1/4
f 81/1/4 80/1/4 82/1/4
f 83/1/4 84/1/4 85/1/4
f 85/1/4 84/1/4 86/1/4
f 87/1/4 88/1/4 89/1/4
f 87/1/4 89/1/4 91/1/4
f 89/1/4 90/1/4 91/1/4
f 91/1/4 90/1/4 92/1/4
f 87/1/4 91/1/4 93/1/4
f 93/1/4 91/1/4 94/1/4
f 95/3/4 96/3/4 97/3/4
f 97/3/4 96/3/4 98/3/4
f 99/3/4 100/3/4 101/3/4
f 101/3/4 100/3/4 102/3/4
f 103/3/4 104/3/4 105/3/4
f 105/3/4 104/3/4 106/3/4
f 107/3/4 108/3/4 110/3/4
f 108/1/4 109/1/4 111/1/4
f 110/3/4 108/3/4 111/3/4
f 111/1/4 109/1/4 112/1/4
f 115/3/5 114/3/5 113/3/5
f 116/3/5 114/3/5 115/3/5
f 117/1/6 118/1/6 121/1/6
f 119/1/6 120/1/6 122/1/6
f 117/1/6 121/1/6 123/1/6
f 121/1/6 122/1/6 123/1/6
f 122/1/6 120/1/6 124/1/6
f 123/1/6 122/1/6 124/1/6
f 125/3/6 126/3/6 127/3/6
f 127/3/6 126/3/6 128/3/6
f 128/3/6 126/3/6 129/3/6
f 129/3/6 126/3/6 130/3/6
f 128/3/6 129/3/6 131/3/6
f 131/3/6 129/3/6 132/3/6
f 133/1/6 134/1/6 137/1/6
f 137/1/6 134/1/6 138/1/6
f 135/1/6 136/1/6 139/1/6
f 139/1/6 136/1/6 140/1/6
f 141/1/6 142/1/6 145/1/6
f 145/1/6 142/1/6 146/1/6
f 143/1/6 144/1/6 147/1/6
f 147/1/6 144/1/6 148/1/6
f 149/1/6 150/1/6 152/1/6
f 152/1/6 150/1/6 153/1/6
f 151/1/6 152/1/6 155/1/6
f 153/1/6 154/1/6 155/1/6
f 152/1/6 153/1/6 155/1/6
f 155/1/6 154/1/6 156/1/6
f 156/1/6 154/1/6 157/1/6
f 157/1/6 154/1/6 158/1/6
f 156/1/6 157/1/6 159/1/6
f 159/1/6 157/1/6 160/1/6
