# MagicaVoxel @ Ephtracy

# group
o 

# material
mtllib xa-0.mtl
usemtl palette

# normals
vn 1 0 0
vn -1 0 0
vn 0 0 -1
vn 0 0 1
vn 0 -1 0
vn 0 1 0

# texcoords
vt 0.775391 0.5
vt 0.873047 0.5
vt 0.958984 0.5

# verts
v 0.4 -0.5 -0.3
v 0.4 -0.5 0.4
v 0.4 -0.3 -5.96046e-08
v 0.4 -0.3 0.1
v 0.4 0.1 -0.2
v 0.4 0.1 -5.96046e-08
v 0.4 0.1 0.1
v 0.4 0.1 0.3
v 0.4 0.2 -0.2
v 0.4 0.2 0.3
v 0.4 0.3 -0.3
v 0.4 0.3 0.4
v 0.1 -0.4 -0.6
v 0.1 -0.4 -0.3
v 0.1 -0.3 -0.5
v 0.1 -0.3 -0.3
v 0.1 0.1 -0.5
v 0.1 0.1 -0.3
v 0.1 0.2 -0.6
v 0.1 0.2 -0.3
v -0.2 0.2 -0.2
v -0.2 0.2 0.3
v -0.2 0.3 -0.2
v -0.2 0.3 0.3
v 0.3 0.2 -0.2
v 0.3 0.2 0.3
v 0.3 0.3 -0.2
v 0.3 0.3 0.3
v 0 -0.4 -0.6
v 0 -0.4 -0.3
v 0 -0.3 -0.5
v 0 -0.3 -0.3
v 0 0.1 -0.5
v 0 0.1 -0.3
v 0 0.2 -0.6
v 0 0.2 -0.3
v -0.3 -0.5 -0.3
v -0.3 -0.5 0.4
v -0.3 -0.4 -0.2
v -0.3 -0.4 -0.1
v -0.3 -0.4 0.2
v -0.3 -0.4 0.3
v -0.3 -0.1 -5.96046e-08
v -0.3 -0.1 0.1
v -0.3 0.1 -0.1
v -0.3 0.1 -5.96046e-08
v -0.3 0.1 0.1
v -0.3 0.1 0.2
v -0.3 0.2 -0.2
v -0.3 0.2 -5.96046e-08
v -0.3 0.2 0.1
v -0.3 0.2 0.3
v -0.3 0.3 -0.3
v -0.3 0.3 0.4
v 0.1 -0.4 -0.6
v 0.1 0.2 -0.6
v 0 -0.4 -0.6
v 0 0.2 -0.6
v 0.4 -0.5 -0.3
v 0.4 0.3 -0.3
v 0.1 -0.4 -0.3
v 0.1 -0.3 -0.3
v 0.1 0.1 -0.3
v 0.1 0.2 -0.3
v 0 -0.4 -0.3
v 0 -0.3 -0.3
v 0 0.1 -0.3
v 0 0.2 -0.3
v -0.3 -0.5 -0.3
v -0.3 0.3 -0.3
v 0.3 0.2 0.3
v 0.3 0.3 0.3
v -0.2 0.2 0.3
v -0.2 0.3 0.3
v 0.1 -0.3 -0.5
v 0.1 0.1 -0.5
v 0 -0.3 -0.5
v 0 0.1 -0.5
v 0.3 0.2 -0.2
v 0.3 0.3 -0.2
v -0.2 0.2 -0.2
v -0.2 0.3 -0.2
v 0.4 -0.5 0.4
v 0.4 0.3 0.4
v 0.2 -0.2 0.4
v 0.2 0.2 0.4
v 0.1 -0.1 0.4
v 0.1 0.1 0.4
v -0.1 -0.4 0.4
v -0.1 -0.2 0.4
v -0.1 -0.1 0.4
v -0.1 0.1 0.4
v -0.2 -0.4 0.4
v -0.2 0.2 0.4
v -0.3 -0.5 0.4
v -0.3 0.3 0.4
v 0.4 -0.5 -0.3
v -0.3 -0.5 -0.3
v 0.4 -0.5 0.4
v -0.3 -0.5 0.4
v 0.1 -0.4 -0.6
v 0 -0.4 -0.6
v 0.1 -0.4 -0.3
v 0 -0.4 -0.3
v 0.1 0.1 -0.5
v 0 0.1 -0.5
v 0.1 0.1 -0.3
v 0 0.1 -0.3
v 0.1 -0.3 -0.5
v 0 -0.3 -0.5
v 0.1 -0.3 -0.3
v 0 -0.3 -0.3
v 0.1 0.2 -0.6
v 0 0.2 -0.6
v 0.1 0.2 -0.3
v 0 0.2 -0.3
v 0.3 0.2 -0.2
v -0.2 0.2 -0.2
v 0.3 0.2 0.3
v -0.2 0.2 0.3
v 0.4 0.3 -0.3
v -0.3 0.3 -0.3
v 0.3 0.3 -0.2
v -0.2 0.3 -0.2
v 0.3 0.3 0.3
v -0.2 0.3 0.3
v 0.4 0.3 0.4
v -0.3 0.3 0.4

# faces
f 3/2/1 2/2/1 1/2/1
f 4/2/1 2/2/1 3/2/1
f 5/2/1 3/2/1 1/2/1
f 6/3/1 4/3/1 3/3/1
f 6/2/1 3/2/1 5/2/1
f 7/2/1 2/2/1 4/2/1
f 7/3/1 4/3/1 6/3/1
f 8/2/1 2/2/1 7/2/1
f 9/3/1 6/3/1 5/3/1
f 9/2/1 5/2/1 1/2/1
f 9/3/1 8/3/1 7/3/1
f 9/3/1 7/3/1 6/3/1
f 10/2/1 2/2/1 8/2/1
f 10/3/1 8/3/1 9/3/1
f 11/2/1 9/2/1 1/2/1
f 11/2/1 10/2/1 9/2/1
f 12/2/1 2/2/1 10/2/1
f 12/2/1 10/2/1 11/2/1
f 15/2/1 14/2/1 13/2/1
f 16/2/1 14/2/1 15/2/1
f 17/2/1 15/2/1 13/2/1
f 19/2/1 17/2/1 13/2/1
f 19/2/1 18/2/1 17/2/1
f 20/2/1 18/2/1 19/2/1
f 23/2/1 22/2/1 21/2/1
f 24/2/1 22/2/1 23/2/1
f 25/2/2 26/2/2 27/2/2
f 27/2/2 26/2/2 28/2/2
f 29/2/2 30/2/2 31/2/2
f 31/2/2 30/2/2 32/2/2
f 29/2/2 31/2/2 33/2/2
f 29/2/2 33/2/2 35/2/2
f 33/2/2 34/2/2 35/2/2
f 35/2/2 34/2/2 36/2/2
f 37/2/2 38/2/2 39/2/2
f 39/2/2 38/2/2 40/2/2
f 40/2/2 38/2/2 41/2/2
f 41/2/2 38/2/2 42/2/2
f 40/2/2 41/2/2 43/2/2
f 43/2/2 41/2/2 44/2/2
f 39/3/2 40/3/2 45/3/2
f 40/2/2 43/2/2 45/2/2
f 43/3/2 44/3/2 46/3/2
f 45/2/2 43/2/2 46/2/2
f 44/2/2 41/2/2 47/2/2
f 46/3/2 44/3/2 47/3/2
f 41/3/2 42/3/2 48/3/2
f 47/2/2 41/2/2 48/2/2
f 37/2/2 39/2/2 49/2/2
f 45/3/2 46/3/2 49/3/2
f 39/3/2 45/3/2 49/3/2
f 46/2/2 47/2/2 50/2/2
f 49/3/2 46/3/2 50/3/2
f 47/3/2 48/3/2 51/3/2
f 50/2/2 47/2/2 51/2/2
f 48/3/2 42/3/2 52/3/2
f 51/3/2 48/3/2 52/3/2
f 42/2/2 38/2/2 52/2/2
f 50/2/2 51/2/2 53/2/2
f 49/2/2 50/2/2 53/2/2
f 51/2/2 52/2/2 53/2/2
f 37/2/2 49/2/2 53/2/2
f 52/2/2 38/2/2 54/2/2
f 53/2/2 52/2/2 54/2/2
f 57/2/3 56/2/3 55/2/3
f 58/2/3 56/2/3 57/2/3
f 61/2/3 60/2/3 59/2/3
f 62/2/3 60/2/3 61/2/3
f 63/2/3 60/2/3 62/2/3
f 64/2/3 60/2/3 63/2/3
f 65/2/3 61/2/3 59/2/3
f 66/2/3 63/2/3 62/2/3
f 67/2/3 63/2/3 66/2/3
f 68/2/3 60/2/3 64/2/3
f 69/2/3 67/2/3 66/2/3
f 69/2/3 68/2/3 67/2/3
f 69/2/3 65/2/3 59/2/3
f 69/2/3 66/2/3 65/2/3
f 70/2/3 60/2/3 68/2/3
f 70/2/3 68/2/3 69/2/3
f 73/2/3 72/2/3 71/2/3
f 74/2/3 72/2/3 73/2/3
f 75/2/4 76/2/4 77/2/4
f 77/2/4 76/2/4 78/2/4
f 79/2/4 80/2/4 81/2/4
f 81/2/4 80/2/4 82/2/4
f 83/2/4 84/2/4 85/2/4
f 85/2/4 84/2/4 86/2/4
f 85/3/4 86/3/4 87/3/4
f 87/3/4 86/3/4 88/3/4
f 83/2/4 85/2/4 89/2/4
f 85/3/4 87/3/4 90/3/4
f 89/2/4 85/2/4 90/2/4
f 87/2/4 88/2/4 91/2/4
f 90/3/4 87/3/4 91/3/4
f 88/3/4 86/3/4 92/3/4
f 91/2/4 88/2/4 92/2/4
f 90/3/4 91/3/4 93/3/4
f 83/2/4 89/2/4 93/2/4
f 91/3/4 92/3/4 93/3/4
f 89/3/4 90/3/4 93/3/4
f 92/3/4 86/3/4 94/3/4
f 93/3/4 92/3/4 94/3/4
f 86/2/4 84/2/4 94/2/4
f 83/2/4 93/2/4 95/2/4
f 93/2/4 94/2/4 95/2/4
f 94/2/4 84/2/4 96/2/4
f 95/2/4 94/2/4 96/2/4
f 99/2/5 98/2/5 97/2/5
f 100/2/5 98/2/5 99/2/5
f 103/2/5 102/2/5 101/2/5
f 104/2/5 102/2/5 103/2/5
f 107/2/5 106/2/5 105/2/5
f 108/2/5 106/2/5 107/2/5
f 109/2/6 110/2/6 111/2/6
f 111/2/6 110/2/6 112/2/6
f 113/2/6 114/2/6 115/2/6
f 115/2/6 114/2/6 116/2/6
f 117/1/6 118/1/6 119/1/6
f 119/1/6 118/1/6 120/1/6
f 121/2/6 122/2/6 123/2/6
f 123/2/6 122/2/6 124/2/6
f 121/2/6 123/2/6 125/2/6
f 124/2/6 122/2/6 126/2/6
f 121/2/6 125/2/6 127/2/6
f 125/2/6 126/2/6 127/2/6
f 126/2/6 122/2/6 128/2/6
f 127/2/6 126/2/6 128/2/6
