# MagicaVoxel @ Ephtracy

# group
o 

# material
mtllib xa-3.mtl
usemtl palette

# normals
vn -1 0 0
vn 1 0 0
vn 0 0 1
vn 0 0 -1
vn 0 -1 0
vn 0 1 0

# texcoords
vt 0.986328 0.5
vt 0.990234 0.5

# verts
v -1 -1.4 0.8
v -1 -1.4 -0.4
v -1 -1.2 0.8
v -1 -1.2 -0.4
v -0.8 -1.4 1
v -0.8 -1.4 0.8
v -0.8 -1.4 -0.4
v -0.8 -1.4 -0.6
v -0.8 -1.2 1
v -0.8 -1.2 0.8
v -0.8 -1.2 0.6
v -0.8 -1.2 -0.2
v -0.8 -1.2 -0.4
v -0.8 -1.2 -0.6
v -0.8 0 0.6
v -0.8 0 -0.2
v -0.6 -1.2 0.8
v -0.6 -1.2 0.6
v -0.6 -1.2 -0.2
v -0.6 -1.2 -0.4
v -0.6 0 0.8
v -0.6 0 0.6
v -0.6 0 -0.2
v -0.6 0 -0.4
v -0.4 0 0.6
v -0.4 0 -0.2
v -0.4 0.4 0.6
v -0.4 0.4 -0.2
v -0.2 -0.8 -0.4
v -0.2 -0.8 -0.8
v -0.2 -0.6 1
v -0.2 -0.6 0.8
v -0.2 -0.6 -0.4
v -0.2 -0.6 -0.6
v -0.2 -0.4 1.2
v -0.2 -0.4 1
v -0.2 -0.2 1
v -0.2 -0.2 0.8
v -0.2 0 -0.2
v -0.2 0 -0.4
v -0.2 0 -0.6
v -0.2 0.2 1.4
v -0.2 0.2 1.2
v -0.2 0.2 -0.2
v -0.2 0.2 -0.8
v -0.2 0.4 1.4
v -0.2 0.4 1
v 0.2 -0.8 -0.4
v 0.2 -0.8 -0.8
v 0.2 -0.6 1
v 0.2 -0.6 0.8
v 0.2 -0.6 -0.4
v 0.2 -0.6 -0.6
v 0.2 -0.4 1.2
v 0.2 -0.4 1
v 0.2 -0.2 1
v 0.2 -0.2 0.8
v 0.2 0 -0.2
v 0.2 0 -0.4
v 0.2 0 -0.6
v 0.2 0.2 1.4
v 0.2 0.2 1.2
v 0.2 0.2 -0.2
v 0.2 0.2 -0.8
v 0.2 0.4 1.4
v 0.2 0.4 1
v 0.4 0 0.6
v 0.4 0 -0.2
v 0.4 0.4 0.6
v 0.4 0.4 -0.2
v 0.6 -1.2 0.8
v 0.6 -1.2 0.6
v 0.6 -1.2 -0.2
v 0.6 -1.2 -0.4
v 0.6 0 0.8
v 0.6 0 0.6
v 0.6 0 -0.2
v 0.6 0 -0.4
v 0.8 -1.4 1
v 0.8 -1.4 0.8
v 0.8 -1.4 -0.4
v 0.8 -1.4 -0.6
v 0.8 -1.2 1
v 0.8 -1.2 0.8
v 0.8 -1.2 0.6
v 0.8 -1.2 -0.2
v 0.8 -1.2 -0.4
v 0.8 -1.2 -0.6
v 0.8 0 0.6
v 0.8 0 -0.2
v 1 -1.4 0.8
v 1 -1.4 -0.4
v 1 -1.2 0.8
v 1 -1.2 -0.4
v -0.2 0.2 1.4
v -0.2 0.4 1.4
v 0.2 0.2 1.4
v 0.2 0.4 1.4
v -0.2 -0.4 1.2
v -0.2 0.2 1.2
v 0.2 -0.4 1.2
v 0.2 0.2 1.2
v -0.8 -1.4 1
v -0.8 -1.2 1
v -0.2 -0.6 1
v -0.2 -0.4 1
v 0.2 -0.6 1
v 0.2 -0.4 1
v 0.8 -1.4 1
v 0.8 -1.2 1
v -1 -1.4 0.8
v -1 -1.2 0.8
v -0.8 -1.4 0.8
v -0.8 -1.2 0.8
v -0.6 -1.2 0.8
v -0.6 0 0.8
v -0.2 -0.6 0.8
v -0.2 -0.2 0.8
v 0.2 -0.6 0.8
v 0.2 -0.2 0.8
v 0.6 -1.2 0.8
v 0.6 0 0.8
v 0.8 -1.4 0.8
v 0.8 -1.2 0.8
v 1 -1.4 0.8
v 1 -1.2 0.8
v -0.8 -1.2 0.6
v -0.8 0 0.6
v -0.6 -1.2 0.6
v -0.6 0 0.6
v -0.4 0 0.6
v -0.4 0.4 0.6
v 0.4 0 0.6
v 0.4 0.4 0.6
v 0.6 -1.2 0.6
v 0.6 0 0.6
v 0.8 -1.2 0.6
v 0.8 0 0.6
v -0.2 -0.6 -0.6
v -0.2 0 -0.6
v 0.2 -0.6 -0.6
v 0.2 0 -0.6
v -0.2 -0.2 1
v -0.2 0.4 1
v 0.2 -0.2 1
v 0.2 0.4 1
v -0.8 -1.2 -0.2
v -0.8 0 -0.2
v -0.6 -1.2 -0.2
v -0.6 0 -0.2
v -0.4 0 -0.2
v -0.4 0.4 -0.2
v -0.2 0 -0.2
v -0.2 0.2 -0.2
v 0.2 0 -0.2
v 0.2 0.2 -0.2
v 0.4 0 -0.2
v 0.4 0.4 -0.2
v 0.6 -1.2 -0.2
v 0.6 0 -0.2
v 0.8 -1.2 -0.2
v 0.8 0 -0.2
v -1 -1.4 -0.4
v -1 -1.2 -0.4
v -0.8 -1.4 -0.4
v -0.8 -1.2 -0.4
v -0.6 -1.2 -0.4
v -0.6 0 -0.4
v -0.2 -0.8 -0.4
v -0.2 -0.6 -0.4
v -0.2 0 -0.4
v 0.2 -0.8 -0.4
v 0.2 -0.6 -0.4
v 0.2 0 -0.4
v 0.6 -1.2 -0.4
v 0.6 0 -0.4
v 0.8 -1.4 -0.4
v 0.8 -1.2 -0.4
v 1 -1.4 -0.4
v 1 -1.2 -0.4
v -0.8 -1.4 -0.6
v -0.8 -1.2 -0.6
v 0.8 -1.4 -0.6
v 0.8 -1.2 -0.6
v -0.2 -0.8 -0.8
v -0.2 0.2 -0.8
v 0.2 -0.8 -0.8
v 0.2 0.2 -0.8
v -0.8 -1.4 1
v 0.8 -1.4 1
v -1 -1.4 0.8
v -0.8 -1.4 0.8
v 0.8 -1.4 0.8
v 1 -1.4 0.8
v -1 -1.4 -0.4
v -0.8 -1.4 -0.4
v 0.8 -1.4 -0.4
v 1 -1.4 -0.4
v -0.8 -1.4 -0.6
v 0.8 -1.4 -0.6
v -0.2 -0.8 -0.4
v 0.2 -0.8 -0.4
v -0.2 -0.8 -0.8
v 0.2 -0.8 -0.8
v -0.2 -0.6 1
v 0.2 -0.6 1
v -0.2 -0.6 0.8
v 0.2 -0.6 0.8
v -0.2 -0.4 1.2
v 0.2 -0.4 1.2
v -0.2 -0.4 1
v 0.2 -0.4 1
v -0.2 0 -0.4
v 0.2 0 -0.4
v -0.2 0 -0.6
v 0.2 0 -0.6
v -0.2 0.2 1.4
v 0.2 0.2 1.4
v -0.2 0.2 1.2
v 0.2 0.2 1.2
v -0.8 -1.2 1
v 0.8 -1.2 1
v -1 -1.2 0.8
v -0.8 -1.2 0.8
v -0.6 -1.2 0.8
v 0.6 -1.2 0.8
v 0.8 -1.2 0.8
v 1 -1.2 0.8
v -0.8 -1.2 0.6
v -0.6 -1.2 0.6
v 0.6 -1.2 0.6
v 0.8 -1.2 0.6
v -0.8 -1.2 -0.2
v -0.6 -1.2 -0.2
v 0.6 -1.2 -0.2
v 0.8 -1.2 -0.2
v -1 -1.2 -0.4
v -0.8 -1.2 -0.4
v -0.6 -1.2 -0.4
v 0.6 -1.2 -0.4
v 0.8 -1.2 -0.4
v 1 -1.2 -0.4
v -0.8 -1.2 -0.6
v 0.8 -1.2 -0.6
v -0.2 -0.6 -0.4
v 0.2 -0.6 -0.4
v -0.2 -0.6 -0.6
v 0.2 -0.6 -0.6
v -0.2 -0.2 1
v 0.2 -0.2 1
v -0.2 -0.2 0.8
v 0.2 -0.2 0.8
v -0.6 0 0.8
v 0.6 0 0.8
v -0.8 0 0.6
v -0.6 0 0.6
v -0.4 0 0.6
v 0.4 0 0.6
v 0.6 0 0.6
v 0.8 0 0.6
v -0.8 0 -0.2
v -0.6 0 -0.2
v -0.4 0 -0.2
v -0.2 0 -0.2
v 0.2 0 -0.2
v 0.4 0 -0.2
v 0.6 0 -0.2
v 0.8 0 -0.2
v -0.6 0 -0.4
v -0.2 0 -0.4
v 0.2 0 -0.4
v 0.6 0 -0.4
v -0.2 0.2 -0.2
v 0.2 0.2 -0.2
v -0.2 0.2 -0.8
v 0.2 0.2 -0.8
v -0.2 0.4 1.4
v 0.2 0.4 1.4
v -0.2 0.4 1
v 0.2 0.4 1
v -0.4 0.4 0.6
v 0.4 0.4 0.6
v -0.4 0.4 -0.2
v 0.4 0.4 -0.2

# faces
f 3/2/1 2/2/1 1/2/1
f 4/2/1 2/2/1 3/2/1
f 9/2/1 6/2/1 5/2/1
f 10/2/1 6/2/1 9/2/1
f 13/2/1 8/2/1 7/2/1
f 14/2/1 8/2/1 13/2/1
f 15/1/1 12/1/1 11/1/1
f 16/1/1 12/1/1 15/1/1
f 21/1/1 18/1/1 17/1/1
f 22/1/1 18/1/1 21/1/1
f 23/1/1 20/1/1 19/1/1
f 24/1/1 20/1/1 23/1/1
f 27/1/1 26/1/1 25/1/1
f 28/1/1 26/1/1 27/1/1
f 33/1/1 30/1/1 29/1/1
f 34/1/1 30/1/1 33/1/1
f 36/1/1 32/1/1 31/1/1
f 37/1/1 32/1/1 36/1/1
f 37/1/1 36/1/1 35/1/1
f 38/1/1 32/1/1 37/1/1
f 41/1/1 30/1/1 34/1/1
f 43/1/1 37/1/1 35/1/1
f 44/1/1 40/1/1 39/1/1
f 44/1/1 41/1/1 40/1/1
f 45/1/1 30/1/1 41/1/1
f 45/1/1 41/1/1 44/1/1
f 46/1/1 43/1/1 42/1/1
f 47/1/1 37/1/1 43/1/1
f 47/1/1 43/1/1 46/1/1
f 48/1/2 49/1/2 52/1/2
f 52/1/2 49/1/2 53/1/2
f 50/1/2 51/1/2 55/1/2
f 55/1/2 51/1/2 56/1/2
f 54/1/2 55/1/2 56/1/2
f 56/1/2 51/1/2 57/1/2
f 53/1/2 49/1/2 60/1/2
f 54/1/2 56/1/2 62/1/2
f 58/1/2 59/1/2 63/1/2
f 59/1/2 60/1/2 63/1/2
f 60/1/2 49/1/2 64/1/2
f 63/1/2 60/1/2 64/1/2
f 61/1/2 62/1/2 65/1/2
f 62/1/2 56/1/2 66/1/2
f 65/1/2 62/1/2 66/1/2
f 67/1/2 68/1/2 69/1/2
f 69/1/2 68/1/2 70/1/2
f 71/1/2 72/1/2 75/1/2
f 75/1/2 72/1/2 76/1/2
f 73/1/2 74/1/2 77/1/2
f 77/1/2 74/1/2 78/1/2
f 79/2/2 80/2/2 83/2/2
f 83/2/2 80/2/2 84/2/2
f 81/2/2 82/2/2 87/2/2
f 87/2/2 82/2/2 88/2/2
f 85/1/2 86/1/2 89/1/2
f 89/1/2 86/1/2 90/1/2
f 91/2/2 92/2/2 93/2/2
f 93/2/2 92/2/2 94/2/2
f 97/1/3 96/1/3 95/1/3
f 98/1/3 96/1/3 97/1/3
f 101/1/3 100/1/3 99/1/3
f 102/1/3 100/1/3 101/1/3
f 107/1/3 106/1/3 105/1/3
f 108/1/3 106/1/3 107/1/3
f 109/2/3 104/2/3 103/2/3
f 110/2/3 104/2/3 109/2/3
f 113/2/3 112/2/3 111/2/3
f 114/2/3 112/2/3 113/2/3
f 117/1/3 116/1/3 115/1/3
f 118/1/3 116/1/3 117/1/3
f 119/1/3 117/1/3 115/1/3
f 120/1/3 116/1/3 118/1/3
f 121/1/3 119/1/3 115/1/3
f 121/1/3 120/1/3 119/1/3
f 122/1/3 116/1/3 120/1/3
f 122/1/3 120/1/3 121/1/3
f 125/2/3 124/2/3 123/2/3
f 126/2/3 124/2/3 125/2/3
f 129/1/3 128/1/3 127/1/3
f 130/1/3 128/1/3 129/1/3
f 133/1/3 132/1/3 131/1/3
f 134/1/3 132/1/3 133/1/3
f 137/1/3 136/1/3 135/1/3
f 138/1/3 136/1/3 137/1/3
f 141/1/3 140/1/3 139/1/3
f 142/1/3 140/1/3 141/1/3
f 143/1/4 144/1/4 145/1/4
f 145/1/4 144/1/4 146/1/4
f 147/1/4 148/1/4 149/1/4
f 149/1/4 148/1/4 150/1/4
f 151/1/4 152/1/4 153/1/4
f 153/1/4 152/1/4 154/1/4
f 154/1/4 152/1/4 156/1/4
f 155/1/4 156/1/4 157/1/4
f 156/1/4 152/1/4 158/1/4
f 157/1/4 156/1/4 158/1/4
f 159/1/4 160/1/4 161/1/4
f 161/1/4 160/1/4 162/1/4
f 163/2/4 164/2/4 165/2/4
f 165/2/4 164/2/4 166/2/4
f 167/1/4 168/1/4 169/1/4
f 169/1/4 168/1/4 170/1/4
f 170/1/4 168/1/4 171/1/4
f 167/1/4 169/1/4 172/1/4
f 170/1/4 171/1/4 173/1/4
f 173/1/4 171/1/4 174/1/4
f 167/1/4 172/1/4 175/1/4
f 172/1/4 173/1/4 175/1/4
f 173/1/4 174/1/4 175/1/4
f 175/1/4 174/1/4 176/1/4
f 177/2/4 178/2/4 179/2/4
f 179/2/4 178/2/4 180/2/4
f 181/2/4 182/2/4 183/2/4
f 183/2/4 182/2/4 184/2/4
f 185/1/4 186/1/4 187/1/4
f 187/1/4 186/1/4 188/1/4
f 192/2/5 190/2/5 189/2/5
f 193/2/5 190/2/5 192/2/5
f 195/2/5 192/2/5 191/2/5
f 195/2/5 194/2/5 193/2/5
f 195/2/5 193/2/5 192/2/5
f 196/2/5 194/2/5 195/2/5
f 197/2/5 194/2/5 196/2/5
f 198/2/5 194/2/5 197/2/5
f 199/2/5 197/2/5 196/2/5
f 200/2/5 197/2/5 199/2/5
f 203/1/5 202/1/5 201/1/5
f 204/1/5 202/1/5 203/1/5
f 207/1/5 206/1/5 205/1/5
f 208/1/5 206/1/5 207/1/5
f 211/1/5 210/1/5 209/1/5
f 212/1/5 210/1/5 211/1/5
f 215/1/5 214/1/5 213/1/5
f 216/1/5 214/1/5 215/1/5
f 219/1/5 218/1/5 217/1/5
f 220/1/5 218/1/5 219/1/5
f 221/2/6 222/2/6 224/2/6
f 224/2/6 222/2/6 225/2/6
f 225/2/6 222/2/6 226/2/6
f 226/2/6 222/2/6 227/2/6
f 223/2/6 224/2/6 229/2/6
f 224/2/6 225/2/6 229/2/6
f 229/2/6 225/2/6 230/2/6
f 227/2/6 228/2/6 231/2/6
f 226/2/6 227/2/6 231/2/6
f 231/2/6 228/2/6 232/2/6
f 223/2/6 229/2/6 233/2/6
f 232/2/6 228/2/6 236/2/6
f 233/2/6 234/2/6 237/2/6
f 223/2/6 233/2/6 237/2/6
f 237/2/6 234/2/6 238/2/6
f 238/2/6 234/2/6 239/2/6
f 235/2/6 236/2/6 240/2/6
f 236/2/6 228/2/6 241/2/6
f 240/2/6 236/2/6 241/2/6
f 241/2/6 228/2/6 242/2/6
f 238/2/6 239/2/6 243/2/6
f 239/2/6 240/2/6 243/2/6
f 240/2/6 241/2/6 243/2/6
f 243/2/6 241/2/6 244/2/6
f 245/1/6 246/1/6 247/1/6
f 247/1/6 246/1/6 248/1/6
f 249/1/6 250/1/6 251/1/6
f 251/1/6 250/1/6 252/1/6
f 253/1/6 254/1/6 256/1/6
f 256/1/6 254/1/6 257/1/6
f 257/1/6 254/1/6 258/1/6
f 258/1/6 254/1/6 259/1/6
f 255/1/6 256/1/6 261/1/6
f 256/1/6 257/1/6 261/1/6
f 261/1/6 257/1/6 262/1/6
f 262/1/6 257/1/6 263/1/6
f 259/1/6 260/1/6 266/1/6
f 258/1/6 259/1/6 266/1/6
f 266/1/6 260/1/6 267/1/6
f 267/1/6 260/1/6 268/1/6
f 263/1/6 264/1/6 269/1/6
f 262/1/6 263/1/6 269/1/6
f 269/1/6 264/1/6 270/1/6
f 266/1/6 267/1/6 271/1/6
f 265/1/6 266/1/6 271/1/6
f 271/1/6 267/1/6 272/1/6
f 273/1/6 274/1/6 275/1/6
f 275/1/6 274/1/6 276/1/6
f 277/1/6 278/1/6 279/1/6
f 279/1/6 278/1/6 280/1/6
f 281/1/6 282/1/6 283/1/6
f 283/1/6 282/1/6 284/1/6
