# MagicaVoxel @ Ephtracy

# group
o 

# material
mtllib Discanço.mtl
usemtl palette

# normals
vn -1 0 0
vn 1 0 0
vn 0 0 1
vn 0 0 -1
vn 0 -1 0
vn 0 1 0

# texcoords
vt 0.365234 0.5
vt 0.373047 0.5
vt 0.537109 0.5
vt 0.751953 0.5
vt 0.779297 0.5
vt 0.978516 0.5
vt 0.982422 0.5
vt 0.986328 0.5

# verts
v -1.7 0.3 -1
v -1.7 0.3 -1.8
v -1.7 0.5 -1
v -1.7 0.5 -1.8
v -1.7 1.4 0.1
v -1.7 1.4 -5.96046e-08
v -1.7 1.5 0.1
v -1.7 1.5 -5.96046e-08
v -1.6 0.3 -0.9
v -1.6 0.3 -1
v -1.6 0.3 -1.8
v -1.6 0.3 -1.9
v -1.6 0.5 -0.9
v -1.6 0.5 -1
v -1.6 0.5 -1.8
v -1.6 0.5 -1.9
v -1.5 0 -1.1
v -1.5 0 -1.7
v -1.5 0.3 -1.1
v -1.5 0.3 -1.7
v -1.5 1.5 0.1
v -1.5 1.5 -5.96046e-08
v -1.5 1.7 0.1
v -1.5 1.7 -5.96046e-08
v -1.2 0 0.1
v -1.2 0 -5.96046e-08
v -1.2 1.6 0.1
v -1.2 1.6 -5.96046e-08
v -0.6 0 0.4
v -0.6 0 0.2
v -0.6 0.2 0.4
v -0.6 0.2 0.2
v -0.4 0 0.2
v -0.4 0 0.1
v -0.4 0.2 0.2
v -0.4 0.2 0.1
v -0.3 0 -0.5
v -0.3 0 -0.6
v -0.3 0.2 -0.5
v -0.3 0.2 -0.6
v -0.3 0.6 0.5
v -0.3 0.6 -0.4
v -0.3 0.7 0.4
v -0.3 0.7 -0.3
v -0.3 1.2 0.4
v -0.3 1.2 -0.3
v -0.3 1.3 0.5
v -0.3 1.3 0.2
v -0.3 1.3 -0.1
v -0.3 1.3 -0.4
v -0.3 1.4 0.2
v -0.3 1.4 0.1
v -0.3 1.4 -5.96046e-08
v -0.3 1.4 -0.1
v -0.3 1.6 0.1
v -0.3 1.6 -5.96046e-08
v -0.2 0 0.1
v -0.2 0 -5.96046e-08
v -0.2 0 -0.3
v -0.2 0 -0.5
v -0.2 0 -0.6
v -0.2 0 -0.7
v -0.2 0.2 0.1
v -0.2 0.2 -5.96046e-08
v -0.2 0.2 -0.3
v -0.2 0.2 -0.5
v -0.2 0.2 -0.6
v -0.2 0.2 -0.7
v -0.0999999 0 -0.1
v -0.0999999 0 -0.3
v -0.0999999 0.2 -0.1
v -0.0999999 0.2 -0.3
v 1.19209e-07 0 -5.96046e-08
v 1.19209e-07 0 -0.1
v 1.19209e-07 0.2 -5.96046e-08
v 1.19209e-07 0.2 -0.1
v 0.1 0 0.4
v 0.1 0 0.2
v 0.1 0.2 0.4
v 0.1 0.2 0.2
v 0.2 0 0.5
v 0.2 0 0.4
v 0.2 0.2 0.5
v 0.2 0.2 0.4
v 0.3 0 0.7
v 0.3 0 0.5
v 0.3 0.2 0.7
v 0.3 0.2 0.5
v 0.4 0 -0.2
v 0.4 0 -0.3
v 0.4 0.2 -0.2
v 0.4 0.2 -0.3
v 0.5 1.2 0.4
v 0.5 1.2 0.2
v 0.5 1.2 0.1
v 0.5 1.2 -0.3
v 0.5 1.3 0.4
v 0.5 1.3 0.2
v 0.5 1.3 -0.1
v 0.5 1.3 -0.3
v 0.5 1.4 0.2
v 0.5 1.4 0.1
v 0.5 1.4 -5.96046e-08
v 0.5 1.4 -0.1
v 0.5 1.6 0.1
v 0.5 1.6 -5.96046e-08
v 0.6 0 -0.3
v 0.6 0 -0.4
v 0.6 0.2 -0.3
v 0.6 0.2 -0.4
v 1.4 0 0.1
v 1.4 0 -5.96046e-08
v 1.4 1.6 0.1
v 1.4 1.6 -5.96046e-08
v -1.4 1.4 0.1
v -1.4 1.4 -5.96046e-08
v -1.4 1.6 0.1
v -1.4 1.6 -5.96046e-08
v -1.1 0 0.1
v -1.1 0 -5.96046e-08
v -1.1 1.6 0.1
v -1.1 1.6 -5.96046e-08
v -1 0 -1.1
v -1 0 -1.7
v -1 0.3 -1.1
v -1 0.3 -1.7
v -0.9 0.3 -0.9
v -0.9 0.3 -1
v -0.9 0.3 -1.8
v -0.9 0.3 -1.9
v -0.9 0.5 -0.9
v -0.9 0.5 -1
v -0.9 0.5 -1.8
v -0.9 0.5 -1.9
v -0.8 0.3 -1
v -0.8 0.3 -1.8
v -0.8 0.5 -1
v -0.8 0.5 -1.8
v -0.4 0 0.4
v -0.4 0 0.3
v -0.4 0.2 0.4
v -0.4 0.2 0.3
v -0.2 0 0.3
v -0.2 0 0.2
v -0.2 0.2 0.3
v -0.2 0.2 0.2
v -0.2 1.2 0.4
v -0.2 1.2 0.2
v -0.2 1.2 -0.2
v -0.2 1.2 -0.3
v -0.2 1.3 0.4
v -0.2 1.3 0.2
v -0.2 1.3 -0.1
v -0.2 1.3 -0.3
v -0.2 1.4 0.2
v -0.2 1.4 0.1
v -0.2 1.4 -5.96046e-08
v -0.2 1.4 -0.1
v -0.2 1.6 0.1
v -0.2 1.6 -5.96046e-08
v -0.0999999 0 -0.6
v -0.0999999 0 -0.7
v -0.0999999 0.2 -0.6
v -0.0999999 0.2 -0.7
v 1.19209e-07 0 -0.4
v 1.19209e-07 0 -0.6
v 1.19209e-07 0.2 -0.4
v 1.19209e-07 0.2 -0.6
v 0.1 0 -0.2
v 0.1 0 -0.4
v 0.1 0.2 -0.2
v 0.1 0.2 -0.4
v 0.3 0 0.2
v 0.3 0 -5.96046e-08
v 0.3 0.2 0.2
v 0.3 0.2 -5.96046e-08
v 0.4 0 0.7
v 0.4 0 0.6
v 0.4 0 0.4
v 0.4 0 0.2
v 0.4 0.2 0.7
v 0.4 0.2 0.6
v 0.4 0.2 0.4
v 0.4 0.2 0.2
v 0.5 0 0.6
v 0.5 0 0.4
v 0.5 0 -5.96046e-08
v 0.5 0 -0.1
v 0.5 0.2 0.6
v 0.5 0.2 0.4
v 0.5 0.2 -5.96046e-08
v 0.5 0.2 -0.1
v 0.6 0.6 0.5
v 0.6 0.6 -0.4
v 0.6 0.7 0.4
v 0.6 0.7 -0.3
v 0.6 1.2 0.4
v 0.6 1.2 -0.3
v 0.6 1.3 0.5
v 0.6 1.3 0.2
v 0.6 1.3 -0.1
v 0.6 1.3 -0.4
v 0.6 1.4 0.2
v 0.6 1.4 0.1
v 0.6 1.4 -5.96046e-08
v 0.6 1.4 -0.1
v 0.6 1.6 0.1
v 0.6 1.6 -5.96046e-08
v 0.7 0 -0.1
v 0.7 0 -0.2
v 0.7 0.2 -0.1
v 0.7 0.2 -0.2
v 0.8 0 -0.2
v 0.8 0 -0.4
v 0.8 0.2 -0.2
v 0.8 0.2 -0.4
v 1.5 0 0.1
v 1.5 0 -5.96046e-08
v 1.5 1.7 0.1
v 1.5 1.7 -5.96046e-08
v 0.3 0 0.7
v 0.3 0.2 0.7
v 0.4 0 0.7
v 0.4 0.2 0.7
v 0.4 0 0.6
v 0.4 0.2 0.6
v 0.5 0 0.6
v 0.5 0.2 0.6
v -0.3 0.6 0.5
v -0.3 1.3 0.5
v -0.2 0.7 0.5
v -0.2 1.2 0.5
v 0.2 0 0.5
v 0.2 0.2 0.5
v 0.3 0 0.5
v 0.3 0.2 0.5
v 0.5 0.7 0.5
v 0.5 1.2 0.5
v 0.6 0.6 0.5
v 0.6 1.3 0.5
v -0.6 0 0.4
v -0.6 0.2 0.4
v -0.4 0 0.4
v -0.4 0.2 0.4
v 0.1 0 0.4
v 0.1 0.2 0.4
v 0.2 0 0.4
v 0.2 0.2 0.4
v -0.4 0 0.3
v -0.4 0.2 0.3
v -0.2 0 0.3
v -0.2 0.2 0.3
v -0.3 1.3 0.2
v -0.3 1.4 0.2
v -0.2 0 0.2
v -0.2 0.2 0.2
v -0.2 1.3 0.2
v -0.2 1.4 0.2
v 0.1 0 0.2
v 0.1 0.2 0.2
v 0.5 1.3 0.2
v 0.5 1.4 0.2
v 0.6 1.3 0.2
v 0.6 1.4 0.2
v -1.7 1.4 0.1
v -1.7 1.5 0.1
v -1.5 1.5 0.1
v -1.5 1.7 0.1
v -1.4 1.4 0.1
v -1.4 1.6 0.1
v -1.2 0 0.1
v -1.2 1.6 0.1
v -1.1 0 0.1
v -1.1 1.6 0.1
v -0.3 1.4 0.1
v -0.3 1.6 0.1
v -0.2 1.4 0.1
v -0.2 1.6 0.1
v 0.5 1.4 0.1
v 0.5 1.6 0.1
v 0.6 1.4 0.1
v 0.6 1.6 0.1
v 1.4 0 0.1
v 1.4 1.6 0.1
v 1.5 0 0.1
v 1.5 1.7 0.1
v 0.3 0 -5.96046e-08
v 0.3 0.2 -5.96046e-08
v 0.5 0 -5.96046e-08
v 0.5 0.2 -5.96046e-08
v -0.0999999 0 -0.1
v -0.0999999 0.2 -0.1
v 1.19209e-07 0 -0.1
v 1.19209e-07 0.2 -0.1
v 0.5 0 -0.1
v 0.5 0.2 -0.1
v 0.7 0 -0.1
v 0.7 0.2 -0.1
v 0.7 0 -0.2
v 0.7 0.2 -0.2
v 0.8 0 -0.2
v 0.8 0.2 -0.2
v -0.2 0 -0.3
v -0.2 0.2 -0.3
v -0.2 1.2 -0.3
v -0.2 1.3 -0.3
v -0.0999999 0 -0.3
v -0.0999999 0.2 -0.3
v -0.0999999 1.2 -0.3
v 0.3 1.2 -0.3
v 0.4 1.2 -0.3
v 0.5 1.2 -0.3
v 0.5 1.3 -0.3
v -0.3 0 -0.5
v -0.3 0.2 -0.5
v -0.2 0 -0.5
v -0.2 0.2 -0.5
v -1.6 0.3 -0.9
v -1.6 0.5 -0.9
v -0.9 0.3 -0.9
v -0.9 0.5 -0.9
v -1.7 0.3 -1
v -1.7 0.5 -1
v -1.6 0.3 -1
v -1.6 0.5 -1
v -0.9 0.3 -1
v -0.9 0.5 -1
v -0.8 0.3 -1
v -0.8 0.5 -1
v -1.5 0 -1.1
v -1.5 0.3 -1.1
v -1 0 -1.1
v -1 0.3 -1.1
v -0.2 1.2 0.4
v -0.2 1.3 0.4
v -0.0999999 1.2 0.4
v 0.1 1.2 0.4
v 0.2 1.2 0.4
v 0.4 0 0.4
v 0.4 0.2 0.4
v 0.5 0 0.4
v 0.5 0.2 0.4
v 0.5 1.2 0.4
v 0.5 1.3 0.4
v -0.6 0 0.2
v -0.6 0.2 0.2
v -0.4 0 0.2
v -0.4 0.2 0.2
v 0.3 0 0.2
v 0.3 0.2 0.2
v 0.4 0 0.2
v 0.4 0.2 0.2
v -0.4 0 0.1
v -0.4 0.2 0.1
v -0.2 0 0.1
v -0.2 0.2 0.1
v -1.7 1.4 -5.96046e-08
v -1.7 1.5 -5.96046e-08
v -1.5 1.5 -5.96046e-08
v -1.5 1.7 -5.96046e-08
v -1.4 1.4 -5.96046e-08
v -1.4 1.6 -5.96046e-08
v -1.2 0 -5.96046e-08
v -1.2 1.6 -5.96046e-08
v -1.1 0 -5.96046e-08
v -1.1 1.6 -5.96046e-08
v -0.3 1.4 -5.96046e-08
v -0.3 1.6 -5.96046e-08
v -0.2 0 -5.96046e-08
v -0.2 0.2 -5.96046e-08
v -0.2 1.4 -5.96046e-08
v -0.2 1.6 -5.96046e-08
v 1.19209e-07 0 -5.96046e-08
v 1.19209e-07 0.2 -5.96046e-08
v 0.5 1.4 -5.96046e-08
v 0.5 1.6 -5.96046e-08
v 0.6 1.4 -5.96046e-08
v 0.6 1.6 -5.96046e-08
v 1.4 0 -5.96046e-08
v 1.4 1.6 -5.96046e-08
v 1.5 0 -5.96046e-08
v 1.5 1.7 -5.96046e-08
v -0.3 1.3 -0.1
v -0.3 1.4 -0.1
v -0.2 1.3 -0.1
v -0.2 1.4 -0.1
v 0.5 1.3 -0.1
v 0.5 1.4 -0.1
v 0.6 1.3 -0.1
v 0.6 1.4 -0.1
v 0.1 0 -0.2
v 0.1 0.2 -0.2
v 0.4 0 -0.2
v 0.4 0.2 -0.2
v 0.4 0 -0.3
v 0.4 0.2 -0.3
v 0.6 0 -0.3
v 0.6 0.2 -0.3
v -0.3 0.6 -0.4
v -0.3 1.3 -0.4
v -0.2 0.7 -0.4
v -0.2 1.2 -0.4
v 1.19209e-07 0 -0.4
v 1.19209e-07 0.2 -0.4
v 0.1 0 -0.4
v 0.1 0.2 -0.4
v 0.5 0.7 -0.4
v 0.5 1.2 -0.4
v 0.6 0 -0.4
v 0.6 0.2 -0.4
v 0.6 0.6 -0.4
v 0.6 1.3 -0.4
v 0.8 0 -0.4
v 0.8 0.2 -0.4
v -0.3 0 -0.6
v -0.3 0.2 -0.6
v -0.2 0 -0.6
v -0.2 0.2 -0.6
v -0.0999999 0 -0.6
v -0.0999999 0.2 -0.6
v 1.19209e-07 0 -0.6
v 1.19209e-07 0.2 -0.6
v -0.2 0 -0.7
v -0.2 0.2 -0.7
v -0.0999999 0 -0.7
v -0.0999999 0.2 -0.7
v -1.5 0 -1.7
v -1.5 0.3 -1.7
v -1 0 -1.7
v -1 0.3 -1.7
v -1.7 0.3 -1.8
v -1.7 0.5 -1.8
v -1.6 0.3 -1.8
v -1.6 0.5 -1.8
v -0.9 0.3 -1.8
v -0.9 0.5 -1.8
v -0.8 0.3 -1.8
v -0.8 0.5 -1.8
v -1.6 0.3 -1.9
v -1.6 0.5 -1.9
v -0.9 0.3 -1.9
v -0.9 0.5 -1.9
v 0.3 0 0.7
v 0.4 0 0.7
v 0.4 0 0.6
v 0.5 0 0.6
v 0.2 0 0.5
v 0.3 0 0.5
v -0.6 0 0.4
v -0.4 0 0.4
v 0.1 0 0.4
v 0.2 0 0.4
v 0.4 0 0.4
v 0.5 0 0.4
v -0.4 0 0.3
v -0.2 0 0.3
v -0.6 0 0.2
v -0.4 0 0.2
v -0.2 0 0.2
v 0.1 0 0.2
v 0.3 0 0.2
v 0.4 0 0.2
v -1.2 0 0.1
v -1.1 0 0.1
v -0.4 0 0.1
v -0.2 0 0.1
v 1.4 0 0.1
v 1.5 0 0.1
v -1.2 0 -5.96046e-08
v -1.1 0 -5.96046e-08
v -0.2 0 -5.96046e-08
v 1.19209e-07 0 -5.96046e-08
v 0.3 0 -5.96046e-08
v 0.5 0 -5.96046e-08
v 1.4 0 -5.96046e-08
v 1.5 0 -5.96046e-08
v -0.0999999 0 -0.1
v 1.19209e-07 0 -0.1
v 0.5 0 -0.1
v 0.7 0 -0.1
v 0.1 0 -0.2
v 0.4 0 -0.2
v 0.7 0 -0.2
v 0.8 0 -0.2
v -0.2 0 -0.3
v -0.0999999 0 -0.3
v 0.4 0 -0.3
v 0.6 0 -0.3
v 1.19209e-07 0 -0.4
v 0.1 0 -0.4
v 0.6 0 -0.4
v 0.8 0 -0.4
v -0.3 0 -0.5
v -0.2 0 -0.5
v -0.3 0 -0.6
v -0.2 0 -0.6
v -0.0999999 0 -0.6
v 1.19209e-07 0 -0.6
v -0.2 0 -0.7
v -0.0999999 0 -0.7
v -1.5 0 -1.1
v -1 0 -1.1
v -1.5 0 -1.7
v -1 0 -1.7
v -1.6 0.3 -0.9
v -0.9 0.3 -0.9
v -1.7 0.3 -1
v -1.6 0.3 -1
v -0.9 0.3 -1
v -0.8 0.3 -1
v -1.5 0.3 -1.1
v -1 0.3 -1.1
v -1.5 0.3 -1.7
v -1 0.3 -1.7
v -1.7 0.3 -1.8
v -1.6 0.3 -1.8
v -0.9 0.3 -1.8
v -0.8 0.3 -1.8
v -1.6 0.3 -1.9
v -0.9 0.3 -1.9
v -0.3 0.6 0.5
v 0.6 0.6 0.5
v -0.2 0.6 0.4
v 0.5 0.6 0.4
v -0.2 0.6 -0.3
v 0.5 0.6 -0.3
v -0.3 0.6 -0.4
v 0.6 0.6 -0.4
v -1.7 1.4 0.1
v -1.4 1.4 0.1
v -1.7 1.4 -5.96046e-08
v -1.4 1.4 -5.96046e-08
v -1.4 1.6 0.1
v -1.2 1.6 0.1
v -1.1 1.6 0.1
v -0.3 1.6 0.1
v -0.2 1.6 0.1
v 0.5 1.6 0.1
v 0.6 1.6 0.1
v 1.4 1.6 0.1
v -1.4 1.6 -5.96046e-08
v -1.2 1.6 -5.96046e-08
v -1.1 1.6 -5.96046e-08
v -0.3 1.6 -5.96046e-08
v -0.2 1.6 -5.96046e-08
v 0.5 1.6 -5.96046e-08
v 0.6 1.6 -5.96046e-08
v 1.4 1.6 -5.96046e-08
v 0.3 0.2 0.7
v 0.4 0.2 0.7
v 0.4 0.2 0.6
v 0.5 0.2 0.6
v 0.2 0.2 0.5
v 0.3 0.2 0.5
v -0.6 0.2 0.4
v -0.4 0.2 0.4
v 0.1 0.2 0.4
v 0.2 0.2 0.4
v 0.4 0.2 0.4
v 0.5 0.2 0.4
v -0.4 0.2 0.3
v -0.2 0.2 0.3
v -0.6 0.2 0.2
v -0.4 0.2 0.2
v -0.2 0.2 0.2
v 0.1 0.2 0.2
v 0.3 0.2 0.2
v 0.4 0.2 0.2
v -0.4 0.2 0.1
v -0.2 0.2 0.1
v -0.2 0.2 -5.96046e-08
v 1.19209e-07 0.2 -5.96046e-08
v 0.3 0.2 -5.96046e-08
v 0.5 0.2 -5.96046e-08
v -0.0999999 0.2 -0.1
v 1.19209e-07 0.2 -0.1
v 0.5 0.2 -0.1
v 0.7 0.2 -0.1
v 0.1 0.2 -0.2
v 0.4 0.2 -0.2
v 0.7 0.2 -0.2
v 0.8 0.2 -0.2
v -0.2 0.2 -0.3
v -0.0999999 0.2 -0.3
v 0.4 0.2 -0.3
v 0.6 0.2 -0.3
v 1.19209e-07 0.2 -0.4
v 0.1 0.2 -0.4
v 0.6 0.2 -0.4
v 0.8 0.2 -0.4
v -0.3 0.2 -0.5
v -0.2 0.2 -0.5
v -0.3 0.2 -0.6
v -0.2 0.2 -0.6
v -0.0999999 0.2 -0.6
v 1.19209e-07 0.2 -0.6
v -0.2 0.2 -0.7
v -0.0999999 0.2 -0.7
v -1.6 0.5 -0.9
v -0.9 0.5 -0.9
v -1.7 0.5 -1
v -1.6 0.5 -1
v -0.9 0.5 -1
v -0.8 0.5 -1
v -1.5 0.5 -1.1
v -1 0.5 -1.1
v -1.5 0.5 -1.7
v -1 0.5 -1.7
v -1.7 0.5 -1.8
v -1.6 0.5 -1.8
v -0.9 0.5 -1.8
v -0.8 0.5 -1.8
v -1.6 0.5 -1.9
v -0.9 0.5 -1.9
v -0.2 1.2 0.4
v -0.0999999 1.2 0.4
v 0.1 1.2 0.4
v 0.2 1.2 0.4
v 0.5 1.2 0.4
v -0.0999999 1.2 0.3
v 1.19209e-07 1.2 0.3
v 0.1 1.2 0.3
v 0.2 1.2 0.3
v 0.3 1.2 0.3
v 0.4 1.2 0.3
v -0.2 1.2 0.2
v 1.19209e-07 1.2 0.2
v 0.4 1.2 0.2
v 0.5 1.2 0.2
v 0.3 1.2 0.1
v 0.5 1.2 0.1
v 1.19209e-07 1.2 -5.96046e-08
v 0.1 1.2 -5.96046e-08
v -0.0999999 1.2 -0.1
v 1.19209e-07 1.2 -0.1
v 0.1 1.2 -0.1
v 0.3 1.2 -0.1
v 0.4 1.2 -0.1
v -0.2 1.2 -0.2
v -0.0999999 1.2 -0.2
v 1.19209e-07 1.2 -0.2
v -0.2 1.2 -0.3
v -0.0999999 1.2 -0.3
v 0.3 1.2 -0.3
v 0.4 1.2 -0.3
v 0.5 1.2 -0.3
v -0.3 1.3 0.5
v 0.6 1.3 0.5
v -0.2 1.3 0.4
v 0.5 1.3 0.4
v -0.3 1.3 0.2
v -0.2 1.3 0.2
v 0.5 1.3 0.2
v 0.6 1.3 0.2
v -0.3 1.3 -0.1
v -0.2 1.3 -0.1
v 0.5 1.3 -0.1
v 0.6 1.3 -0.1
v -0.2 1.3 -0.3
v 0.5 1.3 -0.3
v -0.3 1.3 -0.4
v 0.6 1.3 -0.4
v -0.3 1.4 0.2
v -0.2 1.4 0.2
v 0.5 1.4 0.2
v 0.6 1.4 0.2
v -0.3 1.4 0.1
v -0.2 1.4 0.1
v 0.5 1.4 0.1
v 0.6 1.4 0.1
v -0.3 1.4 -5.96046e-08
v -0.2 1.4 -5.96046e-08
v 0.5 1.4 -5.96046e-08
v 0.6 1.4 -5.96046e-08
v -0.3 1.4 -0.1
v -0.2 1.4 -0.1
v 0.5 1.4 -0.1
v 0.6 1.4 -0.1
v -1.7 1.5 0.1
v -1.5 1.5 0.1
v -1.7 1.5 -5.96046e-08
v -1.5 1.5 -5.96046e-08
v -1.5 1.7 0.1
v 1.5 1.7 0.1
v -1.5 1.7 -5.96046e-08
v 1.5 1.7 -5.96046e-08

# faces
f 3/2/1 2/2/1 1/2/1
f 4/2/1 2/2/1 3/2/1
f 7/7/1 6/7/1 5/7/1
f 8/7/1 6/7/1 7/7/1
f 13/2/1 10/2/1 9/2/1
f 14/2/1 10/2/1 13/2/1
f 15/2/1 12/2/1 11/2/1
f 16/2/1 12/2/1 15/2/1
f 19/2/1 18/2/1 17/2/1
f 20/2/1 18/2/1 19/2/1
f 23/7/1 22/7/1 21/7/1
f 24/7/1 22/7/1 23/7/1
f 27/7/1 26/7/1 25/7/1
f 28/7/1 26/7/1 27/7/1
f 31/2/1 30/2/1 29/2/1
f 32/2/1 30/2/1 31/2/1
f 35/2/1 34/2/1 33/2/1
f 36/2/1 34/2/1 35/2/1
f 39/2/1 38/2/1 37/2/1
f 40/2/1 38/2/1 39/2/1
f 43/8/1 42/8/1 41/8/1
f 44/8/1 42/8/1 43/8/1
f 45/8/1 43/8/1 41/8/1
f 45/6/1 44/6/1 43/6/1
f 46/8/1 42/8/1 44/8/1
f 46/6/1 44/6/1 45/6/1
f 47/8/1 45/8/1 41/8/1
f 47/8/1 46/8/1 45/8/1
f 48/8/1 46/8/1 47/8/1
f 49/8/1 46/8/1 48/8/1
f 50/8/1 42/8/1 46/8/1
f 50/8/1 46/8/1 49/8/1
f 51/7/1 49/7/1 48/7/1
f 52/7/1 49/7/1 51/7/1
f 53/7/1 49/7/1 52/7/1
f 54/7/1 49/7/1 53/7/1
f 55/7/1 53/7/1 52/7/1
f 56/7/1 53/7/1 55/7/1
f 63/2/1 58/2/1 57/2/1
f 64/2/1 58/2/1 63/2/1
f 65/2/1 60/2/1 59/2/1
f 66/2/1 60/2/1 65/2/1
f 67/2/1 62/2/1 61/2/1
f 68/2/1 62/2/1 67/2/1
f 71/2/1 70/2/1 69/2/1
f 72/2/1 70/2/1 71/2/1
f 75/2/1 74/2/1 73/2/1
f 76/2/1 74/2/1 75/2/1
f 79/2/1 78/2/1 77/2/1
f 80/2/1 78/2/1 79/2/1
f 83/2/1 82/2/1 81/2/1
f 84/2/1 82/2/1 83/2/1
f 87/2/1 86/2/1 85/2/1
f 88/2/1 86/2/1 87/2/1
f 91/2/1 90/2/1 89/2/1
f 92/2/1 90/2/1 91/2/1
f 97/8/1 94/8/1 93/8/1
f 97/8/1 96/8/1 95/8/1
f 97/8/1 95/8/1 94/8/1
f 98/8/1 96/8/1 97/8/1
f 99/8/1 96/8/1 98/8/1
f 100/8/1 96/8/1 99/8/1
f 101/7/1 99/7/1 98/7/1
f 102/7/1 99/7/1 101/7/1
f 103/7/1 99/7/1 102/7/1
f 104/7/1 99/7/1 103/7/1
f 105/7/1 103/7/1 102/7/1
f 106/7/1 103/7/1 105/7/1
f 109/2/1 108/2/1 107/2/1
f 110/2/1 108/2/1 109/2/1
f 113/7/1 112/7/1 111/7/1
f 114/7/1 112/7/1 113/7/1
f 115/7/2 116/7/2 117/7/2
f 117/7/2 116/7/2 118/7/2
f 119/7/2 120/7/2 121/7/2
f 121/7/2 120/7/2 122/7/2
f 123/2/2 124/2/2 125/2/2
f 125/2/2 124/2/2 126/2/2
f 127/2/2 128/2/2 131/2/2
f 131/2/2 128/2/2 132/2/2
f 129/2/2 130/2/2 133/2/2
f 133/2/2 130/2/2 134/2/2
f 135/2/2 136/2/2 137/2/2
f 137/2/2 136/2/2 138/2/2
f 139/2/2 140/2/2 141/2/2
f 141/2/2 140/2/2 142/2/2
f 143/2/2 144/2/2 145/2/2
f 145/2/2 144/2/2 146/2/2
f 147/8/2 148/8/2 151/8/2
f 149/8/2 150/8/2 151/8/2
f 148/8/2 149/8/2 151/8/2
f 151/8/2 150/8/2 152/8/2
f 152/8/2 150/8/2 153/8/2
f 153/8/2 150/8/2 154/8/2
f 152/7/2 153/7/2 155/7/2
f 155/7/2 153/7/2 156/7/2
f 156/7/2 153/7/2 157/7/2
f 157/7/2 153/7/2 158/7/2
f 156/7/2 157/7/2 159/7/2
f 159/7/2 157/7/2 160/7/2
f 161/2/2 162/2/2 163/2/2
f 163/2/2 162/2/2 164/2/2
f 165/2/2 166/2/2 167/2/2
f 167/2/2 166/2/2 168/2/2
f 169/2/2 170/2/2 171/2/2
f 171/2/2 170/2/2 172/2/2
f 173/2/2 174/2/2 175/2/2
f 175/2/2 174/2/2 176/2/2
f 177/2/2 178/2/2 181/2/2
f 181/2/2 178/2/2 182/2/2
f 179/2/2 180/2/2 183/2/2
f 183/2/2 180/2/2 184/2/2
f 185/2/2 186/2/2 189/2/2
f 189/2/2 186/2/2 190/2/2
f 187/2/2 188/2/2 191/2/2
f 191/2/2 188/2/2 192/2/2
f 193/8/2 194/8/2 195/8/2
f 195/8/2 194/8/2 196/8/2
f 193/8/2 195/8/2 197/8/2
f 195/6/2 196/6/2 197/6/2
f 196/8/2 194/8/2 198/8/2
f 197/6/2 196/6/2 198/6/2
f 193/8/2 197/8/2 199/8/2
f 197/8/2 198/8/2 199/8/2
f 199/8/2 198/8/2 200/8/2
f 200/8/2 198/8/2 201/8/2
f 198/8/2 194/8/2 202/8/2
f 201/8/2 198/8/2 202/8/2
f 200/7/2 201/7/2 203/7/2
f 203/7/2 201/7/2 204/7/2
f 204/7/2 201/7/2 205/7/2
f 205/7/2 201/7/2 206/7/2
f 204/7/2 205/7/2 207/7/2
f 207/7/2 205/7/2 208/7/2
f 209/2/2 210/2/2 211/2/2
f 211/2/2 210/2/2 212/2/2
f 213/2/2 214/2/2 215/2/2
f 215/2/2 214/2/2 216/2/2
f 217/7/2 218/7/2 219/7/2
f 219/7/2 218/7/2 220/7/2
f 223/2/3 222/2/3 221/2/3
f 224/2/3 222/2/3 223/2/3
f 227/2/3 226/2/3 225/2/3
f 228/2/3 226/2/3 227/2/3
f 231/8/3 230/8/3 229/8/3
f 232/8/3 230/8/3 231/8/3
f 235/2/3 234/2/3 233/2/3
f 236/2/3 234/2/3 235/2/3
f 237/8/3 231/8/3 229/8/3
f 237/6/3 232/6/3 231/6/3
f 238/8/3 230/8/3 232/8/3
f 238/6/3 232/6/3 237/6/3
f 239/8/3 237/8/3 229/8/3
f 239/8/3 238/8/3 237/8/3
f 240/8/3 230/8/3 238/8/3
f 240/8/3 238/8/3 239/8/3
f 243/2/3 242/2/3 241/2/3
f 244/2/3 242/2/3 243/2/3
f 247/2/3 246/2/3 245/2/3
f 248/2/3 246/2/3 247/2/3
f 251/2/3 250/2/3 249/2/3
f 252/2/3 250/2/3 251/2/3
f 257/7/3 254/7/3 253/7/3
f 258/7/3 254/7/3 257/7/3
f 259/2/3 256/2/3 255/2/3
f 260/2/3 256/2/3 259/2/3
f 263/7/3 262/7/3 261/7/3
f 264/7/3 262/7/3 263/7/3
f 267/7/3 266/7/3 265/7/3
f 269/7/3 267/7/3 265/7/3
f 269/7/3 268/7/3 267/7/3
f 270/7/3 268/7/3 269/7/3
f 272/7/3 268/7/3 270/7/3
f 273/7/3 272/7/3 271/7/3
f 274/7/3 268/7/3 272/7/3
f 274/7/3 272/7/3 273/7/3
f 276/7/3 268/7/3 274/7/3
f 277/7/3 276/7/3 275/7/3
f 278/7/3 268/7/3 276/7/3
f 278/7/3 276/7/3 277/7/3
f 280/7/3 268/7/3 278/7/3
f 281/7/3 280/7/3 279/7/3
f 282/7/3 268/7/3 280/7/3
f 282/7/3 280/7/3 281/7/3
f 284/7/3 268/7/3 282/7/3
f 285/7/3 284/7/3 283/7/3
f 286/7/3 268/7/3 284/7/3
f 286/7/3 284/7/3 285/7/3
f 289/2/3 288/2/3 287/2/3
f 290/2/3 288/2/3 289/2/3
f 293/2/3 292/2/3 291/2/3
f 294/2/3 292/2/3 293/2/3
f 297/2/3 296/2/3 295/2/3
f 298/2/3 296/2/3 297/2/3
f 301/2/3 300/2/3 299/2/3
f 302/2/3 300/2/3 301/2/3
f 307/2/3 304/2/3 303/2/3
f 308/2/3 304/2/3 307/2/3
f 309/8/3 306/8/3 305/8/3
f 310/8/3 306/8/3 309/8/3
f 311/8/3 306/8/3 310/8/3
f 312/8/3 306/8/3 311/8/3
f 313/8/3 306/8/3 312/8/3
f 316/2/3 315/2/3 314/2/3
f 317/2/3 315/2/3 316/2/3
f 320/2/3 319/2/3 318/2/3
f 321/2/3 319/2/3 320/2/3
f 324/2/3 323/2/3 322/2/3
f 325/2/3 323/2/3 324/2/3
f 328/2/3 327/2/3 326/2/3
f 329/2/3 327/2/3 328/2/3
f 332/2/3 331/2/3 330/2/3
f 333/2/3 331/2/3 332/2/3
f 334/8/4 335/8/4 336/8/4
f 336/8/4 335/8/4 337/8/4
f 337/8/4 335/8/4 338/8/4
f 339/2/4 340/2/4 341/2/4
f 341/2/4 340/2/4 342/2/4
f 338/8/4 335/8/4 343/8/4
f 343/8/4 335/8/4 344/8/4
f 345/2/4 346/2/4 347/2/4
f 347/2/4 346/2/4 348/2/4
f 349/2/4 350/2/4 351/2/4
f 351/2/4 350/2/4 352/2/4
f 353/2/4 354/2/4 355/2/4
f 355/2/4 354/2/4 356/2/4
f 357/7/4 358/7/4 359/7/4
f 357/7/4 359/7/4 361/7/4
f 359/7/4 360/7/4 361/7/4
f 361/7/4 360/7/4 362/7/4
f 362/7/4 360/7/4 364/7/4
f 363/7/4 364/7/4 365/7/4
f 364/7/4 360/7/4 366/7/4
f 365/7/4 364/7/4 366/7/4
f 366/7/4 360/7/4 368/7/4
f 367/7/4 368/7/4 371/7/4
f 368/7/4 360/7/4 372/7/4
f 371/7/4 368/7/4 372/7/4
f 369/2/4 370/2/4 373/2/4
f 373/2/4 370/2/4 374/2/4
f 372/7/4 360/7/4 376/7/4
f 375/7/4 376/7/4 377/7/4
f 376/7/4 360/7/4 378/7/4
f 377/7/4 376/7/4 378/7/4
f 378/7/4 360/7/4 380/7/4
f 379/7/4 380/7/4 381/7/4
f 380/7/4 360/7/4 382/7/4
f 381/7/4 380/7/4 382/7/4
f 383/7/4 384/7/4 385/7/4
f 385/7/4 384/7/4 386/7/4
f 387/7/4 388/7/4 389/7/4
f 389/7/4 388/7/4 390/7/4
f 391/2/4 392/2/4 393/2/4
f 393/2/4 392/2/4 394/2/4
f 395/2/4 396/2/4 397/2/4
f 397/2/4 396/2/4 398/2/4
f 399/8/4 400/8/4 401/8/4
f 401/8/4 400/8/4 402/8/4
f 403/2/4 404/2/4 405/2/4
f 405/2/4 404/2/4 406/2/4
f 399/8/4 401/8/4 407/8/4
f 401/6/4 402/6/4 407/6/4
f 402/8/4 400/8/4 408/8/4
f 407/6/4 402/6/4 408/6/4
f 399/8/4 407/8/4 411/8/4
f 407/8/4 408/8/4 411/8/4
f 408/8/4 400/8/4 412/8/4
f 411/8/4 408/8/4 412/8/4
f 409/2/4 410/2/4 413/2/4
f 413/2/4 410/2/4 414/2/4
f 415/2/4 416/2/4 417/2/4
f 417/2/4 416/2/4 418/2/4
f 419/2/4 420/2/4 421/2/4
f 421/2/4 420/2/4 422/2/4
f 423/2/4 424/2/4 425/2/4
f 425/2/4 424/2/4 426/2/4
f 427/2/4 428/2/4 429/2/4
f 429/2/4 428/2/4 430/2/4
f 431/2/4 432/2/4 433/2/4
f 433/2/4 432/2/4 434/2/4
f 435/2/4 436/2/4 437/2/4
f 437/2/4 436/2/4 438/2/4
f 439/2/4 440/2/4 441/2/4
f 441/2/4 440/2/4 442/2/4
f 445/2/5 444/2/5 443/2/5
f 448/2/5 445/2/5 443/2/5
f 448/2/5 446/2/5 445/2/5
f 452/2/5 448/2/5 447/2/5
f 453/2/5 446/2/5 448/2/5
f 453/2/5 448/2/5 452/2/5
f 454/2/5 446/2/5 453/2/5
f 455/2/5 450/2/5 449/2/5
f 457/2/5 455/2/5 449/2/5
f 457/2/5 456/2/5 455/2/5
f 458/2/5 456/2/5 457/2/5
f 459/2/5 456/2/5 458/2/5
f 460/2/5 452/2/5 451/2/5
f 460/2/5 453/2/5 452/2/5
f 461/2/5 453/2/5 460/2/5
f 462/2/5 453/2/5 461/2/5
f 465/2/5 459/2/5 458/2/5
f 465/2/5 460/2/5 459/2/5
f 465/2/5 461/2/5 460/2/5
f 466/2/5 461/2/5 465/2/5
f 469/7/5 464/7/5 463/7/5
f 470/7/5 464/7/5 469/7/5
f 471/2/5 461/2/5 466/2/5
f 472/2/5 461/2/5 471/2/5
f 473/2/5 461/2/5 472/2/5
f 475/7/5 468/7/5 467/7/5
f 476/7/5 468/7/5 475/7/5
f 478/2/5 474/2/5 473/2/5
f 478/2/5 473/2/5 472/2/5
f 479/2/5 474/2/5 478/2/5
f 481/2/5 478/2/5 477/2/5
f 481/2/5 480/2/5 479/2/5
f 481/2/5 479/2/5 478/2/5
f 482/2/5 480/2/5 481/2/5
f 483/2/5 480/2/5 482/2/5
f 486/2/5 481/2/5 477/2/5
f 487/2/5 483/2/5 482/2/5
f 487/2/5 484/2/5 483/2/5
f 488/2/5 484/2/5 487/2/5
f 489/2/5 486/2/5 485/2/5
f 489/2/5 481/2/5 486/2/5
f 490/2/5 481/2/5 489/2/5
f 491/2/5 484/2/5 488/2/5
f 492/2/5 484/2/5 491/2/5
f 494/2/5 489/2/5 485/2/5
f 495/2/5 494/2/5 493/2/5
f 496/2/5 489/2/5 494/2/5
f 496/2/5 494/2/5 495/2/5
f 497/2/5 489/2/5 496/2/5
f 498/2/5 489/2/5 497/2/5
f 499/2/5 497/2/5 496/2/5
f 500/2/5 497/2/5 499/2/5
f 503/2/5 502/2/5 501/2/5
f 504/2/5 502/2/5 503/2/5
f 508/2/5 506/2/5 505/2/5
f 509/2/5 506/2/5 508/2/5
f 511/2/5 508/2/5 507/2/5
f 511/2/5 510/2/5 509/2/5
f 511/2/5 509/2/5 508/2/5
f 512/2/5 510/2/5 511/2/5
f 513/2/5 511/2/5 507/2/5
f 514/2/5 510/2/5 512/2/5
f 515/2/5 513/2/5 507/2/5
f 515/2/5 514/2/5 513/2/5
f 516/2/5 514/2/5 515/2/5
f 517/2/5 510/2/5 514/2/5
f 517/2/5 514/2/5 516/2/5
f 518/2/5 510/2/5 517/2/5
f 519/2/5 517/2/5 516/2/5
f 520/2/5 517/2/5 519/2/5
f 523/8/5 522/8/5 521/8/5
f 524/8/5 522/8/5 523/8/5
f 525/8/5 523/8/5 521/8/5
f 525/6/5 524/6/5 523/6/5
f 526/8/5 522/8/5 524/8/5
f 526/6/5 524/6/5 525/6/5
f 527/8/5 525/8/5 521/8/5
f 527/8/5 526/8/5 525/8/5
f 528/8/5 522/8/5 526/8/5
f 528/8/5 526/8/5 527/8/5
f 531/7/5 530/7/5 529/7/5
f 532/7/5 530/7/5 531/7/5
f 541/7/5 534/7/5 533/7/5
f 542/7/5 534/7/5 541/7/5
f 543/7/5 536/7/5 535/7/5
f 544/7/5 536/7/5 543/7/5
f 545/7/5 538/7/5 537/7/5
f 546/7/5 538/7/5 545/7/5
f 547/7/5 540/7/5 539/7/5
f 548/7/5 540/7/5 547/7/5
f 549/2/6 550/2/6 551/2/6
f 549/2/6 551/2/6 554/2/6
f 551/2/6 552/2/6 554/2/6
f 553/2/6 554/2/6 558/2/6
f 554/2/6 552/2/6 559/2/6
f 558/2/6 554/2/6 559/2/6
f 559/2/6 552/2/6 560/2/6
f 555/2/6 556/2/6 561/2/6
f 555/2/6 561/2/6 563/2/6
f 561/2/6 562/2/6 563/2/6
f 563/2/6 562/2/6 564/2/6
f 564/2/6 562/2/6 565/2/6
f 557/2/6 558/2/6 566/2/6
f 558/2/6 559/2/6 566/2/6
f 566/2/6 559/2/6 567/2/6
f 567/2/6 559/2/6 568/2/6
f 564/2/6 565/2/6 569/2/6
f 566/2/6 567/2/6 569/2/6
f 565/2/6 566/2/6 569/2/6
f 569/2/6 567/2/6 570/2/6
f 570/2/6 567/2/6 571/2/6
f 571/2/6 567/2/6 572/2/6
f 572/2/6 567/2/6 573/2/6
f 572/2/6 573/2/6 576/2/6
f 573/2/6 574/2/6 576/2/6
f 576/2/6 574/2/6 577/2/6
f 576/2/6 577/2/6 579/2/6
f 577/2/6 578/2/6 579/2/6
f 575/2/6 576/2/6 579/2/6
f 579/2/6 578/2/6 580/2/6
f 580/2/6 578/2/6 581/2/6
f 575/2/6 579/2/6 584/2/6
f 580/2/6 581/2/6 585/2/6
f 581/2/6 582/2/6 585/2/6
f 585/2/6 582/2/6 586/2/6
f 583/2/6 584/2/6 587/2/6
f 584/2/6 579/2/6 587/2/6
f 587/2/6 579/2/6 588/2/6
f 586/2/6 582/2/6 589/2/6
f 589/2/6 582/2/6 590/2/6
f 583/2/6 587/2/6 592/2/6
f 591/2/6 592/2/6 593/2/6
f 592/2/6 587/2/6 594/2/6
f 593/2/6 592/2/6 594/2/6
f 594/2/6 587/2/6 595/2/6
f 595/2/6 587/2/6 596/2/6
f 594/2/6 595/2/6 597/2/6
f 597/2/6 595/2/6 598/2/6
f 599/2/6 600/2/6 602/2/6
f 602/2/6 600/2/6 603/2/6
f 602/3/6 603/3/6 605/3/6
f 605/3/6 603/3/6 606/3/6
f 602/3/6 605/3/6 607/3/6
f 605/1/6 606/1/6 607/1/6
f 606/3/6 603/3/6 608/3/6
f 607/1/6 606/1/6 608/1/6
f 601/2/6 602/2/6 609/2/6
f 602/3/6 607/3/6 610/3/6
f 609/2/6 602/2/6 610/2/6
f 607/3/6 608/3/6 610/3/6
f 608/3/6 603/3/6 611/3/6
f 610/3/6 608/3/6 611/3/6
f 603/2/6 604/2/6 611/2/6
f 611/2/6 604/2/6 612/2/6
f 610/2/6 611/2/6 613/2/6
f 613/2/6 611/2/6 614/2/6
f 615/4/6 616/4/6 620/4/6
f 616/5/6 617/5/6 620/5/6
f 620/5/6 617/5/6 621/5/6
f 617/4/6 618/4/6 622/4/6
f 621/5/6 617/5/6 622/5/6
f 618/5/6 619/5/6 623/5/6
f 622/4/6 618/4/6 623/4/6
f 623/5/6 619/5/6 624/5/6
f 624/5/6 619/5/6 625/5/6
f 620/4/6 621/4/6 626/4/6
f 615/4/6 620/4/6 626/4/6
f 621/5/6 622/5/6 627/5/6
f 626/4/6 621/4/6 627/4/6
f 622/5/6 623/5/6 627/5/6
f 623/5/6 624/5/6 627/5/6
f 625/5/6 619/5/6 628/5/6
f 624/4/6 625/4/6 628/4/6
f 628/5/6 619/5/6 629/5/6
f 627/5/6 624/5/6 630/5/6
f 626/5/6 627/5/6 630/5/6
f 628/4/6 629/4/6 630/4/6
f 624/4/6 628/4/6 630/4/6
f 630/4/6 629/4/6 631/4/6
f 626/5/6 630/5/6 632/5/6
f 630/5/6 631/5/6 632/5/6
f 632/5/6 631/5/6 633/5/6
f 626/5/6 632/5/6 634/5/6
f 632/4/6 633/4/6 635/4/6
f 634/5/6 632/5/6 635/5/6
f 633/5/6 631/5/6 636/5/6
f 635/4/6 633/4/6 636/4/6
f 636/5/6 631/5/6 637/5/6
f 637/5/6 631/5/6 638/5/6
f 626/5/6 634/5/6 639/5/6
f 634/4/6 635/4/6 640/4/6
f 639/5/6 634/5/6 640/5/6
f 635/5/6 636/5/6 641/5/6
f 640/4/6 635/4/6 641/4/6
f 636/5/6 637/5/6 641/5/6
f 639/4/6 640/4/6 642/4/6
f 640/5/6 641/5/6 643/5/6
f 642/4/6 640/4/6 643/4/6
f 641/5/6 637/5/6 644/5/6
f 643/5/6 641/5/6 644/5/6
f 637/4/6 638/4/6 644/4/6
f 638/5/6 631/5/6 645/5/6
f 644/4/6 638/4/6 645/4/6
f 645/5/6 631/5/6 646/5/6
f 647/8/6 648/8/6 649/8/6
f 649/8/6 648/8/6 650/8/6
f 647/8/6 649/8/6 651/8/6
f 651/8/6 649/8/6 652/8/6
f 650/8/6 648/8/6 653/8/6
f 653/8/6 648/8/6 654/8/6
f 655/8/6 656/8/6 659/8/6
f 657/8/6 658/8/6 660/8/6
f 655/8/6 659/8/6 661/8/6
f 659/8/6 660/8/6 661/8/6
f 660/8/6 658/8/6 662/8/6
f 661/8/6 660/8/6 662/8/6
f 663/7/6 664/7/6 667/7/6
f 667/7/6 664/7/6 668/7/6
f 665/7/6 666/7/6 669/7/6
f 669/7/6 666/7/6 670/7/6
f 671/7/6 672/7/6 675/7/6
f 675/7/6 672/7/6 676/7/6
f 673/7/6 674/7/6 677/7/6
f 677/7/6 674/7/6 678/7/6
f 679/7/6 680/7/6 681/7/6
f 681/7/6 680/7/6 682/7/6
f 683/7/6 684/7/6 685/7/6
f 685/7/6 684/7/6 686/7/6
