# MagicaVoxel @ Ephtracy

# group
o teapot

# material
mtllib picaRetá.mtl
usemtl palette

# normals
vn -1 0 0
vn 1 0 0
vn 0 0 1
vn 0 0 -1
vn 0 -1 0
vn 0 1 0

# texcoords
vt 0.537109 0.5
vt 0.958984 0.5
vt 0.986328 0.5
vt 0.994141 0.5

# verts
v -6.4 2.4 0.2
v -6.4 2.4 -0.1
v -6.4 2.7 0.2
v -6.4 2.7 -0.1
v -6.2 2.4 0.3
v -6.2 2.4 0.2
v -6.2 2.4 -0.1
v -6.2 2.4 -0.2
v -6.2 2.7 0.2
v -6.2 2.7 -0.1
v -6.2 2.9 0.3
v -6.2 2.9 -0.2
v -5.8 2.9 0.3
v -5.8 2.9 -0.2
v -5.8 3.1 0.3
v -5.8 3.1 -0.2
v -5.2 2.6 0.3
v -5.2 2.6 -0.2
v -5.2 2.8 0.3
v -5.2 2.8 -0.2
v -5 2.4 0.4
v -5 2.4 -0.3
v -5 2.6 0.3
v -5 2.6 -0.2
v -5 3.1 0.4
v -5 3.1 0.3
v -5 3.1 -0.2
v -5 3.1 -0.3
v -4.8 2.2 0.4
v -4.8 2.2 -0.3
v -4.8 2.4 0.6
v -4.8 2.4 0.4
v -4.8 2.4 -0.3
v -4.8 2.4 -0.4
v -4.8 2.4 -0.5
v -4.8 3 -0.4
v -4.8 3 -0.5
v -4.8 3.1 0.6
v -4.8 3.1 0.4
v -4.8 3.1 -0.3
v -4.8 3.1 -0.5
v -4.8 3.3 0.4
v -4.8 3.3 -0.3
v -4.7 0.3 0.2
v -4.7 0.3 -0.1
v -4.7 2.2 0.2
v -4.7 2.2 -0.1
v -4.6 0.1 0.2
v -4.6 0.1 -0.1
v -4.6 0.3 0.3
v -4.6 0.3 0.2
v -4.6 0.3 -0.1
v -4.6 0.3 -0.2
v -4.6 2.2 0.3
v -4.6 2.2 0.2
v -4.6 2.2 -0.1
v -4.6 2.2 -0.2
v -4.3 0.2 0.1
v -4.3 0.2 5.96046e-08
v -4.3 0.3 0.1
v -4.3 0.3 5.96046e-08
v -4.3 0.4 0.1
v -4.3 0.4 5.96046e-08
v -5.7 2.4 0.3
v -5.7 2.4 -0.2
v -5.7 2.6 0.3
v -5.7 2.6 -0.2
v -5.3 2.6 0.3
v -5.3 2.6 -0.2
v -5.3 2.8 0.3
v -5.3 2.8 -0.2
v -4.5 0.2 0.1
v -4.5 0.2 5.96046e-08
v -4.5 0.3 0.1
v -4.5 0.3 5.96046e-08
v -4.5 0.4 0.1
v -4.5 0.4 5.96046e-08
v -4.2 0.1 0.2
v -4.2 0.1 -0.1
v -4.2 0.3 0.3
v -4.2 0.3 0.2
v -4.2 0.3 -0.1
v -4.2 0.3 -0.2
v -4.2 2.2 0.3
v -4.2 2.2 0.2
v -4.2 2.2 -0.1
v -4.2 2.2 -0.2
v -4.1 0.3 0.2
v -4.1 0.3 -0.1
v -4.1 2.2 0.2
v -4.1 2.2 -0.1
v -4 2.2 0.4
v -4 2.2 -0.3
v -4 2.4 0.6
v -4 2.4 0.4
v -4 2.4 -0.3
v -4 2.4 -0.4
v -4 2.4 -0.5
v -4 3 -0.4
v -4 3 -0.5
v -4 3.1 0.6
v -4 3.1 0.4
v -4 3.1 -0.3
v -4 3.1 -0.5
v -4 3.3 0.4
v -4 3.3 -0.3
v -3.8 2.4 0.4
v -3.8 2.4 -0.3
v -3.8 2.6 0.2
v -3.8 2.6 -0.1
v -3.8 2.8 0.3
v -3.8 2.8 0.2
v -3.8 2.8 -0.1
v -3.8 2.8 -0.2
v -3.8 3.1 0.4
v -3.8 3.1 0.3
v -3.8 3.1 -0.2
v -3.8 3.1 -0.3
v -2.6 2.6 0.2
v -2.6 2.6 -0.1
v -2.6 2.8 0.3
v -2.6 2.8 0.2
v -2.6 2.8 -0.1
v -2.6 2.8 -0.2
v -2.6 3.1 0.3
v -2.6 3.1 0.2
v -2.6 3.1 -0.1
v -2.6 3.1 -0.2
v -2.4 2.8 0.2
v -2.4 2.8 -0.1
v -2.4 3.1 0.2
v -2.4 3.1 -0.1
v -4.8 2.4 0.6
v -4.8 3.1 0.6
v -4.7 2.8 0.6
v -4.7 3 0.6
v -4.5 2.4 0.6
v -4.5 2.8 0.6
v -4.3 2.4 0.6
v -4.3 2.8 0.6
v -4.1 2.8 0.6
v -4.1 3 0.6
v -4 2.4 0.6
v -4 3.1 0.6
v -5 2.4 0.4
v -5 3.1 0.4
v -4.8 2.2 0.4
v -4.8 2.4 0.4
v -4.8 3.1 0.4
v -4.8 3.3 0.4
v -4 2.2 0.4
v -4 2.4 0.4
v -4 3.1 0.4
v -4 3.3 0.4
v -3.8 2.4 0.4
v -3.8 3.1 0.4
v -6.2 2.4 0.3
v -6.2 2.9 0.3
v -5.8 2.9 0.3
v -5.8 3.1 0.3
v -5.7 2.4 0.3
v -5.7 2.6 0.3
v -5.3 2.6 0.3
v -5.3 2.8 0.3
v -5.2 2.6 0.3
v -5.2 2.8 0.3
v -5 2.6 0.3
v -5 3.1 0.3
v -4.6 0.3 0.3
v -4.6 2.2 0.3
v -4.2 0.3 0.3
v -4.2 2.2 0.3
v -3.8 2.8 0.3
v -3.8 3.1 0.3
v -2.6 2.8 0.3
v -2.6 3.1 0.3
v -6.4 2.4 0.2
v -6.4 2.7 0.2
v -6.2 2.4 0.2
v -6.2 2.7 0.2
v -4.7 0.3 0.2
v -4.7 2.2 0.2
v -4.6 0.1 0.2
v -4.6 0.3 0.2
v -4.6 2.2 0.2
v -4.2 0.1 0.2
v -4.2 0.3 0.2
v -4.2 2.2 0.2
v -4.1 0.3 0.2
v -4.1 2.2 0.2
v -3.8 2.6 0.2
v -3.8 2.8 0.2
v -2.6 2.6 0.2
v -2.6 2.8 0.2
v -2.6 3.1 0.2
v -2.4 2.8 0.2
v -2.4 3.1 0.2
v -4.5 0.2 5.96046e-08
v -4.5 0.3 5.96046e-08
v -4.5 0.4 5.96046e-08
v -4.3 0.2 5.96046e-08
v -4.3 0.3 5.96046e-08
v -4.3 0.4 5.96046e-08
v -4.5 0.2 0.1
v -4.5 0.3 0.1
v -4.5 0.4 0.1
v -4.3 0.2 0.1
v -4.3 0.3 0.1
v -4.3 0.4 0.1
v -6.4 2.4 -0.1
v -6.4 2.7 -0.1
v -6.2 2.4 -0.1
v -6.2 2.7 -0.1
v -4.7 0.3 -0.1
v -4.7 2.2 -0.1
v -4.6 0.1 -0.1
v -4.6 0.3 -0.1
v -4.6 2.2 -0.1
v -4.2 0.1 -0.1
v -4.2 0.3 -0.1
v -4.2 2.2 -0.1
v -4.1 0.3 -0.1
v -4.1 2.2 -0.1
v -3.8 2.6 -0.1
v -3.8 2.8 -0.1
v -2.6 2.6 -0.1
v -2.6 2.8 -0.1
v -2.6 3.1 -0.1
v -2.4 2.8 -0.1
v -2.4 3.1 -0.1
v -6.2 2.4 -0.2
v -6.2 2.9 -0.2
v -5.8 2.9 -0.2
v -5.8 3.1 -0.2
v -5.7 2.4 -0.2
v -5.7 2.6 -0.2
v -5.3 2.6 -0.2
v -5.3 2.8 -0.2
v -5.2 2.6 -0.2
v -5.2 2.8 -0.2
v -5 2.6 -0.2
v -5 3.1 -0.2
v -4.6 0.3 -0.2
v -4.6 2.2 -0.2
v -4.2 0.3 -0.2
v -4.2 2.2 -0.2
v -3.8 2.8 -0.2
v -3.8 3.1 -0.2
v -2.6 2.8 -0.2
v -2.6 3.1 -0.2
v -5 2.4 -0.3
v -5 3.1 -0.3
v -4.8 2.2 -0.3
v -4.8 2.4 -0.3
v -4.8 3.1 -0.3
v -4.8 3.3 -0.3
v -4.2 3.2 -0.3
v -4.2 3.3 -0.3
v -4.1 3.2 -0.3
v -4.1 3.3 -0.3
v -4 2.2 -0.3
v -4 2.4 -0.3
v -4 3.1 -0.3
v -4 3.3 -0.3
v -3.8 2.4 -0.3
v -3.8 3.1 -0.3
v -4.8 2.4 -0.5
v -4.8 3 -0.5
v -4.8 3.1 -0.5
v -4.7 2.4 -0.5
v -4.7 2.9 -0.5
v -4.6 2.8 -0.5
v -4.6 2.9 -0.5
v -4.6 3 -0.5
v -4.5 2.6 -0.5
v -4.5 2.8 -0.5
v -4.5 2.9 -0.5
v -4.3 2.6 -0.5
v -4.3 2.8 -0.5
v -4.3 2.9 -0.5
v -4.2 2.8 -0.5
v -4.2 2.9 -0.5
v -4.2 3 -0.5
v -4.1 2.4 -0.5
v -4.1 2.9 -0.5
v -4 2.4 -0.5
v -4 3 -0.5
v -4 3.1 -0.5
v -4.6 0.1 0.2
v -4.2 0.1 0.2
v -4.6 0.1 -0.1
v -4.2 0.1 -0.1
v -4.6 0.3 0.3
v -4.2 0.3 0.3
v -4.7 0.3 0.2
v -4.6 0.3 0.2
v -4.2 0.3 0.2
v -4.1 0.3 0.2
v -4.7 0.3 -0.1
v -4.6 0.3 -0.1
v -4.2 0.3 -0.1
v -4.1 0.3 -0.1
v -4.6 0.3 -0.2
v -4.2 0.3 -0.2
v -4.5 0.4 0.1
v -4.3 0.4 0.1
v -4.5 0.4 5.96046e-08
v -4.3 0.4 5.96046e-08
v -4.8 2.2 0.4
v -4 2.2 0.4
v -4.6 2.2 0.3
v -4.2 2.2 0.3
v -4.7 2.2 0.2
v -4.6 2.2 0.2
v -4.2 2.2 0.2
v -4.1 2.2 0.2
v -4.7 2.2 -0.1
v -4.6 2.2 -0.1
v -4.2 2.2 -0.1
v -4.1 2.2 -0.1
v -4.6 2.2 -0.2
v -4.2 2.2 -0.2
v -4.8 2.2 -0.3
v -4 2.2 -0.3
v -4.8 2.4 0.6
v -4.5 2.4 0.6
v -4.3 2.4 0.6
v -4 2.4 0.6
v -4.5 2.4 0.5
v -4.3 2.4 0.5
v -5 2.4 0.4
v -4.8 2.4 0.4
v -4 2.4 0.4
v -3.8 2.4 0.4
v -6.2 2.4 0.3
v -5.7 2.4 0.3
v -6.4 2.4 0.2
v -6.2 2.4 0.2
v -6.4 2.4 -0.1
v -6.2 2.4 -0.1
v -6.2 2.4 -0.2
v -5.7 2.4 -0.2
v -5 2.4 -0.3
v -4.8 2.4 -0.3
v -4 2.4 -0.3
v -3.8 2.4 -0.3
v -4.8 2.4 -0.4
v -4.7 2.4 -0.4
v -4.1 2.4 -0.4
v -4 2.4 -0.4
v -4.8 2.4 -0.5
v -4.7 2.4 -0.5
v -4.1 2.4 -0.5
v -4 2.4 -0.5
v -5.7 2.6 0.3
v -5.3 2.6 0.3
v -5.2 2.6 0.3
v -5 2.6 0.3
v -3.8 2.6 0.2
v -2.6 2.6 0.2
v -3.8 2.6 -0.1
v -2.6 2.6 -0.1
v -5.7 2.6 -0.2
v -5.3 2.6 -0.2
v -5.2 2.6 -0.2
v -5 2.6 -0.2
v -5.3 2.8 0.3
v -5.2 2.8 0.3
v -3.8 2.8 0.3
v -2.6 2.8 0.3
v -3.8 2.8 0.2
v -2.6 2.8 0.2
v -2.4 2.8 0.2
v -3.8 2.8 -0.1
v -2.6 2.8 -0.1
v -2.4 2.8 -0.1
v -5.3 2.8 -0.2
v -5.2 2.8 -0.2
v -3.8 2.8 -0.2
v -2.6 2.8 -0.2
v -4.5 0.2 0.1
v -4.3 0.2 0.1
v -4.5 0.2 5.96046e-08
v -4.3 0.2 5.96046e-08
v -6.4 2.7 0.2
v -6.2 2.7 0.2
v -6.4 2.7 -0.1
v -6.2 2.7 -0.1
v -6.2 2.9 0.3
v -5.8 2.9 0.3
v -6.2 2.9 -0.2
v -5.8 2.9 -0.2
v -4.8 3.1 0.6
v -4 3.1 0.6
v -5 3.1 0.4
v -4.8 3.1 0.4
v -4 3.1 0.4
v -3.8 3.1 0.4
v -5.8 3.1 0.3
v -5 3.1 0.3
v -3.8 3.1 0.3
v -2.6 3.1 0.3
v -2.6 3.1 0.2
v -2.4 3.1 0.2
v -2.6 3.1 -0.1
v -2.4 3.1 -0.1
v -5.8 3.1 -0.2
v -5 3.1 -0.2
v -3.8 3.1 -0.2
v -2.6 3.1 -0.2
v -5 3.1 -0.3
v -4.8 3.1 -0.3
v -4 3.1 -0.3
v -3.8 3.1 -0.3
v -4.8 3.1 -0.5
v -4 3.1 -0.5
v -4.8 3.3 0.4
v -4 3.3 0.4
v -4.6 3.3 0.3
v -4.1 3.3 0.3
v -4.5 3.3 0.2
v -4.2 3.3 0.2
v -4.5 3.3 5.96046e-08
v -4.2 3.3 5.96046e-08
v -4.6 3.3 -0.1
v -4.2 3.3 -0.1
v -4.8 3.3 -0.3
v -4.2 3.3 -0.3
v -4.1 3.3 -0.3
v -4 3.3 -0.3

# faces
f 3/3/1 2/3/1 1/3/1
f 4/3/1 2/3/1 3/3/1
f 9/3/1 6/3/1 5/3/1
f 10/3/1 8/3/1 7/3/1
f 11/3/1 9/3/1 5/3/1
f 11/3/1 10/3/1 9/3/1
f 12/3/1 8/3/1 10/3/1
f 12/3/1 10/3/1 11/3/1
f 15/3/1 14/3/1 13/3/1
f 16/3/1 14/3/1 15/3/1
f 19/3/1 18/3/1 17/3/1
f 20/3/1 18/3/1 19/3/1
f 23/4/1 22/4/1 21/4/1
f 24/4/1 22/4/1 23/4/1
f 25/4/1 23/4/1 21/4/1
f 26/4/1 23/4/1 25/4/1
f 27/4/1 22/4/1 24/4/1
f 28/4/1 22/4/1 27/4/1
f 32/4/1 30/4/1 29/4/1
f 33/4/1 30/4/1 32/4/1
f 36/2/1 35/2/1 34/2/1
f 36/4/1 34/4/1 33/4/1
f 37/2/1 35/2/1 36/2/1
f 38/4/1 32/4/1 31/4/1
f 39/4/1 32/4/1 38/4/1
f 40/4/1 36/4/1 33/4/1
f 40/4/1 37/4/1 36/4/1
f 41/4/1 37/4/1 40/4/1
f 42/4/1 40/4/1 39/4/1
f 43/4/1 40/4/1 42/4/1
f 46/1/1 45/1/1 44/1/1
f 47/1/1 45/1/1 46/1/1
f 51/1/1 49/1/1 48/1/1
f 52/1/1 49/1/1 51/1/1
f 54/1/1 51/1/1 50/1/1
f 55/1/1 51/1/1 54/1/1
f 56/1/1 53/1/1 52/1/1
f 57/1/1 53/1/1 56/1/1
f 60/1/1 59/1/1 58/1/1
f 61/1/1 59/1/1 60/1/1
f 62/3/1 61/3/1 60/3/1
f 63/3/1 61/3/1 62/3/1
f 64/3/2 65/3/2 66/3/2
f 66/3/2 65/3/2 67/3/2
f 68/3/2 69/3/2 70/3/2
f 70/3/2 69/3/2 71/3/2
f 72/1/2 73/1/2 74/1/2
f 74/1/2 73/1/2 75/1/2
f 74/3/2 75/3/2 76/3/2
f 76/3/2 75/3/2 77/3/2
f 78/1/2 79/1/2 81/1/2
f 81/1/2 79/1/2 82/1/2
f 80/1/2 81/1/2 84/1/2
f 84/1/2 81/1/2 85/1/2
f 82/1/2 83/1/2 86/1/2
f 86/1/2 83/1/2 87/1/2
f 88/1/2 89/1/2 90/1/2
f 90/1/2 89/1/2 91/1/2
f 92/4/2 93/4/2 95/4/2
f 95/4/2 93/4/2 96/4/2
f 97/2/2 98/2/2 99/2/2
f 96/4/2 97/4/2 99/4/2
f 99/2/2 98/2/2 100/2/2
f 94/4/2 95/4/2 101/4/2
f 101/4/2 95/4/2 102/4/2
f 96/4/2 99/4/2 103/4/2
f 99/4/2 100/4/2 103/4/2
f 103/4/2 100/4/2 104/4/2
f 102/4/2 103/4/2 105/4/2
f 105/4/2 103/4/2 106/4/2
f 107/4/2 108/4/2 109/4/2
f 109/4/2 108/4/2 110/4/2
f 107/4/2 109/4/2 111/4/2
f 111/4/2 109/4/2 112/4/2
f 110/4/2 108/4/2 113/4/2
f 113/4/2 108/4/2 114/4/2
f 107/4/2 111/4/2 115/4/2
f 115/4/2 111/4/2 116/4/2
f 114/4/2 108/4/2 117/4/2
f 117/4/2 108/4/2 118/4/2
f 119/3/2 120/3/2 122/3/2
f 122/3/2 120/3/2 123/3/2
f 121/3/2 122/3/2 125/3/2
f 125/3/2 122/3/2 126/3/2
f 123/3/2 124/3/2 127/3/2
f 127/3/2 124/3/2 128/3/2
f 129/3/2 130/3/2 131/3/2
f 131/3/2 130/3/2 132/3/2
f 135/4/3 134/4/3 133/4/3
f 136/4/3 134/4/3 135/4/3
f 137/4/3 135/4/3 133/4/3
f 138/2/3 136/2/3 135/2/3
f 138/4/3 135/4/3 137/4/3
f 139/2/3 138/2/3 137/2/3
f 140/2/3 136/2/3 138/2/3
f 140/2/3 138/2/3 139/2/3
f 141/4/3 140/4/3 139/4/3
f 141/2/3 136/2/3 140/2/3
f 142/4/3 134/4/3 136/4/3
f 142/2/3 136/2/3 141/2/3
f 143/4/3 141/4/3 139/4/3
f 143/4/3 142/4/3 141/4/3
f 144/4/3 134/4/3 142/4/3
f 144/4/3 142/4/3 143/4/3
f 148/4/3 146/4/3 145/4/3
f 149/4/3 146/4/3 148/4/3
f 151/4/3 148/4/3 147/4/3
f 152/4/3 148/4/3 151/4/3
f 153/4/3 150/4/3 149/4/3
f 154/4/3 150/4/3 153/4/3
f 155/4/3 153/4/3 152/4/3
f 156/4/3 153/4/3 155/4/3
f 159/3/3 158/3/3 157/3/3
f 161/3/3 159/3/3 157/3/3
f 161/3/3 160/3/3 159/3/3
f 162/3/3 160/3/3 161/3/3
f 163/3/3 160/3/3 162/3/3
f 164/3/3 160/3/3 163/3/3
f 166/3/3 160/3/3 164/3/3
f 167/3/3 166/3/3 165/3/3
f 168/3/3 160/3/3 166/3/3
f 168/3/3 166/3/3 167/3/3
f 171/1/3 170/1/3 169/1/3
f 172/1/3 170/1/3 171/1/3
f 175/3/3 174/3/3 173/3/3
f 176/3/3 174/3/3 175/3/3
f 179/3/3 178/3/3 177/3/3
f 180/3/3 178/3/3 179/3/3
f 184/1/3 182/1/3 181/1/3
f 185/1/3 182/1/3 184/1/3
f 186/1/3 184/1/3 183/1/3
f 187/1/3 184/1/3 186/1/3
f 189/1/3 188/1/3 187/1/3
f 190/1/3 188/1/3 189/1/3
f 193/3/3 192/3/3 191/3/3
f 194/3/3 192/3/3 193/3/3
f 196/3/3 195/3/3 194/3/3
f 197/3/3 195/3/3 196/3/3
f 201/1/3 199/1/3 198/1/3
f 202/3/3 200/3/3 199/3/3
f 202/1/3 199/1/3 201/1/3
f 203/3/3 200/3/3 202/3/3
f 204/1/4 205/1/4 207/1/4
f 205/1/4 206/1/4 207/1/4
f 207/1/4 206/1/4 208/1/4
f 208/1/4 206/1/4 209/1/4
f 210/3/4 211/3/4 212/3/4
f 212/3/4 211/3/4 213/3/4
f 214/1/4 215/1/4 217/1/4
f 217/1/4 215/1/4 218/1/4
f 216/1/4 217/1/4 219/1/4
f 219/1/4 217/1/4 220/1/4
f 220/1/4 221/1/4 222/1/4
f 222/1/4 221/1/4 223/1/4
f 224/3/4 225/3/4 226/3/4
f 226/3/4 225/3/4 227/3/4
f 227/3/4 228/3/4 229/3/4
f 229/3/4 228/3/4 230/3/4
f 231/3/4 232/3/4 233/3/4
f 231/3/4 233/3/4 235/3/4
f 233/3/4 234/3/4 235/3/4
f 235/3/4 234/3/4 236/3/4
f 236/3/4 234/3/4 237/3/4
f 237/3/4 234/3/4 238/3/4
f 238/3/4 234/3/4 240/3/4
f 239/3/4 240/3/4 241/3/4
f 240/3/4 234/3/4 242/3/4
f 241/3/4 240/3/4 242/3/4
f 243/1/4 244/1/4 245/1/4
f 245/1/4 244/1/4 246/1/4
f 247/3/4 248/3/4 249/3/4
f 249/3/4 248/3/4 250/3/4
f 251/4/4 252/4/4 254/4/4
f 254/4/4 252/4/4 255/4/4
f 255/4/4 256/4/4 257/4/4
f 257/4/4 256/4/4 258/4/4
f 255/4/4 257/4/4 259/4/4
f 257/2/4 258/2/4 259/2/4
f 259/2/4 258/2/4 260/2/4
f 253/4/4 254/4/4 261/4/4
f 261/4/4 254/4/4 262/4/4
f 255/4/4 259/4/4 263/4/4
f 259/4/4 260/4/4 263/4/4
f 263/4/4 260/4/4 264/4/4
f 262/4/4 263/4/4 265/4/4
f 265/4/4 263/4/4 266/4/4
f 267/2/4 268/2/4 270/2/4
f 270/2/4 268/2/4 271/2/4
f 270/4/4 271/4/4 272/4/4
f 271/2/4 268/2/4 273/2/4
f 272/4/4 271/4/4 273/4/4
f 268/4/4 269/4/4 274/4/4
f 273/2/4 268/2/4 274/2/4
f 270/4/4 272/4/4 275/4/4
f 272/2/4 273/2/4 276/2/4
f 275/4/4 272/4/4 276/4/4
f 273/4/4 274/4/4 277/4/4
f 276/2/4 273/2/4 277/2/4
f 270/4/4 275/4/4 278/4/4
f 275/2/4 276/2/4 278/2/4
f 276/4/4 277/4/4 279/4/4
f 278/2/4 276/2/4 279/2/4
f 277/4/4 274/4/4 280/4/4
f 279/4/4 277/4/4 280/4/4
f 278/4/4 279/4/4 281/4/4
f 279/2/4 280/2/4 281/2/4
f 280/4/4 274/4/4 282/4/4
f 281/2/4 280/2/4 282/2/4
f 274/4/4 269/4/4 283/4/4
f 282/4/4 274/4/4 283/4/4
f 278/4/4 281/4/4 284/4/4
f 281/4/4 282/4/4 284/4/4
f 270/4/4 278/4/4 284/4/4
f 282/2/4 283/2/4 285/2/4
f 284/4/4 282/4/4 285/4/4
f 284/2/4 285/2/4 286/2/4
f 283/4/4 269/4/4 287/4/4
f 286/2/4 285/2/4 287/2/4
f 285/2/4 283/2/4 287/2/4
f 287/4/4 269/4/4 288/4/4
f 291/1/5 290/1/5 289/1/5
f 292/1/5 290/1/5 291/1/5
f 296/1/5 294/1/5 293/1/5
f 297/1/5 294/1/5 296/1/5
f 299/1/5 296/1/5 295/1/5
f 300/1/5 296/1/5 299/1/5
f 301/1/5 298/1/5 297/1/5
f 302/1/5 298/1/5 301/1/5
f 303/1/5 301/1/5 300/1/5
f 304/1/5 301/1/5 303/1/5
f 307/4/5 306/4/5 305/4/5
f 308/4/5 306/4/5 307/4/5
f 311/4/5 310/4/5 309/4/5
f 312/4/5 310/4/5 311/4/5
f 313/4/5 311/4/5 309/4/5
f 314/4/5 311/4/5 313/4/5
f 315/4/5 310/4/5 312/4/5
f 316/4/5 310/4/5 315/4/5
f 317/4/5 313/4/5 309/4/5
f 320/4/5 310/4/5 316/4/5
f 321/4/5 318/4/5 317/4/5
f 322/4/5 320/4/5 319/4/5
f 323/4/5 321/4/5 317/4/5
f 323/4/5 322/4/5 321/4/5
f 323/4/5 317/4/5 309/4/5
f 324/4/5 320/4/5 322/4/5
f 324/4/5 322/4/5 323/4/5
f 324/4/5 310/4/5 320/4/5
f 329/4/5 326/4/5 325/4/5
f 329/2/5 327/2/5 326/2/5
f 330/4/5 328/4/5 327/4/5
f 330/2/5 327/2/5 329/2/5
f 332/4/5 329/4/5 325/4/5
f 332/4/5 330/4/5 329/4/5
f 333/4/5 328/4/5 330/4/5
f 333/4/5 330/4/5 332/4/5
f 338/3/5 336/3/5 335/3/5
f 339/3/5 338/3/5 337/3/5
f 340/3/5 336/3/5 338/3/5
f 340/3/5 338/3/5 339/3/5
f 341/3/5 336/3/5 340/3/5
f 342/3/5 336/3/5 341/3/5
f 343/4/5 332/4/5 331/4/5
f 344/4/5 332/4/5 343/4/5
f 345/4/5 334/4/5 333/4/5
f 346/4/5 334/4/5 345/4/5
f 347/4/5 345/4/5 344/4/5
f 348/4/5 345/4/5 347/4/5
f 349/4/5 345/4/5 348/4/5
f 350/4/5 345/4/5 349/4/5
f 351/2/5 348/2/5 347/2/5
f 352/4/5 349/4/5 348/4/5
f 352/2/5 348/2/5 351/2/5
f 353/2/5 350/2/5 349/2/5
f 353/4/5 349/4/5 352/4/5
f 354/2/5 350/2/5 353/2/5
f 361/3/5 360/3/5 359/3/5
f 362/3/5 360/3/5 361/3/5
f 363/3/5 356/3/5 355/3/5
f 364/3/5 356/3/5 363/3/5
f 365/3/5 358/3/5 357/3/5
f 366/3/5 358/3/5 365/3/5
f 371/3/5 370/3/5 369/3/5
f 372/3/5 370/3/5 371/3/5
f 375/3/5 373/3/5 372/3/5
f 376/3/5 373/3/5 375/3/5
f 377/3/5 368/3/5 367/3/5
f 378/3/5 368/3/5 377/3/5
f 379/3/5 375/3/5 374/3/5
f 380/3/5 375/3/5 379/3/5
f 381/1/6 382/1/6 383/1/6
f 383/1/6 382/1/6 384/1/6
f 385/3/6 386/3/6 387/3/6
f 387/3/6 386/3/6 388/3/6
f 389/3/6 390/3/6 391/3/6
f 391/3/6 390/3/6 392/3/6
f 393/4/6 394/4/6 396/4/6
f 396/4/6 394/4/6 397/4/6
f 395/4/6 396/4/6 400/4/6
f 397/4/6 398/4/6 401/4/6
f 401/3/6 402/3/6 403/3/6
f 401/3/6 403/3/6 405/3/6
f 403/3/6 404/3/6 405/3/6
f 405/3/6 404/3/6 406/3/6
f 399/3/6 400/3/6 407/3/6
f 400/4/6 396/4/6 408/4/6
f 407/3/6 400/3/6 408/3/6
f 397/4/6 401/4/6 409/4/6
f 401/3/6 405/3/6 409/3/6
f 409/3/6 405/3/6 410/3/6
f 408/4/6 396/4/6 411/4/6
f 411/4/6 396/4/6 412/4/6
f 397/4/6 409/4/6 413/4/6
f 413/4/6 409/4/6 414/4/6
f 412/4/6 413/4/6 415/4/6
f 415/4/6 413/4/6 416/4/6
f 417/4/6 418/4/6 419/4/6
f 419/4/6 418/4/6 420/4/6
f 419/2/6 420/2/6 421/2/6
f 421/2/6 420/2/6 422/2/6
f 419/2/6 421/2/6 423/2/6
f 421/4/6 422/4/6 423/4/6
f 422/2/6 420/2/6 424/2/6
f 423/4/6 422/4/6 424/4/6
f 417/4/6 419/4/6 425/4/6
f 419/2/6 423/2/6 425/2/6
f 423/2/6 424/2/6 425/2/6
f 424/2/6 420/2/6 426/2/6
f 425/2/6 424/2/6 426/2/6
f 417/4/6 425/4/6 427/4/6
f 425/4/6 426/4/6 427/4/6
f 426/2/6 420/2/6 428/2/6
f 427/4/6 426/4/6 428/4/6
f 420/4/6 418/4/6 429/4/6
f 428/2/6 420/2/6 429/2/6
f 429/4/6 418/4/6 430/4/6
