# MagicaVoxel @ Ephtracy

# group
o 

# material
mtllib ponte-2.mtl
usemtl palette

# normals
vn -1 0 0
vn 1 0 0
vn 0 0 1
vn 0 0 -1
vn 0 -1 0
vn 0 1 0

# texcoords
vt 0.369141 0.5
vt 0.373047 0.5

# verts
v 9.2 3.6 2
v 9.2 3.6 -2
v 9.2 3.7 1.9
v 9.2 3.7 -1.9
v 9.2 4 1.9
v 9.2 4 -1.9
v 9.2 4.1 2
v 9.2 4.1 -2
v 10.7 4 2
v 10.7 4 1.9
v 10.7 4 -1.9
v 10.7 4 -2
v 10.7 4.1 2
v 10.7 4.1 -2
v 12.2 4 2
v 12.2 4 1.9
v 12.2 4 -1.9
v 12.2 4 -2
v 12.2 4.1 2
v 12.2 4.1 -2
v 13.7 4 2
v 13.7 4 1.9
v 13.7 4 -1.9
v 13.7 4 -2
v 13.7 4.1 2
v 13.7 4.1 -2
v 15.1 4 2
v 15.1 4 1.9
v 15.1 4 -1.9
v 15.1 4 -2
v 15.1 4.1 2
v 15.1 4.1 -2
v 9.7 4 2
v 9.7 4 1.9
v 9.7 4 -1.9
v 9.7 4 -2
v 9.7 4.1 2
v 9.7 4.1 -2
v 11.2 4 2
v 11.2 4 1.9
v 11.2 4 -1.9
v 11.2 4 -2
v 11.2 4.1 2
v 11.2 4.1 -2
v 12.7 4 2
v 12.7 4 1.9
v 12.7 4 -1.9
v 12.7 4 -2
v 12.7 4.1 2
v 12.7 4.1 -2
v 14.1 4 2
v 14.1 4 1.9
v 14.1 4 -1.9
v 14.1 4 -2
v 14.1 4.1 2
v 14.1 4.1 -2
v 15.5 3.6 2
v 15.5 3.6 -2
v 15.5 3.7 1.9
v 15.5 3.7 -1.9
v 15.5 4 1.9
v 15.5 4 -1.9
v 15.5 4.1 2
v 15.5 4.1 -2
v 9.2 3.6 2
v 9.2 4.1 2
v 9.7 4 2
v 9.7 4.1 2
v 10.7 4 2
v 10.7 4.1 2
v 11.2 4 2
v 11.2 4.1 2
v 12.2 4 2
v 12.2 4.1 2
v 12.7 4 2
v 12.7 4.1 2
v 13.7 4 2
v 13.7 4.1 2
v 14.1 4 2
v 14.1 4.1 2
v 15.1 4 2
v 15.1 4.1 2
v 15.5 3.6 2
v 15.5 4.1 2
v 9.2 3.6 -2
v 9.2 4.1 -2
v 9.7 4 -2
v 9.7 4.1 -2
v 10.7 4 -2
v 10.7 4.1 -2
v 11.2 4 -2
v 11.2 4.1 -2
v 12.2 4 -2
v 12.2 4.1 -2
v 12.7 4 -2
v 12.7 4.1 -2
v 13.7 4 -2
v 13.7 4.1 -2
v 14.1 4 -2
v 14.1 4.1 -2
v 15.1 4 -2
v 15.1 4.1 -2
v 15.5 3.6 -2
v 15.5 4.1 -2
v 9.2 3.6 2
v 15.5 3.6 2
v 9.2 3.6 -2
v 15.5 3.6 -2
v 9.7 4 2
v 10.7 4 2
v 11.2 4 2
v 12.2 4 2
v 12.7 4 2
v 13.7 4 2
v 14.1 4 2
v 15.1 4 2
v 9.7 4 1.9
v 10.7 4 1.9
v 11.2 4 1.9
v 12.2 4 1.9
v 12.7 4 1.9
v 13.7 4 1.9
v 14.1 4 1.9
v 15.1 4 1.9
v 9.7 4 -1.9
v 10.7 4 -1.9
v 11.2 4 -1.9
v 12.2 4 -1.9
v 12.7 4 -1.9
v 13.7 4 -1.9
v 14.1 4 -1.9
v 15.1 4 -1.9
v 9.7 4 -2
v 10.7 4 -2
v 11.2 4 -2
v 12.2 4 -2
v 12.7 4 -2
v 13.7 4 -2
v 14.1 4 -2
v 15.1 4 -2
v 9.2 4.1 2
v 9.7 4.1 2
v 10.7 4.1 2
v 11.2 4.1 2
v 12.2 4.1 2
v 12.7 4.1 2
v 13.7 4.1 2
v 14.1 4.1 2
v 15.1 4.1 2
v 15.5 4.1 2
v 9.2 4.1 -2
v 9.7 4.1 -2
v 10.7 4.1 -2
v 11.2 4.1 -2
v 12.2 4.1 -2
v 12.7 4.1 -2
v 13.7 4.1 -2
v 14.1 4.1 -2
v 15.1 4.1 -2
v 15.5 4.1 -2

# faces
f 3/2/1 2/2/1 1/2/1
f 4/2/1 2/2/1 3/2/1
f 5/2/1 3/2/1 1/2/1
f 5/1/1 4/1/1 3/1/1
f 6/2/1 2/2/1 4/2/1
f 6/1/1 4/1/1 5/1/1
f 7/2/1 5/2/1 1/2/1
f 7/2/1 6/2/1 5/2/1
f 8/2/1 2/2/1 6/2/1
f 8/2/1 6/2/1 7/2/1
f 13/2/1 10/2/1 9/2/1
f 13/2/1 12/2/1 11/2/1
f 13/2/1 11/2/1 10/2/1
f 14/2/1 12/2/1 13/2/1
f 19/2/1 16/2/1 15/2/1
f 19/2/1 18/2/1 17/2/1
f 19/2/1 17/2/1 16/2/1
f 20/2/1 18/2/1 19/2/1
f 25/2/1 22/2/1 21/2/1
f 25/2/1 24/2/1 23/2/1
f 25/2/1 23/2/1 22/2/1
f 26/2/1 24/2/1 25/2/1
f 31/2/1 28/2/1 27/2/1
f 31/2/1 30/2/1 29/2/1
f 31/2/1 29/2/1 28/2/1
f 32/2/1 30/2/1 31/2/1
f 33/2/2 34/2/2 37/2/2
f 35/2/2 36/2/2 37/2/2
f 34/2/2 35/2/2 37/2/2
f 37/2/2 36/2/2 38/2/2
f 39/2/2 40/2/2 43/2/2
f 41/2/2 42/2/2 43/2/2
f 40/2/2 41/2/2 43/2/2
f 43/2/2 42/2/2 44/2/2
f 45/2/2 46/2/2 49/2/2
f 47/2/2 48/2/2 49/2/2
f 46/2/2 47/2/2 49/2/2
f 49/2/2 48/2/2 50/2/2
f 51/2/2 52/2/2 55/2/2
f 53/2/2 54/2/2 55/2/2
f 52/2/2 53/2/2 55/2/2
f 55/2/2 54/2/2 56/2/2
f 57/2/2 58/2/2 59/2/2
f 59/2/2 58/2/2 60/2/2
f 57/2/2 59/2/2 61/2/2
f 59/1/2 60/1/2 61/1/2
f 60/2/2 58/2/2 62/2/2
f 61/1/2 60/1/2 62/1/2
f 57/2/2 61/2/2 63/2/2
f 61/2/2 62/2/2 63/2/2
f 62/2/2 58/2/2 64/2/2
f 63/2/2 62/2/2 64/2/2
f 67/2/3 66/2/3 65/2/3
f 68/2/3 66/2/3 67/2/3
f 69/2/3 67/2/3 65/2/3
f 71/2/3 69/2/3 65/2/3
f 71/2/3 70/2/3 69/2/3
f 72/2/3 70/2/3 71/2/3
f 73/2/3 71/2/3 65/2/3
f 75/2/3 73/2/3 65/2/3
f 75/2/3 74/2/3 73/2/3
f 76/2/3 74/2/3 75/2/3
f 77/2/3 75/2/3 65/2/3
f 79/2/3 77/2/3 65/2/3
f 79/2/3 78/2/3 77/2/3
f 80/2/3 78/2/3 79/2/3
f 81/2/3 79/2/3 65/2/3
f 83/2/3 81/2/3 65/2/3
f 83/2/3 82/2/3 81/2/3
f 84/2/3 82/2/3 83/2/3
f 85/2/4 86/2/4 87/2/4
f 87/2/4 86/2/4 88/2/4
f 85/2/4 87/2/4 89/2/4
f 85/2/4 89/2/4 91/2/4
f 89/2/4 90/2/4 91/2/4
f 91/2/4 90/2/4 92/2/4
f 85/2/4 91/2/4 93/2/4
f 85/2/4 93/2/4 95/2/4
f 93/2/4 94/2/4 95/2/4
f 95/2/4 94/2/4 96/2/4
f 85/2/4 95/2/4 97/2/4
f 85/2/4 97/2/4 99/2/4
f 97/2/4 98/2/4 99/2/4
f 99/2/4 98/2/4 100/2/4
f 85/2/4 99/2/4 101/2/4
f 85/2/4 101/2/4 103/2/4
f 101/2/4 102/2/4 103/2/4
f 103/2/4 102/2/4 104/2/4
f 107/2/5 106/2/5 105/2/5
f 108/2/5 106/2/5 107/2/5
f 109/2/6 110/2/6 117/2/6
f 117/2/6 110/2/6 118/2/6
f 111/2/6 112/2/6 119/2/6
f 119/2/6 112/2/6 120/2/6
f 113/2/6 114/2/6 121/2/6
f 121/2/6 114/2/6 122/2/6
f 115/2/6 116/2/6 123/2/6
f 123/2/6 116/2/6 124/2/6
f 117/1/6 118/1/6 125/1/6
f 125/1/6 118/1/6 126/1/6
f 119/1/6 120/1/6 127/1/6
f 127/1/6 120/1/6 128/1/6
f 121/1/6 122/1/6 129/1/6
f 129/1/6 122/1/6 130/1/6
f 123/1/6 124/1/6 131/1/6
f 131/1/6 124/1/6 132/1/6
f 125/2/6 126/2/6 133/2/6
f 133/2/6 126/2/6 134/2/6
f 127/2/6 128/2/6 135/2/6
f 135/2/6 128/2/6 136/2/6
f 129/2/6 130/2/6 137/2/6
f 137/2/6 130/2/6 138/2/6
f 131/2/6 132/2/6 139/2/6
f 139/2/6 132/2/6 140/2/6
f 141/2/6 142/2/6 151/2/6
f 151/2/6 142/2/6 152/2/6
f 143/2/6 144/2/6 153/2/6
f 153/2/6 144/2/6 154/2/6
f 145/2/6 146/2/6 155/2/6
f 155/2/6 146/2/6 156/2/6
f 147/2/6 148/2/6 157/2/6
f 157/2/6 148/2/6 158/2/6
f 149/2/6 150/2/6 159/2/6
f 159/2/6 150/2/6 160/2/6
