# MagicaVoxel @ Ephtracy

# group
o 

# material
mtllib golem-4.mtl
usemtl palette

# normals
vn -1 0 0
vn 1 0 0
vn 0 0 1
vn 0 0 -1
vn 0 -1 0
vn 0 1 0

# texcoords
vt 0.841797 0.5
vt 0.986328 0.5

# verts
v -0.6 -1.5 0
v -0.6 -1.5 -0.2
v -0.6 -1.4 0.1
v -0.6 -1.4 0
v -0.6 -1.4 -0.2
v -0.6 -1.4 -0.3
v -0.6 -1.3 0.2
v -0.6 -1.3 0.1
v -0.6 -1.3 -0.1
v -0.6 -1.3 -0.3
v -0.6 -1.2 0
v -0.6 -1.2 -0.1
v -0.6 -1.2 -0.2
v -0.6 -1.2 -0.3
v -0.6 -1.1 0.1
v -0.6 -1.1 0
v -0.6 -1.1 -0.1
v -0.6 -1.1 -0.2
v -0.6 -1 0
v -0.6 -1 -0.1
v -0.6 -0.7 0.2
v -0.6 -0.7 0.1
v -0.6 -0.6 0.1
v -0.6 -0.6 0
v -0.6 -0.5 0.2
v -0.6 -0.5 0.1
v -0.6 -0.2 0.2
v -0.6 -0.2 -0.3
v -0.5 -1.8 0
v -0.5 -1.8 -0.2
v -0.5 -1.7 -0.2
v -0.5 -1.7 -0.3
v -0.5 -1.6 0.1
v -0.5 -1.6 0
v -0.5 -1.5 0.2
v -0.5 -1.5 0.1
v -0.5 -1.5 0
v -0.5 -1.5 -0.2
v -0.5 -1.5 -0.3
v -0.5 -1.5 -0.4
v -0.5 -1.4 0.3
v -0.5 -1.4 0.2
v -0.5 -1.4 0.1
v -0.5 -1.4 0
v -0.5 -1.4 -0.2
v -0.5 -1.4 -0.3
v -0.5 -1.3 0.2
v -0.5 -1.3 0.1
v -0.5 -1.3 -0.1
v -0.5 -1.3 -0.2
v -0.5 -1.3 -0.3
v -0.5 -1.2 0
v -0.5 -1.2 -0.1
v -0.5 -1.2 -0.2
v -0.5 -1.2 -0.3
v -0.5 -1.1 0.1
v -0.5 -1.1 0
v -0.5 -1.1 -0.1
v -0.5 -1.1 -0.2
v -0.5 -1 0
v -0.5 -1 -0.1
v -0.5 -0.7 0.2
v -0.5 -0.7 0.1
v -0.5 -0.6 0.3
v -0.5 -0.6 0.2
v -0.5 -0.6 0.1
v -0.5 -0.6 0
v -0.5 -0.5 0.3
v -0.5 -0.5 0.2
v -0.5 -0.2 0.2
v -0.5 -0.2 -0.3
v -0.5 -0.1 0.3
v -0.5 -0.1 -0.4
v -0.4 -1.6 -0.3
v -0.4 -1.6 -0.4
v -0.4 -1.5 -0.3
v -0.4 -1.5 -0.4
v -0.4 -1.3 0.4
v -0.4 -1.3 0.3
v -0.4 -1.3 -0.2
v -0.4 -1.3 -0.3
v -0.4 -1.2 -0.2
v -0.4 -1.2 -0.3
v -0.4 -0.7 0.2
v -0.4 -0.7 0.1
v -0.4 -0.6 0.4
v -0.4 -0.6 0.3
v -0.4 -0.6 0.2
v -0.4 -0.6 0.1
v -0.4 -0.5 0.4
v -0.4 -0.5 0.3
v -0.4 -0.5 0.2
v -0.4 -0.5 0.1
v -0.4 -0.2 0.4
v -0.4 -0.2 0.3
v -0.4 -0.1 0.3
v -0.4 -0.1 -0.3
v -0.4 -1.19209e-07 0.3
v -0.4 -1.19209e-07 -0.3
v -0.3 -0.6 0.3
v -0.3 -0.6 0.2
v -0.3 -0.5 0.3
v -0.3 -0.5 0.2
v -0.3 -0.2 0.4
v -0.3 -0.2 0.3
v -0.3 -0.1 0.4
v -0.3 -0.1 0.3
v -0.3 -1.19209e-07 0.2
v -0.3 -1.19209e-07 -0.2
v -0.3 0.2 0.2
v -0.3 0.2 -0.2
v -0.1 -1.6 -0.3
v -0.1 -1.6 -0.4
v -0.1 -1.5 -0.3
v -0.1 -1.5 -0.4
v -0.1 -0.6 0.3
v -0.1 -0.6 0.2
v -0.1 -0.5 0.3
v -0.1 -0.5 0.2
v -5.96046e-08 -1.7 -0.1
v -5.96046e-08 -1.7 -0.2
v -5.96046e-08 -1.7 -0.3
v -5.96046e-08 -1.6 0
v -5.96046e-08 -1.6 -0.1
v -5.96046e-08 -1.6 -0.2
v -5.96046e-08 -1.6 -0.3
v -5.96046e-08 -1.5 -0.1
v -5.96046e-08 -1.5 -0.2
v -5.96046e-08 -1.3 0.4
v -5.96046e-08 -1.3 0.3
v -5.96046e-08 -1.3 0
v -5.96046e-08 -1.3 -0.1
v -5.96046e-08 -0.6 0.4
v -5.96046e-08 -0.6 0.3
v -5.96046e-08 -0.6 0.2
v -5.96046e-08 -0.6 0.1
v -5.96046e-08 -0.5 0.4
v -5.96046e-08 -0.5 0.3
v -5.96046e-08 -0.5 0.2
v -5.96046e-08 -0.5 0.1
v -5.96046e-08 -0.1 0.4
v -5.96046e-08 -0.1 0.3
v -5.96046e-08 -1.19209e-07 0.2
v -5.96046e-08 -1.19209e-07 -0.2
v -5.96046e-08 0.2 0.2
v -5.96046e-08 0.2 -0.2
v 0.1 -1.8 0
v 0.1 -1.8 -0.2
v 0.1 -1.7 -0.1
v 0.1 -1.7 -0.2
v 0.1 -1.6 0.1
v 0.1 -1.6 0
v 0.1 -1.6 -0.1
v 0.1 -1.6 -0.2
v 0.1 -1.6 -0.3
v 0.1 -1.5 0.2
v 0.1 -1.5 0.1
v 0.1 -1.5 -0.2
v 0.1 -1.5 -0.3
v 0.1 -1.5 -0.4
v 0.1 -1.4 0.3
v 0.1 -1.4 0.2
v 0.1 -1.4 0.1
v 0.1 -1.4 0
v 0.1 -1.4 -0.2
v 0.1 -1.4 -0.3
v 0.1 -1.3 0
v 0.1 -1.3 -0.1
v 0.1 -1.2 0.2
v 0.1 -1.2 0.1
v 0.1 -0.9 0.1
v 0.1 -0.9 0
v 0.1 -0.8 0
v 0.1 -0.8 -0.1
v 0.1 -0.6 0.3
v 0.1 -0.6 0.2
v 0.1 -0.6 0.1
v 0.1 -0.6 0
v 0.1 -0.6 -0.1
v 0.1 -0.5 0.3
v 0.1 -0.5 0.2
v 0.1 -0.5 0.1
v 0.1 -0.5 0
v 0.1 -0.2 0.2
v 0.1 -0.2 0.1
v 0.1 -0.2 0
v 0.1 -0.2 -0.1
v 0.1 -0.2 -0.2
v 0.1 -0.2 -0.3
v 0.1 -0.1 0.1
v 0.1 -0.1 -0.2
v 0.1 -0.1 -0.3
v 0.1 -0.1 -0.4
v 0.1 -1.19209e-07 0.3
v 0.1 -1.19209e-07 -0.3
v 0.2 -1.5 -0.1
v 0.2 -1.5 -0.2
v 0.2 -1.4 0.1
v 0.2 -1.4 0
v 0.2 -1.4 -0.2
v 0.2 -1.4 -0.3
v 0.2 -1.2 0.2
v 0.2 -1.2 0.1
v 0.2 -0.9 0.1
v 0.2 -0.9 0
v 0.2 -0.8 0
v 0.2 -0.8 -0.1
v 0.2 -0.6 0.2
v 0.2 -0.6 0.1
v 0.2 -0.6 0
v 0.2 -0.6 -0.1
v 0.2 -0.5 0.2
v 0.2 -0.5 0
v 0.2 -0.2 0.2
v 0.2 -0.2 0.1
v 0.2 -0.2 0
v 0.2 -0.2 -0.1
v 0.2 -0.2 -0.2
v 0.2 -0.2 -0.3
v 0.2 -0.1 0.1
v 0.2 -0.1 -0.2
v -0.4 -1.3 0.4
v -0.4 -0.6 0.4
v -0.4 -0.5 0.4
v -0.4 -0.2 0.4
v -0.3 -0.2 0.4
v -0.3 -0.1 0.4
v -5.96046e-08 -1.3 0.4
v -5.96046e-08 -0.6 0.4
v -5.96046e-08 -0.5 0.4
v -5.96046e-08 -0.1 0.4
v -0.5 -1.4 0.3
v -0.5 -0.6 0.3
v -0.5 -0.5 0.3
v -0.5 -0.1 0.3
v -0.4 -1.3 0.3
v -0.4 -0.6 0.3
v -0.4 -0.5 0.3
v -0.4 -0.2 0.3
v -0.4 -0.1 0.3
v -0.4 -1.19209e-07 0.3
v -0.3 -0.6 0.3
v -0.3 -0.5 0.3
v -0.3 -0.2 0.3
v -0.3 -0.1 0.3
v -0.1 -0.6 0.3
v -0.1 -0.5 0.3
v -5.96046e-08 -1.3 0.3
v -5.96046e-08 -0.6 0.3
v -5.96046e-08 -0.5 0.3
v -5.96046e-08 -0.1 0.3
v 0.1 -1.4 0.3
v 0.1 -0.6 0.3
v 0.1 -0.5 0.3
v 0.1 -1.19209e-07 0.3
v -0.6 -1.3 0.2
v -0.6 -0.7 0.2
v -0.6 -0.5 0.2
v -0.6 -0.2 0.2
v -0.5 -1.5 0.2
v -0.5 -1.4 0.2
v -0.5 -1.3 0.2
v -0.5 -0.7 0.2
v -0.5 -0.5 0.2
v -0.5 -0.2 0.2
v -0.4 -0.6 0.2
v -0.4 -0.5 0.2
v -0.3 -0.6 0.2
v -0.3 -0.5 0.2
v -0.3 -1.19209e-07 0.2
v -0.3 0.2 0.2
v -0.1 -0.6 0.2
v -0.1 -0.5 0.2
v -5.96046e-08 -0.6 0.2
v -5.96046e-08 -0.5 0.2
v -5.96046e-08 -1.19209e-07 0.2
v -5.96046e-08 0.2 0.2
v 0.1 -1.5 0.2
v 0.1 -1.4 0.2
v 0.1 -1.2 0.2
v 0.1 -0.6 0.2
v 0.1 -0.5 0.2
v 0.1 -0.2 0.2
v 0.2 -1.2 0.2
v 0.2 -0.6 0.2
v 0.2 -0.5 0.2
v 0.2 -0.2 0.2
v -0.6 -1.4 0.1
v -0.6 -1.3 0.1
v -0.6 -0.6 0.1
v -0.6 -0.5 0.1
v -0.5 -1.6 0.1
v -0.5 -1.5 0.1
v -0.5 -1.4 0.1
v -0.5 -1.3 0.1
v -0.5 -0.7 0.1
v -0.5 -0.6 0.1
v -0.4 -0.7 0.1
v -0.4 -0.6 0.1
v -0.4 -0.5 0.1
v -5.96046e-08 -0.6 0.1
v -5.96046e-08 -0.5 0.1
v 0.1 -1.6 0.1
v 0.1 -1.5 0.1
v 0.1 -1.4 0.1
v 0.1 -1.2 0.1
v 0.1 -0.6 0.1
v 0.1 -0.5 0.1
v 0.1 -0.2 0.1
v 0.1 -0.1 0.1
v 0.2 -1.4 0.1
v 0.2 -1.2 0.1
v 0.2 -0.2 0.1
v 0.2 -0.1 0.1
v -0.6 -1.5 0
v -0.6 -1.4 0
v -0.6 -1 0
v -0.6 -0.6 0
v -0.5 -1.8 0
v -0.5 -1.6 0
v -0.5 -1.5 0
v -0.5 -1.4 0
v -0.5 -1 0
v -0.5 -0.6 0
v 0.1 -1.8 0
v 0.1 -1.6 0
v 0.1 -0.8 0
v 0.1 -0.6 0
v 0.2 -0.8 0
v 0.2 -0.6 0
v -0.6 -1.1 -0.1
v -0.6 -1 -0.1
v -0.5 -1.1 -0.1
v -0.5 -1 -0.1
v -5.96046e-08 -1.5 -0.1
v -5.96046e-08 -1.3 -0.1
v 0.1 -1.3 -0.1
v 0.1 -0.8 -0.1
v 0.1 -0.6 -0.1
v 0.1 -0.2 -0.1
v 0.2 -1.5 -0.1
v 0.2 -0.8 -0.1
v 0.2 -0.6 -0.1
v 0.2 -0.2 -0.1
v -0.6 -1.2 -0.2
v -0.6 -1.1 -0.2
v -0.5 -1.2 -0.2
v -0.5 -1.1 -0.2
v -5.96046e-08 -1.6 -0.2
v -5.96046e-08 -1.5 -0.2
v 0.1 -1.6 -0.2
v 0.1 -1.5 -0.2
v -0.5 -1.3 -0.3
v -0.5 -1.2 -0.3
v -0.4 -1.3 -0.3
v -0.4 -1.2 -0.3
v -0.5 -0.7 0.2
v -0.5 -0.6 0.2
v -0.4 -0.7 0.2
v -0.4 -0.6 0.2
v -0.6 -1.1 0.1
v -0.6 -0.7 0.1
v -0.5 -1.1 0.1
v -0.5 -0.7 0.1
v 0.1 -0.9 0.1
v 0.1 -0.6 0.1
v 0.2 -0.9 0.1
v 0.2 -0.6 0.1
v -0.6 -1.2 0
v -0.6 -1.1 0
v -0.5 -1.2 0
v -0.5 -1.1 0
v -5.96046e-08 -1.6 0
v -5.96046e-08 -1.3 0
v 0.1 -1.6 0
v 0.1 -1.4 0
v 0.1 -1.3 0
v 0.1 -0.9 0
v 0.1 -0.5 0
v 0.1 -0.2 0
v 0.2 -1.4 0
v 0.2 -0.9 0
v 0.2 -0.5 0
v 0.2 -0.2 0
v -0.6 -1.3 -0.1
v -0.6 -1.2 -0.1
v -0.5 -1.3 -0.1
v -0.5 -1.2 -0.1
v -5.96046e-08 -1.7 -0.1
v -5.96046e-08 -1.6 -0.1
v 0.1 -1.7 -0.1
v 0.1 -1.6 -0.1
v -0.6 -1.5 -0.2
v -0.6 -1.4 -0.2
v -0.5 -1.8 -0.2
v -0.5 -1.7 -0.2
v -0.5 -1.5 -0.2
v -0.5 -1.4 -0.2
v -0.5 -1.3 -0.2
v -0.5 -1.2 -0.2
v -0.4 -1.3 -0.2
v -0.4 -1.2 -0.2
v -0.3 -1.19209e-07 -0.2
v -0.3 0.2 -0.2
v -5.96046e-08 -1.7 -0.2
v -5.96046e-08 -1.19209e-07 -0.2
v -5.96046e-08 0.2 -0.2
v 0.1 -1.8 -0.2
v 0.1 -1.7 -0.2
v 0.1 -1.5 -0.2
v 0.1 -1.4 -0.2
v 0.1 -0.2 -0.2
v 0.1 -0.1 -0.2
v 0.2 -1.5 -0.2
v 0.2 -1.4 -0.2
v 0.2 -0.2 -0.2
v 0.2 -0.1 -0.2
v -0.6 -1.4 -0.3
v -0.6 -1.3 -0.3
v -0.6 -1.2 -0.3
v -0.6 -0.2 -0.3
v -0.5 -1.7 -0.3
v -0.5 -1.5 -0.3
v -0.5 -1.4 -0.3
v -0.5 -1.3 -0.3
v -0.5 -1.2 -0.3
v -0.5 -0.2 -0.3
v -0.4 -1.6 -0.3
v -0.4 -1.5 -0.3
v -0.4 -0.1 -0.3
v -0.4 -1.19209e-07 -0.3
v -0.1 -1.6 -0.3
v -0.1 -1.5 -0.3
v -5.96046e-08 -1.7 -0.3
v -5.96046e-08 -1.6 -0.3
v 0.1 -1.6 -0.3
v 0.1 -1.5 -0.3
v 0.1 -1.4 -0.3
v 0.1 -0.2 -0.3
v 0.1 -0.1 -0.3
v 0.1 -1.19209e-07 -0.3
v 0.2 -1.4 -0.3
v 0.2 -0.2 -0.3
v -0.5 -1.5 -0.4
v -0.5 -0.1 -0.4
v -0.4 -1.6 -0.4
v -0.4 -1.5 -0.4
v -0.1 -1.6 -0.4
v -0.1 -1.5 -0.4
v 0.1 -1.5 -0.4
v 0.1 -0.1 -0.4
v -0.5 -1.8 0
v 0.1 -1.8 0
v -0.5 -1.8 -0.2
v 0.1 -1.8 -0.2
v -0.5 -1.7 -0.2
v -5.96046e-08 -1.7 -0.2
v -0.5 -1.7 -0.3
v -5.96046e-08 -1.7 -0.3
v -0.5 -1.6 0.1
v 0.1 -1.6 0.1
v -0.5 -1.6 0
v 0.1 -1.6 0
v -5.96046e-08 -1.6 -0.2
v 0.1 -1.6 -0.2
v -0.4 -1.6 -0.3
v -0.1 -1.6 -0.3
v -5.96046e-08 -1.6 -0.3
v 0.1 -1.6 -0.3
v -0.4 -1.6 -0.4
v -0.1 -1.6 -0.4
v -0.5 -1.5 0.2
v 0.1 -1.5 0.2
v -0.5 -1.5 0.1
v 0.1 -1.5 0.1
v -0.6 -1.5 0
v -0.5 -1.5 0
v -5.96046e-08 -1.5 -0.1
v 0.2 -1.5 -0.1
v -0.6 -1.5 -0.2
v -0.5 -1.5 -0.2
v -5.96046e-08 -1.5 -0.2
v 0.1 -1.5 -0.2
v 0.2 -1.5 -0.2
v -0.5 -1.5 -0.3
v -0.4 -1.5 -0.3
v -0.1 -1.5 -0.3
v 0.1 -1.5 -0.3
v -0.5 -1.5 -0.4
v -0.4 -1.5 -0.4
v -0.1 -1.5 -0.4
v 0.1 -1.5 -0.4
v -0.5 -1.4 0.3
v 0.1 -1.4 0.3
v -0.5 -1.4 0.2
v 0.1 -1.4 0.2
v -0.6 -1.4 0.1
v -0.5 -1.4 0.1
v 0.1 -1.4 0.1
v 0.2 -1.4 0.1
v -0.6 -1.4 0
v -0.5 -1.4 0
v 0.1 -1.4 0
v 0.2 -1.4 0
v -0.6 -1.4 -0.2
v -0.5 -1.4 -0.2
v 0.1 -1.4 -0.2
v 0.2 -1.4 -0.2
v -0.6 -1.4 -0.3
v -0.5 -1.4 -0.3
v 0.1 -1.4 -0.3
v 0.2 -1.4 -0.3
v -0.4 -1.3 0.4
v -5.96046e-08 -1.3 0.4
v -0.4 -1.3 0.3
v -5.96046e-08 -1.3 0.3
v -0.6 -1.3 0.2
v -0.5 -1.3 0.2
v -0.6 -1.3 0.1
v -0.5 -1.3 0.1
v -5.96046e-08 -1.3 0
v 0.1 -1.3 0
v -5.96046e-08 -1.3 -0.1
v 0.1 -1.3 -0.1
v 0.1 -1.2 0.2
v 0.2 -1.2 0.2
v 0.1 -1.2 0.1
v 0.2 -1.2 0.1
v -0.6 -1.2 -0.2
v -0.5 -1.2 -0.2
v -0.4 -1.2 -0.2
v -0.6 -1.2 -0.3
v -0.5 -1.2 -0.3
v -0.4 -1.2 -0.3
v -0.6 -1.1 -0.1
v -0.5 -1.1 -0.1
v -0.6 -1.1 -0.2
v -0.5 -1.1 -0.2
v -0.6 -1 0
v -0.5 -1 0
v -0.6 -1 -0.1
v -0.5 -1 -0.1
v 0.1 -0.8 0
v 0.2 -0.8 0
v 0.1 -0.8 -0.1
v 0.2 -0.8 -0.1
v -0.6 -0.6 0.1
v -0.5 -0.6 0.1
v -0.6 -0.6 0
v -0.5 -0.6 0
v -0.4 -0.5 0.4
v -5.96046e-08 -0.5 0.4
v -0.5 -0.5 0.3
v -0.4 -0.5 0.3
v -0.3 -0.5 0.3
v -0.1 -0.5 0.3
v -5.96046e-08 -0.5 0.3
v 0.1 -0.5 0.3
v -0.6 -0.5 0.2
v -0.5 -0.5 0.2
v -0.4 -0.5 0.2
v -0.3 -0.5 0.2
v -0.1 -0.5 0.2
v -5.96046e-08 -0.5 0.2
v 0.1 -0.5 0.2
v 0.2 -0.5 0.2
v -0.6 -0.5 0.1
v -0.4 -0.5 0.1
v -5.96046e-08 -0.5 0.1
v 0.1 -0.5 0.1
v 0.1 -0.5 0
v 0.2 -0.5 0
v 0.1 -0.2 0
v 0.2 -0.2 0
v 0.1 -0.2 -0.1
v 0.2 -0.2 -0.1
v -5.96046e-08 -1.7 -0.1
v 0.1 -1.7 -0.1
v -5.96046e-08 -1.7 -0.2
v 0.1 -1.7 -0.2
v -5.96046e-08 -1.6 0
v 0.1 -1.6 0
v -5.96046e-08 -1.6 -0.1
v 0.1 -1.6 -0.1
v -0.6 -1.3 -0.1
v -0.5 -1.3 -0.1
v -0.5 -1.3 -0.2
v -0.4 -1.3 -0.2
v -0.6 -1.3 -0.3
v -0.5 -1.3 -0.3
v -0.4 -1.3 -0.3
v -0.6 -1.2 0
v -0.5 -1.2 0
v -0.6 -1.2 -0.1
v -0.5 -1.2 -0.1
v -0.6 -1.1 0.1
v -0.5 -1.1 0.1
v -0.6 -1.1 0
v -0.5 -1.1 0
v 0.1 -0.9 0.1
v 0.2 -0.9 0.1
v 0.1 -0.9 0
v 0.2 -0.9 0
v -0.6 -0.7 0.2
v -0.5 -0.7 0.2
v -0.4 -0.7 0.2
v -0.6 -0.7 0.1
v -0.5 -0.7 0.1
v -0.4 -0.7 0.1
v -0.4 -0.6 0.4
v -5.96046e-08 -0.6 0.4
v -0.5 -0.6 0.3
v -0.4 -0.6 0.3
v -0.3 -0.6 0.3
v -0.1 -0.6 0.3
v -5.96046e-08 -0.6 0.3
v 0.1 -0.6 0.3
v -0.5 -0.6 0.2
v -0.4 -0.6 0.2
v -0.3 -0.6 0.2
v -0.1 -0.6 0.2
v -5.96046e-08 -0.6 0.2
v 0.1 -0.6 0.2
v 0.2 -0.6 0.2
v -5.96046e-08 -0.6 0.1
v 0.1 -0.6 0.1
v 0.2 -0.6 0.1
v 0.1 -0.6 0
v 0.2 -0.6 0
v 0.1 -0.6 -0.1
v 0.2 -0.6 -0.1
v -0.4 -0.2 0.4
v -0.3 -0.2 0.4
v -0.4 -0.2 0.3
v -0.3 -0.2 0.3
v -0.6 -0.2 0.2
v -0.5 -0.2 0.2
v 0.1 -0.2 0.2
v 0.2 -0.2 0.2
v 0.1 -0.2 0.1
v 0.2 -0.2 0.1
v 0.1 -0.2 -0.2
v 0.2 -0.2 -0.2
v -0.6 -0.2 -0.3
v -0.5 -0.2 -0.3
v 0.1 -0.2 -0.3
v 0.2 -0.2 -0.3
v -0.3 -0.1 0.4
v -5.96046e-08 -0.1 0.4
v -0.5 -0.1 0.3
v -0.4 -0.1 0.3
v -0.3 -0.1 0.3
v -5.96046e-08 -0.1 0.3
v 0.1 -0.1 0.1
v 0.2 -0.1 0.1
v 0.1 -0.1 -0.2
v 0.2 -0.1 -0.2
v -0.4 -0.1 -0.3
v 0.1 -0.1 -0.3
v -0.5 -0.1 -0.4
v 0.1 -0.1 -0.4
v -0.4 -1.19209e-07 0.3
v 0.1 -1.19209e-07 0.3
v -0.3 -1.19209e-07 0.2
v -5.96046e-08 -1.19209e-07 0.2
v -0.3 -1.19209e-07 -0.2
v -5.96046e-08 -1.19209e-07 -0.2
v -0.4 -1.19209e-07 -0.3
v 0.1 -1.19209e-07 -0.3
v -0.3 0.2 0.2
v -5.96046e-08 0.2 0.2
v -0.3 0.2 -0.2
v -5.96046e-08 0.2 -0.2

# faces
f 4/2/1 2/2/1 1/2/1
f 5/2/1 2/2/1 4/2/1
f 8/2/1 4/2/1 3/2/1
f 8/2/1 6/2/1 5/2/1
f 8/2/1 5/2/1 4/2/1
f 9/2/1 6/2/1 8/2/1
f 10/2/1 6/2/1 9/2/1
f 11/2/1 8/2/1 7/2/1
f 11/2/1 9/2/1 8/2/1
f 12/2/1 9/2/1 11/2/1
f 15/2/1 11/2/1 7/2/1
f 16/2/1 11/2/1 15/2/1
f 18/2/1 14/2/1 13/2/1
f 20/2/1 18/2/1 17/2/1
f 21/2/1 15/2/1 7/2/1
f 22/2/1 15/2/1 21/2/1
f 24/2/1 20/2/1 19/2/1
f 26/2/1 24/2/1 23/2/1
f 27/2/1 26/2/1 25/2/1
f 28/2/1 14/2/1 18/2/1
f 28/2/1 26/2/1 27/2/1
f 28/2/1 18/2/1 20/2/1
f 28/2/1 24/2/1 26/2/1
f 28/2/1 20/2/1 24/2/1
f 31/2/1 30/2/1 29/2/1
f 34/2/1 31/2/1 29/2/1
f 34/2/1 32/2/1 31/2/1
f 36/2/1 34/2/1 33/2/1
f 37/2/1 32/2/1 34/2/1
f 37/2/1 34/2/1 36/2/1
f 38/2/1 32/2/1 37/2/1
f 39/2/1 32/2/1 38/2/1
f 42/2/1 36/2/1 35/2/1
f 42/2/1 37/2/1 36/2/1
f 43/2/1 37/2/1 42/2/1
f 44/2/1 37/2/1 43/2/1
f 45/2/1 39/2/1 38/2/1
f 45/2/1 40/2/1 39/2/1
f 46/2/1 40/2/1 45/2/1
f 47/2/1 43/2/1 42/2/1
f 47/2/1 42/2/1 41/2/1
f 48/2/1 43/2/1 47/2/1
f 51/2/1 40/2/1 46/2/1
f 53/1/1 50/1/1 49/1/1
f 54/1/1 50/1/1 53/1/1
f 55/2/1 40/2/1 51/2/1
f 57/1/1 54/1/1 53/1/1
f 57/1/1 53/1/1 52/1/1
f 58/1/1 54/1/1 57/1/1
f 59/1/1 54/1/1 58/1/1
f 60/1/1 57/1/1 56/1/1
f 60/1/1 58/1/1 57/1/1
f 61/1/1 58/1/1 60/1/1
f 62/2/1 47/2/1 41/2/1
f 63/1/1 60/1/1 56/1/1
f 64/2/1 62/2/1 41/2/1
f 65/2/1 62/2/1 64/2/1
f 66/1/1 60/1/1 63/1/1
f 67/1/1 60/1/1 66/1/1
f 70/2/1 69/2/1 68/2/1
f 71/2/1 40/2/1 55/2/1
f 72/2/1 70/2/1 68/2/1
f 72/2/1 71/2/1 70/2/1
f 73/2/1 40/2/1 71/2/1
f 73/2/1 71/2/1 72/2/1
f 76/2/1 75/2/1 74/2/1
f 77/2/1 75/2/1 76/2/1
f 82/1/1 81/1/1 80/1/1
f 83/1/1 81/1/1 82/1/1
f 86/2/1 79/2/1 78/2/1
f 87/2/1 79/2/1 86/2/1
f 88/1/1 85/1/1 84/1/1
f 89/1/1 85/1/1 88/1/1
f 92/1/1 89/1/1 88/1/1
f 93/1/1 89/1/1 92/1/1
f 94/2/1 91/2/1 90/2/1
f 95/2/1 91/2/1 94/2/1
f 98/2/1 97/2/1 96/2/1
f 99/2/1 97/2/1 98/2/1
f 102/1/1 101/1/1 100/1/1
f 103/1/1 101/1/1 102/1/1
f 106/2/1 105/2/1 104/2/1
f 107/2/1 105/2/1 106/2/1
f 110/2/1 109/2/1 108/2/1
f 111/2/1 109/2/1 110/2/1
f 112/2/2 113/2/2 114/2/2
f 114/2/2 113/2/2 115/2/2
f 116/1/2 117/1/2 118/1/2
f 118/1/2 117/1/2 119/1/2
f 120/1/2 121/1/2 124/1/2
f 121/2/2 122/2/2 125/2/2
f 124/1/2 121/1/2 125/1/2
f 125/2/2 122/2/2 126/2/2
f 123/1/2 124/1/2 127/1/2
f 124/1/2 125/1/2 127/1/2
f 127/1/2 125/1/2 128/1/2
f 123/1/2 127/1/2 131/1/2
f 131/1/2 127/1/2 132/1/2
f 129/2/2 130/2/2 133/2/2
f 133/2/2 130/2/2 134/2/2
f 135/1/2 136/1/2 139/1/2
f 139/1/2 136/1/2 140/1/2
f 137/2/2 138/2/2 141/2/2
f 141/2/2 138/2/2 142/2/2
f 143/2/2 144/2/2 145/2/2
f 145/2/2 144/2/2 146/2/2
f 147/2/2 148/2/2 149/2/2
f 149/2/2 148/2/2 150/2/2
f 147/2/2 149/2/2 152/2/2
f 152/2/2 149/2/2 153/2/2
f 151/2/2 152/2/2 157/2/2
f 154/2/2 155/2/2 158/2/2
f 158/2/2 155/2/2 159/2/2
f 156/2/2 157/2/2 162/2/2
f 157/2/2 152/2/2 163/2/2
f 162/2/2 157/2/2 163/2/2
f 163/2/2 152/2/2 164/2/2
f 159/2/2 160/2/2 165/2/2
f 158/2/2 159/2/2 165/2/2
f 165/2/2 160/2/2 166/2/2
f 161/2/2 162/2/2 169/2/2
f 162/2/2 163/2/2 169/2/2
f 169/2/2 163/2/2 170/2/2
f 167/1/2 168/1/2 172/1/2
f 172/1/2 168/1/2 173/1/2
f 171/1/2 172/1/2 173/1/2
f 173/1/2 168/1/2 174/1/2
f 161/2/2 169/2/2 175/2/2
f 175/2/2 169/2/2 176/2/2
f 171/1/2 173/1/2 177/1/2
f 177/1/2 173/1/2 178/1/2
f 178/1/2 179/1/2 182/1/2
f 177/1/2 178/1/2 182/1/2
f 182/1/2 179/1/2 183/1/2
f 180/2/2 181/2/2 184/2/2
f 183/1/2 179/1/2 186/1/2
f 186/1/2 179/1/2 187/1/2
f 166/2/2 160/2/2 189/2/2
f 184/2/2 185/2/2 190/2/2
f 188/2/2 189/2/2 191/2/2
f 189/2/2 160/2/2 192/2/2
f 191/2/2 189/2/2 192/2/2
f 192/2/2 160/2/2 193/2/2
f 184/2/2 190/2/2 194/2/2
f 190/2/2 191/2/2 194/2/2
f 191/2/2 192/2/2 194/2/2
f 180/2/2 184/2/2 194/2/2
f 194/2/2 192/2/2 195/2/2
f 196/2/2 197/2/2 200/2/2
f 198/2/2 199/2/2 203/2/2
f 203/2/2 199/2/2 204/2/2
f 202/2/2 203/2/2 204/2/2
f 204/2/2 199/2/2 205/2/2
f 200/2/2 201/2/2 207/2/2
f 196/2/2 200/2/2 207/2/2
f 202/2/2 204/2/2 208/2/2
f 208/2/2 204/2/2 209/2/2
f 206/2/2 207/2/2 210/2/2
f 207/2/2 201/2/2 211/2/2
f 210/2/2 207/2/2 211/2/2
f 212/2/2 213/2/2 214/2/2
f 214/2/2 213/2/2 215/2/2
f 215/2/2 213/2/2 216/2/2
f 211/2/2 201/2/2 217/2/2
f 217/2/2 201/2/2 218/2/2
f 218/2/2 201/2/2 219/2/2
f 215/2/2 216/2/2 220/2/2
f 217/2/2 218/2/2 220/2/2
f 216/2/2 217/2/2 220/2/2
f 220/2/2 218/2/2 221/2/2
f 226/2/3 225/2/3 224/2/3
f 228/2/3 223/2/3 222/2/3
f 229/2/3 223/2/3 228/2/3
f 230/2/3 227/2/3 226/2/3
f 230/2/3 226/2/3 224/2/3
f 231/2/3 227/2/3 230/2/3
f 236/2/3 233/2/3 232/2/3
f 237/2/3 233/2/3 236/2/3
f 238/2/3 235/2/3 234/2/3
f 239/2/3 235/2/3 238/2/3
f 240/2/3 235/2/3 239/2/3
f 244/2/3 241/2/3 240/2/3
f 244/2/3 240/2/3 239/2/3
f 245/2/3 241/2/3 244/2/3
f 246/1/3 243/1/3 242/1/3
f 247/1/3 243/1/3 246/1/3
f 248/2/3 236/2/3 232/2/3
f 251/2/3 241/2/3 245/2/3
f 252/2/3 249/2/3 248/2/3
f 252/2/3 248/2/3 232/2/3
f 253/2/3 249/2/3 252/2/3
f 254/2/3 251/2/3 250/2/3
f 255/2/3 241/2/3 251/2/3
f 255/2/3 251/2/3 254/2/3
f 262/2/3 257/2/3 256/2/3
f 263/2/3 257/2/3 262/2/3
f 264/2/3 259/2/3 258/2/3
f 265/2/3 259/2/3 264/2/3
f 268/1/3 267/1/3 266/1/3
f 269/1/3 267/1/3 268/1/3
f 274/1/3 273/1/3 272/1/3
f 275/1/3 273/1/3 274/1/3
f 276/2/3 271/2/3 270/2/3
f 277/2/3 271/2/3 276/2/3
f 278/2/3 261/2/3 260/2/3
f 279/2/3 261/2/3 278/2/3
f 284/2/3 281/2/3 280/2/3
f 285/2/3 281/2/3 284/2/3
f 286/2/3 283/2/3 282/2/3
f 287/2/3 283/2/3 286/2/3
f 294/2/3 289/2/3 288/2/3
f 295/2/3 289/2/3 294/2/3
f 297/2/3 291/2/3 290/2/3
f 298/1/3 297/1/3 296/1/3
f 299/2/3 291/2/3 297/2/3
f 299/1/3 297/1/3 298/1/3
f 300/2/3 291/2/3 299/2/3
f 303/2/3 293/2/3 292/2/3
f 304/2/3 293/2/3 303/2/3
f 307/1/3 302/1/3 301/1/3
f 308/1/3 302/1/3 307/1/3
f 311/2/3 306/2/3 305/2/3
f 312/2/3 306/2/3 311/2/3
f 313/2/3 310/2/3 309/2/3
f 314/2/3 310/2/3 313/2/3
f 321/2/3 316/2/3 315/2/3
f 322/2/3 316/2/3 321/2/3
f 323/2/3 318/2/3 317/2/3
f 324/2/3 318/2/3 323/2/3
f 325/2/3 320/2/3 319/2/3
f 326/2/3 320/2/3 325/2/3
f 329/2/3 328/2/3 327/2/3
f 330/2/3 328/2/3 329/2/3
f 333/2/3 332/2/3 331/2/3
f 334/2/3 332/2/3 333/2/3
f 337/2/3 336/2/3 335/2/3
f 341/2/3 337/2/3 335/2/3
f 341/2/3 338/2/3 337/2/3
f 342/2/3 338/2/3 341/2/3
f 343/2/3 340/2/3 339/2/3
f 344/2/3 340/2/3 343/2/3
f 347/2/3 346/2/3 345/2/3
f 348/2/3 346/2/3 347/2/3
f 351/2/3 350/2/3 349/2/3
f 352/2/3 350/2/3 351/2/3
f 355/2/3 354/2/3 353/2/3
f 356/2/3 354/2/3 355/2/3
f 357/2/4 358/2/4 359/2/4
f 359/2/4 358/2/4 360/2/4
f 361/2/4 362/2/4 363/2/4
f 363/2/4 362/2/4 364/2/4
f 365/2/4 366/2/4 367/2/4
f 367/2/4 366/2/4 368/2/4
f 369/2/4 370/2/4 371/2/4
f 371/2/4 370/2/4 372/2/4
f 373/2/4 374/2/4 375/2/4
f 375/2/4 374/2/4 376/2/4
f 376/2/4 374/2/4 377/2/4
f 376/2/4 377/2/4 381/2/4
f 377/2/4 378/2/4 381/2/4
f 381/2/4 378/2/4 382/2/4
f 379/2/4 380/2/4 383/2/4
f 383/2/4 380/2/4 384/2/4
f 385/2/4 386/2/4 387/2/4
f 387/2/4 386/2/4 388/2/4
f 389/2/4 390/2/4 391/2/4
f 391/2/4 390/2/4 392/2/4
f 393/2/4 394/2/4 397/2/4
f 397/2/4 394/2/4 398/2/4
f 399/1/4 400/1/4 401/1/4
f 401/1/4 400/1/4 402/1/4
f 395/2/4 396/2/4 405/2/4
f 403/2/4 404/2/4 406/2/4
f 406/2/4 404/2/4 407/2/4
f 395/2/4 405/2/4 408/2/4
f 408/2/4 405/2/4 409/2/4
f 410/2/4 411/2/4 414/2/4
f 414/2/4 411/2/4 415/2/4
f 412/2/4 413/2/4 416/2/4
f 416/2/4 413/2/4 417/2/4
f 418/2/4 419/2/4 424/2/4
f 424/2/4 419/2/4 425/2/4
f 420/2/4 421/2/4 426/2/4
f 426/2/4 421/2/4 427/2/4
f 422/2/4 423/2/4 428/2/4
f 428/2/4 423/2/4 429/2/4
f 422/2/4 428/2/4 432/2/4
f 422/2/4 432/2/4 434/2/4
f 432/2/4 433/2/4 434/2/4
f 434/2/4 433/2/4 435/2/4
f 435/2/4 433/2/4 436/2/4
f 436/2/4 433/2/4 437/2/4
f 430/2/4 431/2/4 440/2/4
f 440/2/4 431/2/4 441/2/4
f 438/2/4 439/2/4 442/2/4
f 442/2/4 439/2/4 443/2/4
f 444/2/4 445/2/4 447/2/4
f 446/2/4 447/2/4 448/2/4
f 447/2/4 445/2/4 449/2/4
f 448/2/4 447/2/4 449/2/4
f 449/2/4 445/2/4 450/2/4
f 450/2/4 445/2/4 451/2/4
f 454/2/5 453/2/5 452/2/5
f 455/2/5 453/2/5 454/2/5
f 458/2/5 457/2/5 456/2/5
f 459/2/5 457/2/5 458/2/5
f 462/2/5 461/2/5 460/2/5
f 463/2/5 461/2/5 462/2/5
f 468/2/5 465/2/5 464/2/5
f 469/2/5 465/2/5 468/2/5
f 470/2/5 467/2/5 466/2/5
f 471/2/5 467/2/5 470/2/5
f 474/2/5 473/2/5 472/2/5
f 475/2/5 473/2/5 474/2/5
f 480/2/5 477/2/5 476/2/5
f 481/2/5 477/2/5 480/2/5
f 482/2/5 479/2/5 478/2/5
f 483/2/5 479/2/5 482/2/5
f 484/2/5 479/2/5 483/2/5
f 489/2/5 486/2/5 485/2/5
f 490/2/5 486/2/5 489/2/5
f 491/2/5 488/2/5 487/2/5
f 492/2/5 488/2/5 491/2/5
f 495/2/5 494/2/5 493/2/5
f 496/2/5 494/2/5 495/2/5
f 501/2/5 498/2/5 497/2/5
f 502/2/5 498/2/5 501/2/5
f 503/2/5 500/2/5 499/2/5
f 504/2/5 500/2/5 503/2/5
f 509/2/5 506/2/5 505/2/5
f 510/2/5 506/2/5 509/2/5
f 511/2/5 508/2/5 507/2/5
f 512/2/5 508/2/5 511/2/5
f 515/2/5 514/2/5 513/2/5
f 516/2/5 514/2/5 515/2/5
f 519/2/5 518/2/5 517/2/5
f 520/2/5 518/2/5 519/2/5
f 523/1/5 522/1/5 521/1/5
f 524/1/5 522/1/5 523/1/5
f 527/2/5 526/2/5 525/2/5
f 528/2/5 526/2/5 527/2/5
f 532/2/5 530/2/5 529/2/5
f 532/2/5 531/2/5 530/2/5
f 533/2/5 531/2/5 532/2/5
f 534/2/5 531/2/5 533/2/5
f 537/2/5 536/2/5 535/2/5
f 538/2/5 536/2/5 537/2/5
f 541/2/5 540/2/5 539/2/5
f 542/2/5 540/2/5 541/2/5
f 545/2/5 544/2/5 543/2/5
f 546/2/5 544/2/5 545/2/5
f 549/2/5 548/2/5 547/2/5
f 550/2/5 548/2/5 549/2/5
f 554/2/5 552/2/5 551/2/5
f 555/2/5 552/2/5 554/2/5
f 556/2/5 552/2/5 555/2/5
f 557/2/5 552/2/5 556/2/5
f 560/2/5 554/2/5 553/2/5
f 560/2/5 555/2/5 554/2/5
f 561/2/5 555/2/5 560/2/5
f 562/2/5 555/2/5 561/2/5
f 563/2/5 557/2/5 556/2/5
f 563/2/5 558/2/5 557/2/5
f 564/2/5 558/2/5 563/2/5
f 565/2/5 558/2/5 564/2/5
f 567/2/5 561/2/5 560/2/5
f 567/2/5 560/2/5 559/2/5
f 568/2/5 561/2/5 567/2/5
f 569/2/5 566/2/5 565/2/5
f 569/2/5 565/2/5 564/2/5
f 570/2/5 566/2/5 569/2/5
f 571/2/5 566/2/5 570/2/5
f 572/2/5 566/2/5 571/2/5
f 575/2/5 574/2/5 573/2/5
f 576/2/5 574/2/5 575/2/5
f 577/2/6 578/2/6 579/2/6
f 579/2/6 578/2/6 580/2/6
f 581/2/6 582/2/6 583/2/6
f 583/2/6 582/2/6 584/2/6
f 585/2/6 586/2/6 587/2/6
f 585/2/6 587/2/6 589/2/6
f 587/2/6 588/2/6 589/2/6
f 589/2/6 588/2/6 590/2/6
f 590/2/6 588/2/6 591/2/6
f 592/2/6 593/2/6 594/2/6
f 594/2/6 593/2/6 595/2/6
f 596/2/6 597/2/6 598/2/6
f 598/2/6 597/2/6 599/2/6
f 600/2/6 601/2/6 602/2/6
f 602/2/6 601/2/6 603/2/6
f 604/2/6 605/2/6 607/2/6
f 605/2/6 606/2/6 607/2/6
f 607/2/6 606/2/6 608/2/6
f 608/2/6 606/2/6 609/2/6
f 610/2/6 611/2/6 613/2/6
f 613/2/6 611/2/6 614/2/6
f 614/2/6 611/2/6 615/2/6
f 615/2/6 611/2/6 616/2/6
f 612/2/6 613/2/6 618/2/6
f 613/2/6 614/2/6 618/2/6
f 618/2/6 614/2/6 619/2/6
f 619/2/6 614/2/6 620/2/6
f 616/2/6 617/2/6 621/2/6
f 615/2/6 616/2/6 621/2/6
f 621/2/6 617/2/6 622/2/6
f 622/2/6 617/2/6 623/2/6
f 623/2/6 624/2/6 625/2/6
f 622/2/6 623/2/6 625/2/6
f 625/2/6 624/2/6 626/2/6
f 626/2/6 624/2/6 627/2/6
f 628/2/6 629/2/6 630/2/6
f 630/2/6 629/2/6 631/2/6
f 632/2/6 633/2/6 634/2/6
f 634/2/6 633/2/6 635/2/6
f 638/2/6 639/2/6 640/2/6
f 640/2/6 639/2/6 641/2/6
f 636/2/6 637/2/6 644/2/6
f 644/2/6 637/2/6 645/2/6
f 642/2/6 643/2/6 646/2/6
f 646/2/6 643/2/6 647/2/6
f 648/2/6 649/2/6 652/2/6
f 652/2/6 649/2/6 653/2/6
f 654/2/6 655/2/6 656/2/6
f 656/2/6 655/2/6 657/2/6
f 650/2/6 651/2/6 658/2/6
f 650/2/6 658/2/6 660/2/6
f 658/2/6 659/2/6 660/2/6
f 660/2/6 659/2/6 661/2/6
f 662/2/6 663/2/6 664/2/6
f 664/2/6 663/2/6 665/2/6
f 662/2/6 664/2/6 666/2/6
f 665/2/6 663/2/6 667/2/6
f 662/2/6 666/2/6 668/2/6
f 666/2/6 667/2/6 668/2/6
f 667/2/6 663/2/6 669/2/6
f 668/2/6 667/2/6 669/2/6
f 670/2/6 671/2/6 672/2/6
f 672/2/6 671/2/6 673/2/6
