# MagicaVoxel @ Ephtracy

# group
o 

# material
mtllib golem-0.mtl
usemtl palette

# normals
vn -1 0 0
vn 1 0 0
vn 0 0 1
vn 0 0 -1
vn 0 -1 0
vn 0 1 0

# texcoords
vt 0.841797 0.5
vt 0.986328 0.5

# verts
v -0.5 -0.7 0.3
v -0.5 -0.7 -0.5
v -0.5 0.7 0.3
v -0.5 0.7 -0.5
v -0.3 -0.7 0.5
v -0.3 -0.7 0.3
v -0.3 -0.7 -0.5
v -0.3 -0.7 -0.7
v -0.3 0.7 0.5
v -0.3 0.7 0.3
v -0.3 0.7 -0.5
v -0.3 0.7 -0.7
v 0.1 -0.7 -0.5
v 0.1 -0.7 -0.7
v 0.1 0.7 -0.5
v 0.1 0.7 -0.7
v 1.1 -0.7 -0.5
v 1.1 -0.7 -0.7
v 1.1 -0.3 -0.3
v 1.1 -0.3 -0.5
v 1.1 -0.1 -0.1
v 1.1 -0.1 -0.3
v 1.1 -0.1 -0.5
v 1.1 -0.1 -0.7
v 1.1 0.1 -0.1
v 1.1 0.1 -0.5
v -0.1 -0.7 -0.5
v -0.1 -0.7 -0.7
v -0.1 0.7 -0.5
v -0.1 0.7 -0.7
v 0.3 -0.1 0.5
v 0.3 -0.1 0.3
v 0.3 -0.1 0.1
v 0.3 -0.1 -0.1
v 0.3 -0.1 -0.5
v 0.3 -0.1 -0.7
v 0.3 0.3 -0.1
v 0.3 0.3 -0.5
v 0.3 0.5 -0.1
v 0.3 0.5 -0.5
v 0.3 0.7 0.5
v 0.3 0.7 0.3
v 0.3 0.7 0.1
v 0.3 0.7 -0.1
v 0.3 0.7 -0.5
v 0.3 0.7 -0.7
v 0.5 0.1 0.3
v 0.5 0.1 0.1
v 0.5 0.1 -0.1
v 0.5 0.1 -0.5
v 0.5 0.3 -0.1
v 0.5 0.3 -0.5
v 0.5 0.5 -0.1
v 0.5 0.5 -0.5
v 0.5 0.7 0.3
v 0.5 0.7 0.1
v 0.5 0.7 -0.1
v 0.5 0.7 -0.5
v 0.9 -0.7 -0.5
v 0.9 -0.7 -0.7
v 0.9 -0.3 -0.3
v 0.9 -0.3 -0.5
v 0.9 -0.1 -0.1
v 0.9 -0.1 -0.3
v 0.9 -0.1 -0.5
v 0.9 -0.1 -0.7
v 0.9 0.1 -0.1
v 0.9 0.1 -0.5
v 1.3 -0.3 0.1
v 1.3 -0.3 -0.1
v 1.3 -0.1 0.1
v 1.3 -0.1 -0.1
v 1.5 -0.7 0.1
v 1.5 -0.7 -0.1
v 1.5 -0.3 0.1
v 1.5 -0.3 -0.1
v 1.5 -0.1 0.3
v 1.5 -0.1 0.1
v 1.5 -0.1 -0.1
v 1.5 -0.1 -0.5
v 1.5 0.1 0.3
v 1.5 0.1 0.1
v 1.5 0.1 -0.1
v 1.5 0.1 -0.5
v 1.7 -0.7 0.5
v 1.7 -0.7 0.1
v 1.7 -0.7 -0.1
v 1.7 -0.7 -0.7
v 1.7 -0.1 0.5
v 1.7 -0.1 0.1
v 1.7 -0.1 -0.1
v 1.7 -0.1 -0.7
v -0.3 -0.7 0.5
v -0.3 0.7 0.5
v 0.3 -0.1 0.5
v 0.3 0.7 0.5
v 1.7 -0.7 0.5
v 1.7 -0.1 0.5
v -0.5 -0.7 0.3
v -0.5 0.7 0.3
v -0.3 -0.7 0.3
v -0.3 0.7 0.3
v 0.3 -0.1 0.3
v 0.3 0.7 0.3
v 0.5 0.1 0.3
v 0.5 0.7 0.3
v 1.5 -0.1 0.3
v 1.5 0.1 0.3
v 0.3 -0.1 -0.1
v 0.3 0.3 -0.1
v 0.3 0.5 -0.1
v 0.3 0.7 -0.1
v 0.5 0.1 -0.1
v 0.5 0.3 -0.1
v 0.5 0.5 -0.1
v 0.5 0.7 -0.1
v 0.9 -0.1 -0.1
v 0.9 0.1 -0.1
v 1.1 -0.1 -0.1
v 1.1 0.1 -0.1
v 1.3 -0.3 -0.1
v 1.3 -0.1 -0.1
v 1.5 -0.7 -0.1
v 1.5 -0.3 -0.1
v 1.5 -0.1 -0.1
v 1.5 0.1 -0.1
v 1.7 -0.7 -0.1
v 1.7 -0.1 -0.1
v 0.3 -0.1 0.1
v 0.3 0.7 0.1
v 0.5 0.1 0.1
v 0.5 0.7 0.1
v 1.3 -0.3 0.1
v 1.3 -0.1 0.1
v 1.5 -0.7 0.1
v 1.5 -0.3 0.1
v 1.5 -0.1 0.1
v 1.5 0.1 0.1
v 1.7 -0.7 0.1
v 1.7 -0.1 0.1
v 0.9 -0.3 -0.3
v 0.9 -0.1 -0.3
v 1.1 -0.3 -0.3
v 1.1 -0.1 -0.3
v -0.5 -0.7 -0.5
v -0.5 0.7 -0.5
v -0.3 -0.7 -0.5
v -0.3 0.7 -0.5
v -0.1 -0.7 -0.5
v -0.1 0.7 -0.5
v 0.1 -0.7 -0.5
v 0.1 0.7 -0.5
v 0.3 -0.1 -0.5
v 0.3 0.3 -0.5
v 0.3 0.5 -0.5
v 0.3 0.7 -0.5
v 0.5 0.1 -0.5
v 0.5 0.3 -0.5
v 0.5 0.5 -0.5
v 0.5 0.7 -0.5
v 0.9 -0.7 -0.5
v 0.9 -0.3 -0.5
v 0.9 -0.1 -0.5
v 0.9 0.1 -0.5
v 1.1 -0.7 -0.5
v 1.1 -0.3 -0.5
v 1.1 -0.1 -0.5
v 1.1 0.1 -0.5
v 1.5 -0.1 -0.5
v 1.5 0.1 -0.5
v -0.3 -0.7 -0.7
v -0.3 0.7 -0.7
v -0.1 -0.7 -0.7
v -0.1 0.7 -0.7
v 0.1 -0.7 -0.7
v 0.1 0.7 -0.7
v 0.3 -0.1 -0.7
v 0.3 0.7 -0.7
v 0.9 -0.7 -0.7
v 0.9 -0.1 -0.7
v 1.1 -0.7 -0.7
v 1.1 -0.1 -0.7
v 1.7 -0.7 -0.7
v 1.7 -0.1 -0.7
v -0.3 -0.7 0.5
v 1.7 -0.7 0.5
v -0.5 -0.7 0.3
v -0.3 -0.7 0.3
v 1.3 -0.7 0.1
v 1.5 -0.7 0.1
v 1.7 -0.7 0.1
v 1.3 -0.7 -0.1
v 1.5 -0.7 -0.1
v 1.7 -0.7 -0.1
v -0.1 -0.7 -0.3
v 0.1 -0.7 -0.3
v 0.9 -0.7 -0.3
v 1.1 -0.7 -0.3
v -0.5 -0.7 -0.5
v -0.3 -0.7 -0.5
v -0.1 -0.7 -0.5
v 0.1 -0.7 -0.5
v 0.9 -0.7 -0.5
v 1.1 -0.7 -0.5
v -0.3 -0.7 -0.7
v -0.1 -0.7 -0.7
v 0.1 -0.7 -0.7
v 0.9 -0.7 -0.7
v 1.1 -0.7 -0.7
v 1.7 -0.7 -0.7
v 0.3 0.5 -0.1
v 0.5 0.5 -0.1
v 0.3 0.5 -0.5
v 0.5 0.5 -0.5
v 1.3 -0.3 0.1
v 1.5 -0.3 0.1
v 1.3 -0.3 -0.1
v 1.5 -0.3 -0.1
v 0.9 -0.3 -0.3
v 1.1 -0.3 -0.3
v 0.9 -0.3 -0.5
v 1.1 -0.3 -0.5
v 0.3 -0.1 0.5
v 1.7 -0.1 0.5
v 0.3 -0.1 0.3
v 1.5 -0.1 0.3
v 0.3 -0.1 0.1
v 1.3 -0.1 0.1
v 1.5 -0.1 0.1
v 1.7 -0.1 0.1
v 0.3 -0.1 -0.1
v 0.9 -0.1 -0.1
v 1.1 -0.1 -0.1
v 1.3 -0.1 -0.1
v 1.5 -0.1 -0.1
v 1.7 -0.1 -0.1
v 0.9 -0.1 -0.3
v 1.1 -0.1 -0.3
v 0.3 -0.1 -0.5
v 0.9 -0.1 -0.5
v 1.1 -0.1 -0.5
v 1.5 -0.1 -0.5
v 0.3 -0.1 -0.7
v 0.9 -0.1 -0.7
v 1.1 -0.1 -0.7
v 1.7 -0.1 -0.7
v 0.5 0.1 0.3
v 1.5 0.1 0.3
v 0.5 0.1 0.1
v 1.5 0.1 0.1
v 0.5 0.1 -0.1
v 0.9 0.1 -0.1
v 1.1 0.1 -0.1
v 1.5 0.1 -0.1
v 0.5 0.1 -0.5
v 0.9 0.1 -0.5
v 1.1 0.1 -0.5
v 1.5 0.1 -0.5
v 0.3 0.3 -0.1
v 0.5 0.3 -0.1
v 0.3 0.3 -0.5
v 0.5 0.3 -0.5
v -0.3 0.7 0.5
v 0.3 0.7 0.5
v -0.5 0.7 0.3
v -0.3 0.7 0.3
v 0.3 0.7 0.3
v 0.5 0.7 0.3
v 0.1 0.7 0.1
v 0.3 0.7 0.1
v 0.5 0.7 0.1
v 0.1 0.7 -0.1
v 0.3 0.7 -0.1
v 0.5 0.7 -0.1
v -0.1 0.7 -0.3
v 0.1 0.7 -0.3
v -0.5 0.7 -0.5
v -0.3 0.7 -0.5
v -0.1 0.7 -0.5
v 0.1 0.7 -0.5
v 0.3 0.7 -0.5
v 0.5 0.7 -0.5
v -0.3 0.7 -0.7
v -0.1 0.7 -0.7
v 0.1 0.7 -0.7
v 0.3 0.7 -0.7

# faces
f 3/2/1 2/2/1 1/2/1
f 4/2/1 2/2/1 3/2/1
f 9/2/1 6/2/1 5/2/1
f 10/2/1 6/2/1 9/2/1
f 11/2/1 8/2/1 7/2/1
f 12/2/1 8/2/1 11/2/1
f 15/2/1 14/2/1 13/2/1
f 16/2/1 14/2/1 15/2/1
f 20/2/1 18/2/1 17/2/1
f 22/2/1 20/2/1 19/2/1
f 23/2/1 18/2/1 20/2/1
f 23/2/1 20/2/1 22/2/1
f 24/2/1 18/2/1 23/2/1
f 25/2/1 22/2/1 21/2/1
f 25/2/1 23/2/1 22/2/1
f 26/2/1 23/2/1 25/2/1
f 27/2/2 28/2/2 29/2/2
f 29/2/2 28/2/2 30/2/2
f 33/1/2 34/1/2 37/1/2
f 35/2/2 36/2/2 38/2/2
f 33/1/2 37/1/2 39/1/2
f 37/1/2 38/1/2 39/1/2
f 38/2/2 36/2/2 40/2/2
f 39/1/2 38/1/2 40/1/2
f 31/2/2 32/2/2 41/2/2
f 41/2/2 32/2/2 42/2/2
f 33/1/2 39/1/2 43/1/2
f 43/1/2 39/1/2 44/1/2
f 40/2/2 36/2/2 45/2/2
f 45/2/2 36/2/2 46/2/2
f 49/2/2 50/2/2 51/2/2
f 51/2/2 50/2/2 52/2/2
f 47/2/2 48/2/2 55/2/2
f 55/2/2 48/2/2 56/2/2
f 53/2/2 54/2/2 57/2/2
f 57/2/2 54/2/2 58/2/2
f 59/2/2 60/2/2 62/2/2
f 61/2/2 62/2/2 64/2/2
f 62/2/2 60/2/2 65/2/2
f 64/2/2 62/2/2 65/2/2
f 65/2/2 60/2/2 66/2/2
f 63/2/2 64/2/2 67/2/2
f 64/2/2 65/2/2 67/2/2
f 67/2/2 65/2/2 68/2/2
f 69/1/2 70/1/2 71/1/2
f 71/1/2 70/1/2 72/1/2
f 73/1/2 74/1/2 75/1/2
f 75/1/2 74/1/2 76/1/2
f 77/2/2 78/2/2 81/2/2
f 81/2/2 78/2/2 82/2/2
f 79/2/2 80/2/2 83/2/2
f 83/2/2 80/2/2 84/2/2
f 85/2/2 86/2/2 89/2/2
f 89/2/2 86/2/2 90/2/2
f 87/2/2 88/2/2 91/2/2
f 91/2/2 88/2/2 92/2/2
f 95/2/3 94/2/3 93/2/3
f 96/2/3 94/2/3 95/2/3
f 97/2/3 95/2/3 93/2/3
f 98/2/3 95/2/3 97/2/3
f 101/2/3 100/2/3 99/2/3
f 102/2/3 100/2/3 101/2/3
f 105/2/3 104/2/3 103/2/3
f 106/2/3 104/2/3 105/2/3
f 107/2/3 105/2/3 103/2/3
f 108/2/3 105/2/3 107/2/3
f 113/2/3 110/2/3 109/2/3
f 114/2/3 110/2/3 113/2/3
f 115/2/3 112/2/3 111/2/3
f 116/2/3 112/2/3 115/2/3
f 117/2/3 113/2/3 109/2/3
f 118/2/3 113/2/3 117/2/3
f 122/2/3 120/2/3 119/2/3
f 124/2/3 122/2/3 121/2/3
f 125/2/3 120/2/3 122/2/3
f 125/2/3 122/2/3 124/2/3
f 126/2/3 120/2/3 125/2/3
f 127/2/3 124/2/3 123/2/3
f 127/2/3 125/2/3 124/2/3
f 128/2/3 125/2/3 127/2/3
f 129/2/4 130/2/4 131/2/4
f 131/2/4 130/2/4 132/2/4
f 129/2/4 131/2/4 134/2/4
f 133/2/4 134/2/4 136/2/4
f 134/2/4 131/2/4 137/2/4
f 136/2/4 134/2/4 137/2/4
f 137/2/4 131/2/4 138/2/4
f 135/2/4 136/2/4 139/2/4
f 136/2/4 137/2/4 139/2/4
f 139/2/4 137/2/4 140/2/4
f 141/1/4 142/1/4 143/1/4
f 143/1/4 142/1/4 144/1/4
f 145/2/4 146/2/4 147/2/4
f 147/2/4 146/2/4 148/2/4
f 149/1/4 150/1/4 151/1/4
f 151/1/4 150/1/4 152/1/4
f 153/2/4 154/2/4 157/2/4
f 157/2/4 154/2/4 158/2/4
f 155/2/4 156/2/4 159/2/4
f 159/2/4 156/2/4 160/2/4
f 153/2/4 157/2/4 163/2/4
f 163/2/4 157/2/4 164/2/4
f 161/1/4 162/1/4 165/1/4
f 165/1/4 162/1/4 166/1/4
f 167/2/4 168/2/4 169/2/4
f 169/2/4 168/2/4 170/2/4
f 171/2/4 172/2/4 173/2/4
f 173/2/4 172/2/4 174/2/4
f 175/2/4 176/2/4 177/2/4
f 177/2/4 176/2/4 178/2/4
f 175/2/4 177/2/4 179/2/4
f 179/2/4 177/2/4 180/2/4
f 181/2/4 182/2/4 183/2/4
f 183/2/4 182/2/4 184/2/4
f 188/2/5 186/2/5 185/2/5
f 189/2/5 186/2/5 188/2/5
f 189/2/5 188/2/5 187/2/5
f 190/2/5 186/2/5 189/2/5
f 191/2/5 186/2/5 190/2/5
f 192/2/5 189/2/5 187/2/5
f 192/1/5 190/1/5 189/1/5
f 193/1/5 190/1/5 192/1/5
f 195/2/5 192/2/5 187/2/5
f 195/2/5 194/2/5 193/2/5
f 195/2/5 193/2/5 192/2/5
f 196/2/5 194/2/5 195/2/5
f 197/2/5 194/2/5 196/2/5
f 198/2/5 194/2/5 197/2/5
f 199/2/5 195/2/5 187/2/5
f 200/2/5 195/2/5 199/2/5
f 201/1/5 196/1/5 195/1/5
f 201/2/5 195/2/5 200/2/5
f 202/2/5 197/2/5 196/2/5
f 202/1/5 196/1/5 201/1/5
f 203/1/5 198/1/5 197/1/5
f 203/2/5 197/2/5 202/2/5
f 204/2/5 194/2/5 198/2/5
f 204/1/5 198/1/5 203/1/5
f 205/2/5 201/2/5 200/2/5
f 206/2/5 201/2/5 205/2/5
f 207/2/5 203/2/5 202/2/5
f 208/2/5 203/2/5 207/2/5
f 209/2/5 194/2/5 204/2/5
f 210/2/5 194/2/5 209/2/5
f 213/2/5 212/2/5 211/2/5
f 214/2/5 212/2/5 213/2/5
f 215/1/6 216/1/6 217/1/6
f 217/1/6 216/1/6 218/1/6
f 219/1/6 220/1/6 221/1/6
f 221/1/6 220/1/6 222/1/6
f 223/2/6 224/2/6 225/2/6
f 225/2/6 224/2/6 226/2/6
f 226/2/6 224/2/6 229/2/6
f 229/2/6 224/2/6 230/2/6
f 227/1/6 228/1/6 231/1/6
f 231/1/6 228/1/6 232/1/6
f 232/1/6 228/1/6 233/1/6
f 233/1/6 228/1/6 234/1/6
f 232/1/6 233/1/6 237/1/6
f 237/1/6 233/1/6 238/1/6
f 235/2/6 236/2/6 242/2/6
f 239/2/6 240/2/6 243/2/6
f 243/2/6 240/2/6 244/2/6
f 241/2/6 242/2/6 245/2/6
f 242/2/6 236/2/6 246/2/6
f 245/2/6 242/2/6 246/2/6
f 247/2/6 248/2/6 249/2/6
f 249/2/6 248/2/6 250/2/6
f 251/2/6 252/2/6 255/2/6
f 255/2/6 252/2/6 256/2/6
f 253/2/6 254/2/6 257/2/6
f 257/2/6 254/2/6 258/2/6
f 259/2/6 260/2/6 261/2/6
f 261/2/6 260/2/6 262/2/6
f 263/2/6 264/2/6 266/2/6
f 266/2/6 264/2/6 267/2/6
f 265/2/6 266/2/6 269/2/6
f 267/2/6 268/2/6 269/2/6
f 266/2/6 267/2/6 269/2/6
f 269/2/6 268/2/6 270/2/6
f 270/2/6 268/2/6 271/2/6
f 265/2/6 269/2/6 272/2/6
f 269/1/6 270/1/6 272/1/6
f 272/1/6 270/1/6 273/1/6
f 265/2/6 272/2/6 275/2/6
f 273/2/6 274/2/6 275/2/6
f 272/2/6 273/2/6 275/2/6
f 275/2/6 274/2/6 276/2/6
f 265/2/6 275/2/6 277/2/6
f 277/2/6 275/2/6 278/2/6
f 275/1/6 276/1/6 279/1/6
f 278/2/6 275/2/6 279/2/6
f 276/2/6 274/2/6 280/2/6
f 279/1/6 276/1/6 280/1/6
f 280/2/6 274/2/6 281/2/6
f 281/2/6 274/2/6 282/2/6
f 278/2/6 279/2/6 283/2/6
f 283/2/6 279/2/6 284/2/6
f 280/2/6 281/2/6 285/2/6
f 285/2/6 281/2/6 286/2/6
