# MagicaVoxel @ Ephtracy

# group
o 

# material
mtllib golem-1.mtl
usemtl palette

# normals
vn -1 0 0
vn 1 0 0
vn 0 0 1
vn 0 0 -1
vn 0 -1 0
vn 0 1 0

# texcoords
vt 0.841797 0.5
vt 0.986328 0.5

# verts
v -0.6 -0.3 0.3
v -0.6 -0.3 -0.5
v -0.6 0.5 0.3
v -0.6 0.5 -0.5
v -0.2 -0.7 0.3
v -0.2 -0.7 -0.5
v -0.2 -0.3 0.7
v -0.2 -0.3 0.3
v -0.2 -0.3 -0.5
v -0.2 -0.3 -0.9
v -0.2 0.5 0.7
v -0.2 0.5 0.3
v -0.2 0.5 -0.5
v -0.2 0.5 -0.9
v -0.2 0.7 0.1
v -0.2 0.7 -0.1
v -0.2 0.9 0.3
v -0.2 0.9 0.1
v -0.2 0.9 -0.1
v -0.2 0.9 -0.5
v 0.4 0.1 -0.7
v 0.4 0.1 -0.9
v 0.4 0.3 -0.7
v 0.4 0.3 -0.9
v 0.6 0.3 0.1
v 0.6 0.3 -0.1
v 0.6 0.5 0.1
v 0.6 0.5 -0.1
v -5.96046e-08 0.1 -0.7
v -5.96046e-08 0.1 -0.9
v -5.96046e-08 0.3 -0.7
v -5.96046e-08 0.3 -0.9
v -5.96046e-08 0.7 0.1
v -5.96046e-08 0.7 -0.1
v -5.96046e-08 0.9 0.1
v -5.96046e-08 0.9 -0.1
v 0.2 -0.1 0.7
v 0.2 -0.1 0.5
v 0.2 -0.1 0.3
v 0.2 -0.1 -0.7
v 0.2 -0.1 -0.9
v 0.2 0.1 0.7
v 0.2 0.1 0.5
v 0.2 0.1 0.3
v 0.2 0.1 -0.7
v 0.2 0.1 -0.9
v 0.4 -0.1 0.3
v 0.4 -0.1 0.1
v 0.4 -0.1 -0.3
v 0.4 -0.1 -0.7
v 0.4 0.1 0.3
v 0.4 0.1 0.1
v 0.4 0.1 -0.3
v 0.4 0.1 -0.7
v 0.4 0.3 0.1
v 0.4 0.3 -0.1
v 0.4 0.7 0.1
v 0.4 0.7 -0.1
v 0.6 -0.7 0.3
v 0.6 -0.7 -0.5
v 0.6 -0.3 0.7
v 0.6 -0.3 0.3
v 0.6 -0.3 -0.5
v 0.6 -0.3 -0.9
v 0.6 -0.1 0.7
v 0.6 -0.1 0.3
v 0.6 -0.1 -0.5
v 0.6 -0.1 -0.9
v 0.6 0.1 0.7
v 0.6 0.1 0.3
v 0.6 0.1 -0.5
v 0.6 0.1 -0.9
v 0.6 0.5 0.7
v 0.6 0.5 0.3
v 0.6 0.5 0.1
v 0.6 0.5 -0.1
v 0.6 0.5 -0.5
v 0.6 0.5 -0.9
v 0.6 0.9 0.3
v 0.6 0.9 0.1
v 0.6 0.9 -0.1
v 0.6 0.9 -0.5
v 0.8 -0.1 0.1
v 0.8 -0.1 -0.3
v 0.8 0.1 0.1
v 0.8 0.1 -0.3
v 1 -0.3 0.3
v 1 -0.3 -0.5
v 1 -0.1 0.3
v 1 -0.1 -0.5
v 1 0.1 0.3
v 1 0.1 -0.5
v 1 0.5 0.3
v 1 0.5 -0.5
v -0.2 -0.3 0.7
v -0.2 0.5 0.7
v 0.2 -0.1 0.7
v 0.2 0.1 0.7
v 0.6 -0.3 0.7
v 0.6 -0.1 0.7
v 0.6 0.1 0.7
v 0.6 0.5 0.7
v -0.6 -0.3 0.3
v -0.6 0.5 0.3
v -0.2 -0.7 0.3
v -0.2 -0.3 0.3
v -0.2 0.5 0.3
v -0.2 0.9 0.3
v 0.2 -0.1 0.3
v 0.2 0.1 0.3
v 0.4 -0.1 0.3
v 0.4 0.1 0.3
v 0.6 -0.7 0.3
v 0.6 -0.3 0.3
v 0.6 -0.1 0.3
v 0.6 0.1 0.3
v 0.6 0.5 0.3
v 0.6 0.9 0.3
v 1 -0.3 0.3
v 1 -0.1 0.3
v 1 0.1 0.3
v 1 0.5 0.3
v 0.4 -0.1 0.1
v 0.4 0.1 0.1
v 0.8 -0.1 0.1
v 0.8 0.1 0.1
v -5.96046e-08 0.7 -0.1
v -5.96046e-08 0.9 -0.1
v 0.2 0.7 -0.1
v 0.4 0.3 -0.1
v 0.4 0.7 -0.1
v 0.6 0.3 -0.1
v 0.6 0.5 -0.1
v 0.6 0.9 -0.1
v -5.96046e-08 0.7 0.1
v -5.96046e-08 0.9 0.1
v 0.2 0.7 0.1
v 0.4 0.3 0.1
v 0.4 0.7 0.1
v 0.6 0.3 0.1
v 0.6 0.5 0.1
v 0.6 0.9 0.1
v 0.4 -0.1 -0.3
v 0.4 0.1 -0.3
v 0.8 -0.1 -0.3
v 0.8 0.1 -0.3
v -0.6 -0.3 -0.5
v -0.6 0.5 -0.5
v -0.2 -0.7 -0.5
v -0.2 -0.3 -0.5
v -0.2 0.5 -0.5
v -0.2 0.9 -0.5
v 0.6 -0.7 -0.5
v 0.6 -0.3 -0.5
v 0.6 -0.1 -0.5
v 0.6 0.1 -0.5
v 0.6 0.5 -0.5
v 0.6 0.9 -0.5
v 1 -0.3 -0.5
v 1 -0.1 -0.5
v 1 0.1 -0.5
v 1 0.5 -0.5
v -5.96046e-08 0.1 -0.7
v -5.96046e-08 0.3 -0.7
v 0.2 -0.1 -0.7
v 0.2 0.1 -0.7
v 0.4 -0.1 -0.7
v 0.4 0.1 -0.7
v 0.4 0.3 -0.7
v -0.2 -0.3 -0.9
v -0.2 0.5 -0.9
v -5.96046e-08 0.1 -0.9
v -5.96046e-08 0.3 -0.9
v 0.2 -0.1 -0.9
v 0.2 0.1 -0.9
v 0.4 0.1 -0.9
v 0.4 0.3 -0.9
v 0.6 -0.3 -0.9
v 0.6 -0.1 -0.9
v 0.6 0.1 -0.9
v 0.6 0.5 -0.9
v -0.2 -0.7 0.3
v 0.6 -0.7 0.3
v -0.2 -0.7 -0.5
v 0.6 -0.7 -0.5
v -0.2 -0.3 0.7
v 0.6 -0.3 0.7
v -0.6 -0.3 0.3
v -0.2 -0.3 0.3
v 0.6 -0.3 0.3
v 1 -0.3 0.3
v -0.6 -0.3 -0.5
v -0.2 -0.3 -0.5
v 0.6 -0.3 -0.5
v 1 -0.3 -0.5
v -0.2 -0.3 -0.9
v 0.6 -0.3 -0.9
v 0.2 0.1 0.7
v 0.6 0.1 0.7
v 0.2 0.1 0.5
v 0.2 0.1 0.3
v 0.4 0.1 0.3
v 0.6 0.1 0.3
v 1 0.1 0.3
v 0.4 0.1 0.1
v 0.8 0.1 0.1
v 0.4 0.1 -0.3
v 0.8 0.1 -0.3
v 0.6 0.1 -0.5
v 1 0.1 -0.5
v 0.4 0.1 -0.7
v 0.4 0.1 -0.9
v 0.6 0.1 -0.9
v -5.96046e-08 0.3 -0.7
v 0.4 0.3 -0.7
v -5.96046e-08 0.3 -0.9
v 0.4 0.3 -0.9
v 0.2 -0.1 0.7
v 0.6 -0.1 0.7
v 0.2 -0.1 0.5
v 0.2 -0.1 0.3
v 0.4 -0.1 0.3
v 0.6 -0.1 0.3
v 1 -0.1 0.3
v 0.4 -0.1 0.1
v 0.8 -0.1 0.1
v 0.4 -0.1 -0.3
v 0.8 -0.1 -0.3
v 0.6 -0.1 -0.5
v 1 -0.1 -0.5
v 0.2 -0.1 -0.7
v 0.4 -0.1 -0.7
v 0.2 -0.1 -0.9
v 0.6 -0.1 -0.9
v -5.96046e-08 0.1 -0.7
v 0.2 0.1 -0.7
v -5.96046e-08 0.1 -0.9
v 0.2 0.1 -0.9
v 0.4 0.3 0.1
v 0.6 0.3 0.1
v 0.4 0.3 -0.1
v 0.6 0.3 -0.1
v -0.2 0.5 0.7
v 0.6 0.5 0.7
v -0.6 0.5 0.3
v -0.2 0.5 0.3
v 0.6 0.5 0.3
v 1 0.5 0.3
v 0.6 0.5 0.1
v 0.6 0.5 -0.1
v -0.6 0.5 -0.5
v -0.2 0.5 -0.5
v 0.6 0.5 -0.5
v 1 0.5 -0.5
v -0.2 0.5 -0.9
v 0.6 0.5 -0.9
v -5.96046e-08 0.7 0.1
v 0.2 0.7 0.1
v 0.4 0.7 0.1
v -5.96046e-08 0.7 -0.1
v 0.2 0.7 -0.1
v 0.4 0.7 -0.1
v -0.2 0.9 0.3
v 0.6 0.9 0.3
v -0.2 0.9 0.1
v -5.96046e-08 0.9 0.1
v 0.6 0.9 0.1
v -0.2 0.9 -0.1
v -5.96046e-08 0.9 -0.1
v 0.6 0.9 -0.1
v -0.2 0.9 -0.5
v 0.6 0.9 -0.5

# faces
f 3/2/1 2/2/1 1/2/1
f 4/2/1 2/2/1 3/2/1
f 8/2/1 6/2/1 5/2/1
f 9/2/1 6/2/1 8/2/1
f 11/2/1 8/2/1 7/2/1
f 12/2/1 8/2/1 11/2/1
f 13/2/1 10/2/1 9/2/1
f 14/2/1 10/2/1 13/2/1
f 15/2/1 13/2/1 12/2/1
f 16/2/1 13/2/1 15/2/1
f 17/2/1 15/2/1 12/2/1
f 18/1/1 16/1/1 15/1/1
f 18/2/1 15/2/1 17/2/1
f 19/2/1 13/2/1 16/2/1
f 19/1/1 16/1/1 18/1/1
f 20/2/1 13/2/1 19/2/1
f 23/2/1 22/2/1 21/2/1
f 24/2/1 22/2/1 23/2/1
f 27/2/1 26/2/1 25/2/1
f 28/2/1 26/2/1 27/2/1
f 29/2/2 30/2/2 31/2/2
f 31/2/2 30/2/2 32/2/2
f 33/1/2 34/1/2 35/1/2
f 35/1/2 34/1/2 36/1/2
f 37/2/2 38/2/2 42/2/2
f 38/1/2 39/1/2 43/1/2
f 42/2/2 38/2/2 43/2/2
f 43/1/2 39/1/2 44/1/2
f 40/2/2 41/2/2 45/2/2
f 45/2/2 41/2/2 46/2/2
f 47/1/2 48/1/2 51/1/2
f 51/1/2 48/1/2 52/1/2
f 49/1/2 50/1/2 53/1/2
f 53/1/2 50/1/2 54/1/2
f 55/1/2 56/1/2 57/1/2
f 57/1/2 56/1/2 58/1/2
f 59/2/2 60/2/2 62/2/2
f 62/2/2 60/2/2 63/2/2
f 61/2/2 62/2/2 65/2/2
f 65/2/2 62/2/2 66/2/2
f 63/2/2 64/2/2 67/2/2
f 67/2/2 64/2/2 68/2/2
f 69/2/2 70/2/2 73/2/2
f 73/2/2 70/2/2 74/2/2
f 71/2/2 72/2/2 77/2/2
f 77/2/2 72/2/2 78/2/2
f 74/2/2 75/2/2 79/2/2
f 79/2/2 75/2/2 80/2/2
f 76/2/2 77/2/2 81/2/2
f 81/2/2 77/2/2 82/2/2
f 83/1/2 84/1/2 85/1/2
f 85/1/2 84/1/2 86/1/2
f 87/2/2 88/2/2 89/2/2
f 89/2/2 88/2/2 90/2/2
f 91/2/2 92/2/2 93/2/2
f 93/2/2 92/2/2 94/2/2
f 97/2/3 96/2/3 95/2/3
f 98/2/3 96/2/3 97/2/3
f 99/2/3 97/2/3 95/2/3
f 100/2/3 97/2/3 99/2/3
f 101/2/3 96/2/3 98/2/3
f 102/2/3 96/2/3 101/2/3
f 106/2/3 104/2/3 103/2/3
f 107/2/3 104/2/3 106/2/3
f 111/1/3 110/1/3 109/1/3
f 112/1/3 110/1/3 111/1/3
f 113/2/3 106/2/3 105/2/3
f 114/2/3 106/2/3 113/2/3
f 117/2/3 108/2/3 107/2/3
f 118/2/3 108/2/3 117/2/3
f 119/2/3 115/2/3 114/2/3
f 120/2/3 115/2/3 119/2/3
f 121/2/3 117/2/3 116/2/3
f 122/2/3 117/2/3 121/2/3
f 125/1/3 124/1/3 123/1/3
f 126/1/3 124/1/3 125/1/3
f 129/2/3 128/2/3 127/2/3
f 131/2/3 128/2/3 129/2/3
f 132/2/3 131/2/3 130/2/3
f 133/2/3 131/2/3 132/2/3
f 134/2/3 128/2/3 131/2/3
f 134/2/3 131/2/3 133/2/3
f 135/2/4 136/2/4 137/2/4
f 137/2/4 136/2/4 139/2/4
f 138/2/4 139/2/4 140/2/4
f 140/2/4 139/2/4 141/2/4
f 139/2/4 136/2/4 142/2/4
f 141/2/4 139/2/4 142/2/4
f 143/1/4 144/1/4 145/1/4
f 145/1/4 144/1/4 146/1/4
f 147/2/4 148/2/4 150/2/4
f 150/2/4 148/2/4 151/2/4
f 149/2/4 150/2/4 153/2/4
f 153/2/4 150/2/4 154/2/4
f 151/2/4 152/2/4 157/2/4
f 157/2/4 152/2/4 158/2/4
f 154/2/4 155/2/4 159/2/4
f 159/2/4 155/2/4 160/2/4
f 156/2/4 157/2/4 161/2/4
f 161/2/4 157/2/4 162/2/4
f 163/1/4 164/1/4 166/1/4
f 165/1/4 166/1/4 167/1/4
f 166/1/4 164/1/4 168/1/4
f 167/1/4 166/1/4 168/1/4
f 168/1/4 164/1/4 169/1/4
f 170/2/4 171/2/4 172/2/4
f 172/2/4 171/2/4 173/2/4
f 170/2/4 172/2/4 174/2/4
f 174/2/4 172/2/4 175/2/4
f 173/2/4 171/2/4 177/2/4
f 170/2/4 174/2/4 178/2/4
f 178/2/4 174/2/4 179/2/4
f 176/2/4 177/2/4 180/2/4
f 177/2/4 171/2/4 181/2/4
f 180/2/4 177/2/4 181/2/4
f 184/2/5 183/2/5 182/2/5
f 185/2/5 183/2/5 184/2/5
f 189/2/5 187/2/5 186/2/5
f 190/2/5 187/2/5 189/2/5
f 192/2/5 189/2/5 188/2/5
f 193/2/5 189/2/5 192/2/5
f 194/2/5 191/2/5 190/2/5
f 195/2/5 191/2/5 194/2/5
f 196/2/5 194/2/5 193/2/5
f 197/2/5 194/2/5 196/2/5
f 200/2/5 199/2/5 198/2/5
f 201/2/5 199/2/5 200/2/5
f 202/2/5 199/2/5 201/2/5
f 203/2/5 199/2/5 202/2/5
f 205/2/5 204/2/5 203/2/5
f 205/2/5 203/2/5 202/2/5
f 206/2/5 204/2/5 205/2/5
f 208/2/5 204/2/5 206/2/5
f 209/2/5 208/2/5 207/2/5
f 210/2/5 204/2/5 208/2/5
f 210/2/5 208/2/5 209/2/5
f 211/2/5 209/2/5 207/2/5
f 212/2/5 209/2/5 211/2/5
f 213/2/5 209/2/5 212/2/5
f 216/2/5 215/2/5 214/2/5
f 217/2/5 215/2/5 216/2/5
f 218/2/6 219/2/6 220/2/6
f 220/2/6 219/2/6 221/2/6
f 221/2/6 219/2/6 222/2/6
f 222/2/6 219/2/6 223/2/6
f 223/2/6 224/2/6 225/2/6
f 222/2/6 223/2/6 225/2/6
f 225/2/6 224/2/6 226/2/6
f 226/2/6 224/2/6 228/2/6
f 227/2/6 228/2/6 229/2/6
f 228/2/6 224/2/6 230/2/6
f 229/2/6 228/2/6 230/2/6
f 227/2/6 229/2/6 232/2/6
f 231/2/6 232/2/6 233/2/6
f 232/2/6 229/2/6 234/2/6
f 233/2/6 232/2/6 234/2/6
f 235/2/6 236/2/6 237/2/6
f 237/2/6 236/2/6 238/2/6
f 239/1/6 240/1/6 241/1/6
f 241/1/6 240/1/6 242/1/6
f 243/2/6 244/2/6 246/2/6
f 246/2/6 244/2/6 247/2/6
f 247/2/6 248/2/6 249/2/6
f 249/2/6 248/2/6 250/2/6
f 245/2/6 246/2/6 251/2/6
f 251/2/6 246/2/6 252/2/6
f 250/2/6 248/2/6 253/2/6
f 253/2/6 248/2/6 254/2/6
f 252/2/6 253/2/6 255/2/6
f 255/2/6 253/2/6 256/2/6
f 257/2/6 258/2/6 260/2/6
f 258/1/6 259/1/6 261/1/6
f 260/2/6 258/2/6 261/2/6
f 261/1/6 259/1/6 262/1/6
f 263/2/6 264/2/6 265/2/6
f 265/2/6 264/2/6 266/2/6
f 266/2/6 264/2/6 267/2/6
f 265/1/6 266/1/6 268/1/6
f 268/1/6 266/1/6 269/1/6
f 268/2/6 269/2/6 271/2/6
f 269/2/6 270/2/6 271/2/6
f 271/2/6 270/2/6 272/2/6
