# MagicaVoxel @ Ephtracy

# group
o 

# material
mtllib cristais-10.mtl
usemtl palette

# normals
vn -1 0 0
vn 1 0 0
vn 0 0 1
vn 0 0 -1
vn 0 -1 0
vn 0 1 0

# texcoords
vt 0.841797 0.5

# verts
v -0.3 0.8 -0.2
v -0.3 0.8 -0.4
v -0.3 0.9 -0.2
v -0.3 0.9 -0.3
v -0.3 1 -0.3
v -0.3 1 -0.4
v -0.2 0.6 -0.1
v -0.2 0.6 -0.4
v -0.2 0.8 -0.1
v -0.2 0.8 -0.2
v -0.2 0.8 -0.4
v -0.1 0.6 0
v -0.1 0.6 -0.1
v -0.1 0.7 0
v -0.1 0.7 -0.1
v 0 0.6 0.1
v 0 0.6 0
v 0 0.7 0.1
v 0 0.7 0
v 0 0.8 -0.1
v 0 0.8 -0.2
v 0 0.9 -0.1
v 0 0.9 -0.2
v 0.1 0.7 0.1
v 0.1 0.7 -0.1
v 0.1 0.8 0.2
v 0.1 0.8 0.1
v 0.1 0.8 0
v 0.1 0.9 0.2
v 0.1 0.9 0.1
v 0.1 0.9 0
v 0.1 0.9 -0.1
v 0.2 0.8 0.1
v 0.2 0.8 0
v 0.2 0.9 0.2
v 0.2 0.9 0.1
v 0.2 0.9 0
v 0.2 0.9 -0.1
v 0.2 0.9 -0.3
v 0.2 1 0.2
v 0.2 1 0.1
v 0.2 1 -0.1
v 0.2 1 -0.3
v 0.3 0.6 0.1
v 0.3 0.6 -0.4
v 0.3 0.8 0.2
v 0.3 0.8 0.1
v 0.3 0.9 0.1
v 0.3 0.9 -0.1
v 0.3 1 0.2
v 0.3 1 0.1
v 0.3 1 -0.1
v 0.3 1 -0.4
v 0.1 0.8 0.2
v 0.1 0.9 0.2
v 0.2 0.9 0.2
v 0.2 1 0.2
v 0.3 0.8 0.2
v 0.3 1 0.2
v 0 0.6 0.1
v 0 0.7 0.1
v 0.1 0.7 0.1
v 0.1 0.8 0.1
v 0.3 0.6 0.1
v 0.3 0.8 0.1
v -0.1 0.6 0
v -0.1 0.7 0
v 0 0.6 0
v 0 0.7 0
v 0.1 0.8 0
v 0.1 0.9 0
v 0.2 0.8 0
v 0.2 0.9 0
v -0.2 0.6 -0.1
v -0.2 0.8 -0.1
v -0.1 0.6 -0.1
v -0.1 0.7 -0.1
v 0 0.8 -0.1
v 0 0.9 -0.1
v 0.1 0.7 -0.1
v 0.1 0.9 -0.1
v 0.2 0.9 -0.1
v 0.2 1 -0.1
v 0.3 0.9 -0.1
v 0.3 1 -0.1
v -0.3 0.8 -0.2
v -0.3 0.9 -0.2
v -0.2 0.8 -0.2
v 0 0.8 -0.2
v 0 0.9 -0.2
v -0.3 0.9 -0.3
v -0.3 1 -0.3
v 0.2 0.9 -0.3
v 0.2 1 -0.3
v 0.1 0.8 0.1
v 0.1 0.9 0.1
v 0.2 0.8 0.1
v 0.2 0.9 0.1
v 0.2 1 0.1
v 0.3 0.9 0.1
v 0.3 1 0.1
v -0.3 0.8 -0.4
v -0.3 1 -0.4
v -0.2 0.6 -0.4
v -0.2 0.8 -0.4
v 0.3 0.6 -0.4
v 0.3 1 -0.4
v 0 0.6 0.1
v 0.3 0.6 0.1
v -0.1 0.6 0
v 0 0.6 0
v -0.2 0.6 -0.1
v -0.1 0.6 -0.1
v -0.2 0.6 -0.4
v 0.3 0.6 -0.4
v 0.1 0.8 0.2
v 0.3 0.8 0.2
v 0.1 0.8 0.1
v 0.3 0.8 0.1
v -0.3 0.8 -0.2
v -0.2 0.8 -0.2
v -0.3 0.8 -0.4
v -0.2 0.8 -0.4
v 0 0.7 0.1
v 0.1 0.7 0.1
v -0.1 0.7 0
v 0 0.7 0
v -0.1 0.7 -0.1
v 0.1 0.7 -0.1
v 0.1 0.8 0.1
v 0.2 0.8 0.1
v 0.1 0.8 0
v 0.2 0.8 0
v -0.2 0.8 -0.1
v 0 0.8 -0.1
v -0.2 0.8 -0.2
v 0 0.8 -0.2
v 0.1 0.9 0.2
v 0.2 0.9 0.2
v 0.1 0.9 0.1
v 0.2 0.9 0.1
v 0.3 0.9 0.1
v 0.1 0.9 0
v 0.2 0.9 0
v 0 0.9 -0.1
v 0.1 0.9 -0.1
v 0.2 0.9 -0.1
v 0.3 0.9 -0.1
v -0.3 0.9 -0.2
v 0 0.9 -0.2
v -0.3 0.9 -0.3
v 0.2 0.9 -0.3
v 0.2 1 0.2
v 0.3 1 0.2
v 0.2 1 0.1
v 0.3 1 0.1
v 0.2 1 -0.1
v 0.3 1 -0.1
v -0.3 1 -0.3
v 0.2 1 -0.3
v -0.3 1 -0.4
v 0.3 1 -0.4

# faces
f 3/1/1 2/1/1 1/1/1
f 4/1/1 2/1/1 3/1/1
f 5/1/1 2/1/1 4/1/1
f 6/1/1 2/1/1 5/1/1
f 9/1/1 8/1/1 7/1/1
f 10/1/1 8/1/1 9/1/1
f 11/1/1 8/1/1 10/1/1
f 14/1/1 13/1/1 12/1/1
f 15/1/1 13/1/1 14/1/1
f 18/1/1 17/1/1 16/1/1
f 19/1/1 17/1/1 18/1/1
f 22/1/1 21/1/1 20/1/1
f 23/1/1 21/1/1 22/1/1
f 27/1/1 25/1/1 24/1/1
f 28/1/1 25/1/1 27/1/1
f 29/1/1 27/1/1 26/1/1
f 30/1/1 27/1/1 29/1/1
f 31/1/1 25/1/1 28/1/1
f 32/1/1 25/1/1 31/1/1
f 36/1/1 34/1/1 33/1/1
f 37/1/1 34/1/1 36/1/1
f 40/1/1 36/1/1 35/1/1
f 41/1/1 36/1/1 40/1/1
f 42/1/1 39/1/1 38/1/1
f 43/1/1 39/1/1 42/1/1
f 44/1/2 45/1/2 47/1/2
f 47/1/2 45/1/2 48/1/2
f 46/1/2 47/1/2 48/1/2
f 48/1/2 45/1/2 49/1/2
f 46/1/2 48/1/2 50/1/2
f 50/1/2 48/1/2 51/1/2
f 49/1/2 45/1/2 52/1/2
f 52/1/2 45/1/2 53/1/2
f 56/1/3 55/1/3 54/1/3
f 58/1/3 56/1/3 54/1/3
f 58/1/3 57/1/3 56/1/3
f 59/1/3 57/1/3 58/1/3
f 62/1/3 61/1/3 60/1/3
f 64/1/3 62/1/3 60/1/3
f 64/1/3 63/1/3 62/1/3
f 65/1/3 63/1/3 64/1/3
f 68/1/3 67/1/3 66/1/3
f 69/1/3 67/1/3 68/1/3
f 72/1/3 71/1/3 70/1/3
f 73/1/3 71/1/3 72/1/3
f 76/1/3 75/1/3 74/1/3
f 77/1/3 75/1/3 76/1/3
f 78/1/3 75/1/3 77/1/3
f 80/1/3 78/1/3 77/1/3
f 80/1/3 79/1/3 78/1/3
f 81/1/3 79/1/3 80/1/3
f 84/1/3 83/1/3 82/1/3
f 85/1/3 83/1/3 84/1/3
f 88/1/3 87/1/3 86/1/3
f 89/1/3 87/1/3 88/1/3
f 90/1/3 87/1/3 89/1/3
f 93/1/3 92/1/3 91/1/3
f 94/1/3 92/1/3 93/1/3
f 95/1/4 96/1/4 97/1/4
f 97/1/4 96/1/4 98/1/4
f 98/1/4 99/1/4 100/1/4
f 100/1/4 99/1/4 101/1/4
f 102/1/4 103/1/4 105/1/4
f 104/1/4 105/1/4 106/1/4
f 105/1/4 103/1/4 107/1/4
f 106/1/4 105/1/4 107/1/4
f 111/1/5 109/1/5 108/1/5
f 113/1/5 111/1/5 110/1/5
f 114/1/5 113/1/5 112/1/5
f 115/1/5 109/1/5 111/1/5
f 115/1/5 113/1/5 114/1/5
f 115/1/5 111/1/5 113/1/5
f 118/1/5 117/1/5 116/1/5
f 119/1/5 117/1/5 118/1/5
f 122/1/5 121/1/5 120/1/5
f 123/1/5 121/1/5 122/1/5
f 124/1/6 125/1/6 127/1/6
f 126/1/6 127/1/6 128/1/6
f 127/1/6 125/1/6 129/1/6
f 128/1/6 127/1/6 129/1/6
f 130/1/6 131/1/6 132/1/6
f 132/1/6 131/1/6 133/1/6
f 134/1/6 135/1/6 136/1/6
f 136/1/6 135/1/6 137/1/6
f 138/1/6 139/1/6 140/1/6
f 140/1/6 139/1/6 141/1/6
f 141/1/6 142/1/6 144/1/6
f 143/1/6 144/1/6 146/1/6
f 144/1/6 142/1/6 147/1/6
f 146/1/6 144/1/6 147/1/6
f 147/1/6 142/1/6 148/1/6
f 145/1/6 146/1/6 150/1/6
f 146/1/6 147/1/6 150/1/6
f 149/1/6 150/1/6 151/1/6
f 150/1/6 147/1/6 152/1/6
f 151/1/6 150/1/6 152/1/6
f 153/1/6 154/1/6 155/1/6
f 155/1/6 154/1/6 156/1/6
f 157/1/6 158/1/6 160/1/6
f 159/1/6 160/1/6 161/1/6
f 160/1/6 158/1/6 162/1/6
f 161/1/6 160/1/6 162/1/6
