# MagicaVoxel @ Ephtracy

# group
o 

# material
mtllib lanterna.mtl
usemtl palette

# normals
vn -1 0 0
vn 1 0 0
vn 0 0 1
vn 0 0 -1
vn 0 -1 0
vn 0 1 0

# texcoords
vt 0.396484 0.5
vt 0.537109 0.5
vt 0.990234 0.5
vt 0.994141 0.5

# verts
v 0 2.38419e-07 0.1
v 0 2.38419e-07 -0.2
v 0 0.1 0.2
v 0 0.1 0.1
v 0 0.1 -0.2
v 0 0.1 -0.3
v 0 0.6 0.2
v 0 0.6 0.1
v 0 0.6 -0.2
v 0 0.6 -0.3
v 0 0.7 0.1
v 0 0.7 -0.2
v 0.3 -2 0.3
v 0.3 -2 -0.4
v 0.3 -1.9 0.2
v 0.3 -1.9 -0.3
v 0.3 -1.1 0.2
v 0.3 -1.1 -0.3
v 0.3 -1 0.3
v 0.3 -1 -0.4
v 0.4 -1.9 0.2
v 0.4 -1.9 -0.3
v 0.4 -1.1 0.2
v 0.4 -1.1 -0.3
v 0.5 -0.9 0
v 0.5 -0.9 -0.1
v 0.5 -0.6 0
v 0.5 -0.6 -0.1
v 0.5 -0.5 0
v 0.5 -0.5 -0.1
v 0.5 -0.2 0
v 0.5 -0.2 -0.1
v 0.5 -0.0999999 0
v 0.5 -0.0999999 -0.1
v 0.5 0.2 0
v 0.5 0.2 -0.1
v 0.6 -1 0.1
v 0.6 -1 0
v 0.6 -1 -0.1
v 0.6 -1 -0.2
v 0.6 -0.9 0
v 0.6 -0.9 -0.1
v 0.6 -0.8 0.1
v 0.6 -0.8 0
v 0.6 -0.8 -0.1
v 0.6 -0.8 -0.2
v 0.6 -0.7 0.1
v 0.6 -0.7 0
v 0.6 -0.7 -0.1
v 0.6 -0.7 -0.2
v 0.6 -0.6 0
v 0.6 -0.6 -0.1
v 0.6 -0.5 0
v 0.6 -0.5 -0.1
v 0.6 -0.4 0.1
v 0.6 -0.4 0
v 0.6 -0.4 -0.1
v 0.6 -0.4 -0.2
v 0.6 -0.3 0.1
v 0.6 -0.3 0
v 0.6 -0.3 -0.1
v 0.6 -0.3 -0.2
v 0.6 -0.2 0
v 0.6 -0.2 -0.1
v 0.6 -0.0999999 0
v 0.6 -0.0999999 -0.1
v 0.6 2.38419e-07 0.1
v 0.6 2.38419e-07 0
v 0.6 2.38419e-07 -0.1
v 0.6 2.38419e-07 -0.2
v 0.6 0.1 0.1
v 0.6 0.1 0
v 0.6 0.1 -0.1
v 0.6 0.1 -0.2
v 0.6 0.2 0
v 0.6 0.2 -0.1
v 0.6 0.3 0
v 0.6 0.3 -0.1
v 0.6 0.4 0.1
v 0.6 0.4 0
v 0.6 0.4 -0.1
v 0.6 0.4 -0.2
v 0.7 -0.8 0
v 0.7 -0.8 -0.1
v 0.7 -0.7 0
v 0.7 -0.7 -0.1
v 0.7 -0.4 0
v 0.7 -0.4 -0.1
v 0.7 -0.3 0
v 0.7 -0.3 -0.1
v 0.7 2.38419e-07 0
v 0.7 2.38419e-07 -0.1
v 0.7 0.1 0
v 0.7 0.1 -0.1
v 0.9 -1.9 0.3
v 0.9 -1.9 0.2
v 0.9 -1.9 -0.3
v 0.9 -1.9 -0.4
v 0.9 -1.1 0.3
v 0.9 -1.1 0.2
v 0.9 -1.1 -0.3
v 0.9 -1.1 -0.4
v 0.1 2.38419e-07 0.1
v 0.1 2.38419e-07 -0.2
v 0.1 0.1 0.2
v 0.1 0.1 0.1
v 0.1 0.1 -0.2
v 0.1 0.1 -0.3
v 0.1 0.3 0
v 0.1 0.3 -0.1
v 0.1 0.4 0
v 0.1 0.4 -0.1
v 0.1 0.6 0.2
v 0.1 0.6 0.1
v 0.1 0.6 -0.2
v 0.1 0.6 -0.3
v 0.1 0.7 0.1
v 0.1 0.7 -0.2
v 0.4 -1.9 0.3
v 0.4 -1.9 0.2
v 0.4 -1.9 -0.3
v 0.4 -1.9 -0.4
v 0.4 -1.1 0.3
v 0.4 -1.1 0.2
v 0.4 -1.1 -0.3
v 0.4 -1.1 -0.4
v 0.6 -0.8 0
v 0.6 -0.8 -0.1
v 0.6 -0.7 0
v 0.6 -0.7 -0.1
v 0.6 -0.4 0
v 0.6 -0.4 -0.1
v 0.6 -0.3 0
v 0.6 -0.3 -0.1
v 0.6 2.38419e-07 0
v 0.6 2.38419e-07 -0.1
v 0.6 0.1 0
v 0.6 0.1 -0.1
v 0.7 -1 0.1
v 0.7 -1 0
v 0.7 -1 -0.1
v 0.7 -1 -0.2
v 0.7 -0.9 0
v 0.7 -0.9 -0.1
v 0.7 -0.8 0.1
v 0.7 -0.8 0
v 0.7 -0.8 -0.1
v 0.7 -0.8 -0.2
v 0.7 -0.7 0.1
v 0.7 -0.7 0
v 0.7 -0.7 -0.1
v 0.7 -0.7 -0.2
v 0.7 -0.6 0
v 0.7 -0.6 -0.1
v 0.7 -0.5 0
v 0.7 -0.5 -0.1
v 0.7 -0.4 0.1
v 0.7 -0.4 0
v 0.7 -0.4 -0.1
v 0.7 -0.4 -0.2
v 0.7 -0.3 0.1
v 0.7 -0.3 0
v 0.7 -0.3 -0.1
v 0.7 -0.3 -0.2
v 0.7 -0.2 0
v 0.7 -0.2 -0.1
v 0.7 -0.0999999 0
v 0.7 -0.0999999 -0.1
v 0.7 2.38419e-07 0.1
v 0.7 2.38419e-07 0
v 0.7 2.38419e-07 -0.1
v 0.7 2.38419e-07 -0.2
v 0.7 0.1 0.1
v 0.7 0.1 0
v 0.7 0.1 -0.1
v 0.7 0.1 -0.2
v 0.7 0.2 0
v 0.7 0.2 -0.1
v 0.7 0.3 0
v 0.7 0.3 -0.1
v 0.7 0.4 0.1
v 0.7 0.4 -0.2
v 0.8 -0.9 0
v 0.8 -0.9 -0.1
v 0.8 -0.6 0
v 0.8 -0.6 -0.1
v 0.8 -0.5 0
v 0.8 -0.5 -0.1
v 0.8 -0.2 0
v 0.8 -0.2 -0.1
v 0.8 -0.0999999 0
v 0.8 -0.0999999 -0.1
v 0.8 0.2 0
v 0.8 0.2 -0.1
v 0.9 -1.9 0.2
v 0.9 -1.9 -0.3
v 0.9 -1.1 0.2
v 0.9 -1.1 -0.3
v 1 -2 0.3
v 1 -2 -0.4
v 1 -1.9 0.2
v 1 -1.9 -0.3
v 1 -1.1 0.2
v 1 -1.1 -0.3
v 1 -1 0.3
v 1 -1 -0.4
v 0.3 -2 0.3
v 0.3 -1 0.3
v 0.4 -1.9 0.3
v 0.4 -1.1 0.3
v 0.9 -1.9 0.3
v 0.9 -1.1 0.3
v 1 -2 0.3
v 1 -1 0.3
v 0 0.1 0.2
v 0 0.6 0.2
v 0.1 0.1 0.2
v 0.1 0.6 0.2
v 0.4 -1.9 0.2
v 0.4 -1.1 0.2
v 0.9 -1.9 0.2
v 0.9 -1.1 0.2
v 0 2.38419e-07 0.1
v 0 0.1 0.1
v 0 0.6 0.1
v 0 0.7 0.1
v 0.1 2.38419e-07 0.1
v 0.1 0.1 0.1
v 0.1 0.6 0.1
v 0.1 0.7 0.1
v 0.6 -1 0.1
v 0.6 -0.8 0.1
v 0.6 -0.7 0.1
v 0.6 -0.4 0.1
v 0.6 -0.3 0.1
v 0.6 2.38419e-07 0.1
v 0.6 0.1 0.1
v 0.6 0.4 0.1
v 0.7 -1 0.1
v 0.7 -0.8 0.1
v 0.7 -0.7 0.1
v 0.7 -0.4 0.1
v 0.7 -0.3 0.1
v 0.7 2.38419e-07 0.1
v 0.7 0.1 0.1
v 0.7 0.4 0.1
v 0.1 0.3 0
v 0.1 0.4 0
v 0.5 -0.9 0
v 0.5 -0.6 0
v 0.5 -0.5 0
v 0.5 -0.2 0
v 0.5 -0.0999999 0
v 0.5 0.2 0
v 0.6 -0.9 0
v 0.6 -0.8 0
v 0.6 -0.7 0
v 0.6 -0.6 0
v 0.6 -0.5 0
v 0.6 -0.4 0
v 0.6 -0.3 0
v 0.6 -0.2 0
v 0.6 -0.0999999 0
v 0.6 2.38419e-07 0
v 0.6 0.1 0
v 0.6 0.2 0
v 0.6 0.3 0
v 0.6 0.4 0
v 0.7 -0.9 0
v 0.7 -0.8 0
v 0.7 -0.7 0
v 0.7 -0.6 0
v 0.7 -0.5 0
v 0.7 -0.4 0
v 0.7 -0.3 0
v 0.7 -0.2 0
v 0.7 -0.0999999 0
v 0.7 2.38419e-07 0
v 0.7 0.1 0
v 0.7 0.2 0
v 0.8 -0.9 0
v 0.8 -0.6 0
v 0.8 -0.5 0
v 0.8 -0.2 0
v 0.8 -0.0999999 0
v 0.8 0.2 0
v 0.6 -1 -0.1
v 0.6 -0.9 -0.1
v 0.6 -0.6 -0.1
v 0.6 -0.5 -0.1
v 0.6 -0.2 -0.1
v 0.6 -0.0999999 -0.1
v 0.6 0.2 -0.1
v 0.6 0.3 -0.1
v 0.7 -1 -0.1
v 0.7 -0.9 -0.1
v 0.7 -0.6 -0.1
v 0.7 -0.5 -0.1
v 0.7 -0.2 -0.1
v 0.7 -0.0999999 -0.1
v 0.7 0.2 -0.1
v 0.7 0.3 -0.1
v 0.3 -1.9 -0.3
v 0.3 -1.1 -0.3
v 0.4 -1.9 -0.3
v 0.4 -1.1 -0.3
v 0.9 -1.9 -0.3
v 0.9 -1.1 -0.3
v 1 -1.9 -0.3
v 1 -1.1 -0.3
v 0.3 -1.9 0.2
v 0.3 -1.1 0.2
v 0.4 -1.9 0.2
v 0.4 -1.1 0.2
v 0.9 -1.9 0.2
v 0.9 -1.1 0.2
v 1 -1.9 0.2
v 1 -1.1 0.2
v 0.6 -1 0
v 0.6 -0.9 0
v 0.6 -0.6 0
v 0.6 -0.5 0
v 0.6 -0.2 0
v 0.6 -0.0999999 0
v 0.6 0.2 0
v 0.6 0.3 0
v 0.7 -1 0
v 0.7 -0.9 0
v 0.7 -0.6 0
v 0.7 -0.5 0
v 0.7 -0.2 0
v 0.7 -0.0999999 0
v 0.7 0.2 0
v 0.7 0.3 0
v 0.1 0.3 -0.1
v 0.1 0.4 -0.1
v 0.5 -0.9 -0.1
v 0.5 -0.6 -0.1
v 0.5 -0.5 -0.1
v 0.5 -0.2 -0.1
v 0.5 -0.0999999 -0.1
v 0.5 0.2 -0.1
v 0.6 -0.9 -0.1
v 0.6 -0.8 -0.1
v 0.6 -0.7 -0.1
v 0.6 -0.6 -0.1
v 0.6 -0.5 -0.1
v 0.6 -0.4 -0.1
v 0.6 -0.3 -0.1
v 0.6 -0.2 -0.1
v 0.6 -0.0999999 -0.1
v 0.6 2.38419e-07 -0.1
v 0.6 0.1 -0.1
v 0.6 0.2 -0.1
v 0.6 0.3 -0.1
v 0.6 0.4 -0.1
v 0.7 -0.9 -0.1
v 0.7 -0.8 -0.1
v 0.7 -0.7 -0.1
v 0.7 -0.6 -0.1
v 0.7 -0.5 -0.1
v 0.7 -0.4 -0.1
v 0.7 -0.3 -0.1
v 0.7 -0.2 -0.1
v 0.7 -0.0999999 -0.1
v 0.7 2.38419e-07 -0.1
v 0.7 0.1 -0.1
v 0.7 0.2 -0.1
v 0.8 -0.9 -0.1
v 0.8 -0.6 -0.1
v 0.8 -0.5 -0.1
v 0.8 -0.2 -0.1
v 0.8 -0.0999999 -0.1
v 0.8 0.2 -0.1
v 0 2.38419e-07 -0.2
v 0 0.1 -0.2
v 0 0.6 -0.2
v 0 0.7 -0.2
v 0.1 2.38419e-07 -0.2
v 0.1 0.1 -0.2
v 0.1 0.6 -0.2
v 0.1 0.7 -0.2
v 0.6 -1 -0.2
v 0.6 -0.8 -0.2
v 0.6 -0.7 -0.2
v 0.6 -0.4 -0.2
v 0.6 -0.3 -0.2
v 0.6 2.38419e-07 -0.2
v 0.6 0.1 -0.2
v 0.6 0.4 -0.2
v 0.7 -1 -0.2
v 0.7 -0.8 -0.2
v 0.7 -0.7 -0.2
v 0.7 -0.4 -0.2
v 0.7 -0.3 -0.2
v 0.7 2.38419e-07 -0.2
v 0.7 0.1 -0.2
v 0.7 0.4 -0.2
v 0 0.1 -0.3
v 0 0.6 -0.3
v 0.1 0.1 -0.3
v 0.1 0.6 -0.3
v 0.4 -1.9 -0.3
v 0.4 -1.1 -0.3
v 0.9 -1.9 -0.3
v 0.9 -1.1 -0.3
v 0.3 -2 -0.4
v 0.3 -1 -0.4
v 0.4 -1.9 -0.4
v 0.4 -1.1 -0.4
v 0.9 -1.9 -0.4
v 0.9 -1.1 -0.4
v 1 -2 -0.4
v 1 -1 -0.4
v 0.3 -2 0.3
v 1 -2 0.3
v 0.3 -2 -0.4
v 1 -2 -0.4
v 0.4 -1.1 0.3
v 0.9 -1.1 0.3
v 0.3 -1.1 0.2
v 0.4 -1.1 0.2
v 0.9 -1.1 0.2
v 1 -1.1 0.2
v 0.3 -1.1 -0.3
v 0.4 -1.1 -0.3
v 0.9 -1.1 -0.3
v 1 -1.1 -0.3
v 0.4 -1.1 -0.4
v 0.9 -1.1 -0.4
v 0.5 -0.9 0
v 0.6 -0.9 0
v 0.7 -0.9 0
v 0.8 -0.9 0
v 0.5 -0.9 -0.1
v 0.6 -0.9 -0.1
v 0.7 -0.9 -0.1
v 0.8 -0.9 -0.1
v 0.6 -0.7 0.1
v 0.7 -0.7 0.1
v 0.6 -0.7 0
v 0.7 -0.7 0
v 0.6 -0.7 -0.1
v 0.7 -0.7 -0.1
v 0.6 -0.7 -0.2
v 0.7 -0.7 -0.2
v 0.5 -0.5 0
v 0.6 -0.5 0
v 0.7 -0.5 0
v 0.8 -0.5 0
v 0.5 -0.5 -0.1
v 0.6 -0.5 -0.1
v 0.7 -0.5 -0.1
v 0.8 -0.5 -0.1
v 0.6 -0.3 0.1
v 0.7 -0.3 0.1
v 0.6 -0.3 0
v 0.7 -0.3 0
v 0.6 -0.3 -0.1
v 0.7 -0.3 -0.1
v 0.6 -0.3 -0.2
v 0.7 -0.3 -0.2
v 0.5 -0.0999999 0
v 0.6 -0.0999999 0
v 0.7 -0.0999999 0
v 0.8 -0.0999999 0
v 0.5 -0.0999999 -0.1
v 0.6 -0.0999999 -0.1
v 0.7 -0.0999999 -0.1
v 0.8 -0.0999999 -0.1
v 0 2.38419e-07 0.1
v 0.1 2.38419e-07 0.1
v 0 2.38419e-07 -0.2
v 0.1 2.38419e-07 -0.2
v 0 0.1 0.2
v 0.1 0.1 0.2
v 0 0.1 0.1
v 0.1 0.1 0.1
v 0.6 0.1 0.1
v 0.7 0.1 0.1
v 0.6 0.1 0
v 0.7 0.1 0
v 0.6 0.1 -0.1
v 0.7 0.1 -0.1
v 0 0.1 -0.2
v 0.1 0.1 -0.2
v 0.6 0.1 -0.2
v 0.7 0.1 -0.2
v 0 0.1 -0.3
v 0.1 0.1 -0.3
v 0.1 0.3 0
v 0.6 0.3 0
v 0.7 0.3 0
v 0.1 0.3 -0.1
v 0.6 0.3 -0.1
v 0.7 0.3 -0.1
v 0.4 -1.9 0.3
v 0.9 -1.9 0.3
v 0.3 -1.9 0.2
v 0.4 -1.9 0.2
v 0.9 -1.9 0.2
v 1 -1.9 0.2
v 0.3 -1.9 -0.3
v 0.4 -1.9 -0.3
v 0.9 -1.9 -0.3
v 1 -1.9 -0.3
v 0.4 -1.9 -0.4
v 0.9 -1.9 -0.4
v 0.3 -1 0.3
v 1 -1 0.3
v 0.6 -1 0.1
v 0.7 -1 0.1
v 0.6 -1 0
v 0.7 -1 0
v 0.6 -1 -0.1
v 0.7 -1 -0.1
v 0.6 -1 -0.2
v 0.7 -1 -0.2
v 0.3 -1 -0.4
v 1 -1 -0.4
v 0.6 -0.8 0.1
v 0.7 -0.8 0.1
v 0.6 -0.8 0
v 0.7 -0.8 0
v 0.6 -0.8 -0.1
v 0.7 -0.8 -0.1
v 0.6 -0.8 -0.2
v 0.7 -0.8 -0.2
v 0.5 -0.6 0
v 0.6 -0.6 0
v 0.7 -0.6 0
v 0.8 -0.6 0
v 0.5 -0.6 -0.1
v 0.6 -0.6 -0.1
v 0.7 -0.6 -0.1
v 0.8 -0.6 -0.1
v 0.6 -0.4 0.1
v 0.7 -0.4 0.1
v 0.6 -0.4 0
v 0.7 -0.4 0
v 0.6 -0.4 -0.1
v 0.7 -0.4 -0.1
v 0.6 -0.4 -0.2
v 0.7 -0.4 -0.2
v 0.5 -0.2 0
v 0.6 -0.2 0
v 0.7 -0.2 0
v 0.8 -0.2 0
v 0.5 -0.2 -0.1
v 0.6 -0.2 -0.1
v 0.7 -0.2 -0.1
v 0.8 -0.2 -0.1
v 0.6 2.38419e-07 0.1
v 0.7 2.38419e-07 0.1
v 0.6 2.38419e-07 0
v 0.7 2.38419e-07 0
v 0.6 2.38419e-07 -0.1
v 0.7 2.38419e-07 -0.1
v 0.6 2.38419e-07 -0.2
v 0.7 2.38419e-07 -0.2
v 0.5 0.2 0
v 0.6 0.2 0
v 0.7 0.2 0
v 0.8 0.2 0
v 0.5 0.2 -0.1
v 0.6 0.2 -0.1
v 0.7 0.2 -0.1
v 0.8 0.2 -0.1
v 0.6 0.4 0.1
v 0.7 0.4 0.1
v 0.1 0.4 0
v 0.6 0.4 0
v 0.1 0.4 -0.1
v 0.6 0.4 -0.1
v 0.6 0.4 -0.2
v 0.7 0.4 -0.2
v 0 0.6 0.2
v 0.1 0.6 0.2
v 0 0.6 0.1
v 0.1 0.6 0.1
v 0 0.6 -0.2
v 0.1 0.6 -0.2
v 0 0.6 -0.3
v 0.1 0.6 -0.3
v 0 0.7 0.1
v 0.1 0.7 0.1
v 0 0.7 -0.2
v 0.1 0.7 -0.2

# faces
f 4/2/1 2/2/1 1/2/1
f 5/2/1 2/2/1 4/2/1
f 7/2/1 4/2/1 3/2/1
f 8/1/1 5/1/1 4/1/1
f 8/2/1 4/2/1 7/2/1
f 9/2/1 6/2/1 5/2/1
f 9/1/1 5/1/1 8/1/1
f 10/2/1 6/2/1 9/2/1
f 11/2/1 9/2/1 8/2/1
f 12/2/1 9/2/1 11/2/1
f 15/4/1 14/4/1 13/4/1
f 16/4/1 14/4/1 15/4/1
f 17/4/1 15/4/1 13/4/1
f 18/4/1 14/4/1 16/4/1
f 19/4/1 17/4/1 13/4/1
f 19/4/1 18/4/1 17/4/1
f 20/4/1 14/4/1 18/4/1
f 20/4/1 18/4/1 19/4/1
f 23/3/1 22/3/1 21/3/1
f 24/3/1 22/3/1 23/3/1
f 27/3/1 26/3/1 25/3/1
f 28/3/1 26/3/1 27/3/1
f 31/3/1 30/3/1 29/3/1
f 32/3/1 30/3/1 31/3/1
f 35/3/1 34/3/1 33/3/1
f 36/3/1 34/3/1 35/3/1
f 41/3/1 38/3/1 37/3/1
f 42/3/1 40/3/1 39/3/1
f 43/3/1 41/3/1 37/3/1
f 44/3/1 41/3/1 43/3/1
f 45/3/1 40/3/1 42/3/1
f 46/3/1 40/3/1 45/3/1
f 51/3/1 48/3/1 47/3/1
f 52/3/1 50/3/1 49/3/1
f 53/3/1 51/3/1 47/3/1
f 54/3/1 50/3/1 52/3/1
f 55/3/1 53/3/1 47/3/1
f 56/3/1 53/3/1 55/3/1
f 57/3/1 50/3/1 54/3/1
f 58/3/1 50/3/1 57/3/1
f 63/3/1 60/3/1 59/3/1
f 64/3/1 62/3/1 61/3/1
f 65/3/1 63/3/1 59/3/1
f 66/3/1 62/3/1 64/3/1
f 67/3/1 65/3/1 59/3/1
f 68/3/1 65/3/1 67/3/1
f 69/3/1 62/3/1 66/3/1
f 70/3/1 62/3/1 69/3/1
f 75/3/1 72/3/1 71/3/1
f 76/3/1 74/3/1 73/3/1
f 77/3/1 75/3/1 71/3/1
f 78/3/1 74/3/1 76/3/1
f 79/3/1 77/3/1 71/3/1
f 80/3/1 77/3/1 79/3/1
f 81/3/1 74/3/1 78/3/1
f 82/3/1 74/3/1 81/3/1
f 85/3/1 84/3/1 83/3/1
f 86/3/1 84/3/1 85/3/1
f 89/3/1 88/3/1 87/3/1
f 90/3/1 88/3/1 89/3/1
f 93/3/1 92/3/1 91/3/1
f 94/3/1 92/3/1 93/3/1
f 99/4/1 96/4/1 95/4/1
f 100/4/1 96/4/1 99/4/1
f 101/4/1 98/4/1 97/4/1
f 102/4/1 98/4/1 101/4/1
f 103/2/2 104/2/2 106/2/2
f 106/2/2 104/2/2 107/2/2
f 106/1/2 107/1/2 109/1/2
f 109/1/2 107/1/2 110/1/2
f 106/1/2 109/1/2 111/1/2
f 110/1/2 107/1/2 112/1/2
f 105/2/2 106/2/2 113/2/2
f 111/1/2 112/1/2 114/1/2
f 113/2/2 106/2/2 114/2/2
f 106/1/2 111/1/2 114/1/2
f 107/2/2 108/2/2 115/2/2
f 114/1/2 112/1/2 115/1/2
f 112/1/2 107/1/2 115/1/2
f 115/2/2 108/2/2 116/2/2
f 114/2/2 115/2/2 117/2/2
f 117/2/2 115/2/2 118/2/2
f 119/4/2 120/4/2 123/4/2
f 123/4/2 120/4/2 124/4/2
f 121/4/2 122/4/2 125/4/2
f 125/4/2 122/4/2 126/4/2
f 127/3/2 128/3/2 129/3/2
f 129/3/2 128/3/2 130/3/2
f 131/3/2 132/3/2 133/3/2
f 133/3/2 132/3/2 134/3/2
f 135/3/2 136/3/2 137/3/2
f 137/3/2 136/3/2 138/3/2
f 139/3/2 140/3/2 143/3/2
f 141/3/2 142/3/2 144/3/2
f 139/3/2 143/3/2 145/3/2
f 145/3/2 143/3/2 146/3/2
f 144/3/2 142/3/2 147/3/2
f 147/3/2 142/3/2 148/3/2
f 149/3/2 150/3/2 153/3/2
f 151/3/2 152/3/2 154/3/2
f 149/3/2 153/3/2 155/3/2
f 154/3/2 152/3/2 156/3/2
f 149/3/2 155/3/2 157/3/2
f 157/3/2 155/3/2 158/3/2
f 156/3/2 152/3/2 159/3/2
f 159/3/2 152/3/2 160/3/2
f 161/3/2 162/3/2 165/3/2
f 163/3/2 164/3/2 166/3/2
f 161/3/2 165/3/2 167/3/2
f 166/3/2 164/3/2 168/3/2
f 161/3/2 167/3/2 169/3/2
f 169/3/2 167/3/2 170/3/2
f 168/3/2 164/3/2 171/3/2
f 171/3/2 164/3/2 172/3/2
f 173/3/2 174/3/2 177/3/2
f 175/3/2 176/3/2 178/3/2
f 173/3/2 177/3/2 179/3/2
f 178/3/2 176/3/2 180/3/2
f 173/3/2 179/3/2 181/3/2
f 179/3/2 180/3/2 181/3/2
f 180/3/2 176/3/2 182/3/2
f 181/3/2 180/3/2 182/3/2
f 183/3/2 184/3/2 185/3/2
f 185/3/2 184/3/2 186/3/2
f 187/3/2 188/3/2 189/3/2
f 189/3/2 188/3/2 190/3/2
f 191/3/2 192/3/2 193/3/2
f 193/3/2 192/3/2 194/3/2
f 195/3/2 196/3/2 197/3/2
f 197/3/2 196/3/2 198/3/2
f 199/4/2 200/4/2 201/4/2
f 201/4/2 200/4/2 202/4/2
f 199/4/2 201/4/2 203/4/2
f 202/4/2 200/4/2 204/4/2
f 199/4/2 203/4/2 205/4/2
f 203/4/2 204/4/2 205/4/2
f 204/4/2 200/4/2 206/4/2
f 205/4/2 204/4/2 206/4/2
f 209/4/3 208/4/3 207/4/3
f 210/4/3 208/4/3 209/4/3
f 211/4/3 209/4/3 207/4/3
f 212/4/3 208/4/3 210/4/3
f 213/4/3 211/4/3 207/4/3
f 213/4/3 212/4/3 211/4/3
f 214/4/3 208/4/3 212/4/3
f 214/4/3 212/4/3 213/4/3
f 217/2/3 216/2/3 215/2/3
f 218/2/3 216/2/3 217/2/3
f 221/3/3 220/3/3 219/3/3
f 222/3/3 220/3/3 221/3/3
f 227/2/3 224/2/3 223/2/3
f 228/2/3 224/2/3 227/2/3
f 229/2/3 226/2/3 225/2/3
f 230/2/3 226/2/3 229/2/3
f 239/3/3 232/3/3 231/3/3
f 240/3/3 232/3/3 239/3/3
f 241/3/3 234/3/3 233/3/3
f 242/3/3 234/3/3 241/3/3
f 243/3/3 236/3/3 235/3/3
f 244/3/3 236/3/3 243/3/3
f 245/3/3 238/3/3 237/3/3
f 246/3/3 238/3/3 245/3/3
f 255/3/3 250/3/3 249/3/3
f 256/3/3 250/3/3 255/3/3
f 257/3/3 250/3/3 256/3/3
f 258/3/3 250/3/3 257/3/3
f 259/3/3 252/3/3 251/3/3
f 260/3/3 252/3/3 259/3/3
f 261/3/3 252/3/3 260/3/3
f 262/3/3 252/3/3 261/3/3
f 263/3/3 254/3/3 253/3/3
f 264/3/3 254/3/3 263/3/3
f 265/3/3 254/3/3 264/3/3
f 266/3/3 254/3/3 265/3/3
f 267/2/3 248/2/3 247/2/3
f 268/2/3 248/2/3 267/2/3
f 281/3/3 270/3/3 269/3/3
f 281/3/3 271/3/3 270/3/3
f 281/3/3 272/3/3 271/3/3
f 282/3/3 272/3/3 281/3/3
f 283/3/3 274/3/3 273/3/3
f 283/3/3 275/3/3 274/3/3
f 283/3/3 276/3/3 275/3/3
f 284/3/3 276/3/3 283/3/3
f 285/3/3 280/3/3 279/3/3
f 285/3/3 279/3/3 278/3/3
f 285/3/3 278/3/3 277/3/3
f 286/3/3 280/3/3 285/3/3
f 295/3/3 288/3/3 287/3/3
f 296/3/3 288/3/3 295/3/3
f 297/3/3 290/3/3 289/3/3
f 298/3/3 290/3/3 297/3/3
f 299/3/3 292/3/3 291/3/3
f 300/3/3 292/3/3 299/3/3
f 301/3/3 294/3/3 293/3/3
f 302/3/3 294/3/3 301/3/3
f 305/4/3 304/4/3 303/4/3
f 306/4/3 304/4/3 305/4/3
f 309/4/3 308/4/3 307/4/3
f 310/4/3 308/4/3 309/4/3
f 311/4/4 312/4/4 313/4/4
f 313/4/4 312/4/4 314/4/4
f 315/4/4 316/4/4 317/4/4
f 317/4/4 316/4/4 318/4/4
f 319/3/4 320/3/4 327/3/4
f 327/3/4 320/3/4 328/3/4
f 321/3/4 322/3/4 329/3/4
f 329/3/4 322/3/4 330/3/4
f 323/3/4 324/3/4 331/3/4
f 331/3/4 324/3/4 332/3/4
f 325/3/4 326/3/4 333/3/4
f 333/3/4 326/3/4 334/3/4
f 337/3/4 338/3/4 343/3/4
f 343/3/4 338/3/4 344/3/4
f 344/3/4 338/3/4 345/3/4
f 345/3/4 338/3/4 346/3/4
f 339/3/4 340/3/4 347/3/4
f 347/3/4 340/3/4 348/3/4
f 348/3/4 340/3/4 349/3/4
f 349/3/4 340/3/4 350/3/4
f 341/3/4 342/3/4 351/3/4
f 351/3/4 342/3/4 352/3/4
f 352/3/4 342/3/4 353/3/4
f 353/3/4 342/3/4 354/3/4
f 335/2/4 336/2/4 355/2/4
f 355/2/4 336/2/4 356/2/4
f 357/3/4 358/3/4 369/3/4
f 358/3/4 359/3/4 369/3/4
f 359/3/4 360/3/4 369/3/4
f 369/3/4 360/3/4 370/3/4
f 361/3/4 362/3/4 371/3/4
f 362/3/4 363/3/4 371/3/4
f 363/3/4 364/3/4 371/3/4
f 371/3/4 364/3/4 372/3/4
f 367/3/4 368/3/4 373/3/4
f 366/3/4 367/3/4 373/3/4
f 365/3/4 366/3/4 373/3/4
f 373/3/4 368/3/4 374/3/4
f 375/2/4 376/2/4 379/2/4
f 379/2/4 376/2/4 380/2/4
f 377/2/4 378/2/4 381/2/4
f 381/2/4 378/2/4 382/2/4
f 383/3/4 384/3/4 391/3/4
f 391/3/4 384/3/4 392/3/4
f 385/3/4 386/3/4 393/3/4
f 393/3/4 386/3/4 394/3/4
f 387/3/4 388/3/4 395/3/4
f 395/3/4 388/3/4 396/3/4
f 389/3/4 390/3/4 397/3/4
f 397/3/4 390/3/4 398/3/4
f 399/2/4 400/2/4 401/2/4
f 401/2/4 400/2/4 402/2/4
f 403/3/4 404/3/4 405/3/4
f 405/3/4 404/3/4 406/3/4
f 407/4/4 408/4/4 409/4/4
f 409/4/4 408/4/4 410/4/4
f 407/4/4 409/4/4 411/4/4
f 410/4/4 408/4/4 412/4/4
f 407/4/4 411/4/4 413/4/4
f 411/4/4 412/4/4 413/4/4
f 412/4/4 408/4/4 414/4/4
f 413/4/4 412/4/4 414/4/4
f 417/4/5 416/4/5 415/4/5
f 418/4/5 416/4/5 417/4/5
f 422/4/5 420/4/5 419/4/5
f 423/4/5 420/4/5 422/4/5
f 425/4/5 422/4/5 421/4/5
f 426/4/5 422/4/5 425/4/5
f 427/4/5 424/4/5 423/4/5
f 428/4/5 424/4/5 427/4/5
f 429/4/5 427/4/5 426/4/5
f 430/4/5 427/4/5 429/4/5
f 435/3/5 432/3/5 431/3/5
f 435/3/5 434/3/5 433/3/5
f 435/3/5 433/3/5 432/3/5
f 436/3/5 434/3/5 435/3/5
f 437/3/5 434/3/5 436/3/5
f 438/3/5 434/3/5 437/3/5
f 441/3/5 440/3/5 439/3/5
f 442/3/5 440/3/5 441/3/5
f 443/3/5 442/3/5 441/3/5
f 444/3/5 442/3/5 443/3/5
f 445/3/5 444/3/5 443/3/5
f 446/3/5 444/3/5 445/3/5
f 451/3/5 448/3/5 447/3/5
f 451/3/5 450/3/5 449/3/5
f 451/3/5 449/3/5 448/3/5
f 452/3/5 450/3/5 451/3/5
f 453/3/5 450/3/5 452/3/5
f 454/3/5 450/3/5 453/3/5
f 457/3/5 456/3/5 455/3/5
f 458/3/5 456/3/5 457/3/5
f 459/3/5 458/3/5 457/3/5
f 460/3/5 458/3/5 459/3/5
f 461/3/5 460/3/5 459/3/5
f 462/3/5 460/3/5 461/3/5
f 467/3/5 464/3/5 463/3/5
f 467/3/5 466/3/5 465/3/5
f 467/3/5 465/3/5 464/3/5
f 468/3/5 466/3/5 467/3/5
f 469/3/5 466/3/5 468/3/5
f 470/3/5 466/3/5 469/3/5
f 473/2/5 472/2/5 471/2/5
f 474/2/5 472/2/5 473/2/5
f 477/2/5 476/2/5 475/2/5
f 478/2/5 476/2/5 477/2/5
f 481/3/5 480/3/5 479/3/5
f 482/3/5 480/3/5 481/3/5
f 483/3/5 482/3/5 481/3/5
f 484/3/5 482/3/5 483/3/5
f 487/3/5 484/3/5 483/3/5
f 488/3/5 484/3/5 487/3/5
f 489/2/5 486/2/5 485/2/5
f 490/2/5 486/2/5 489/2/5
f 494/2/5 492/2/5 491/2/5
f 495/3/5 493/3/5 492/3/5
f 495/2/5 492/2/5 494/2/5
f 496/3/5 493/3/5 495/3/5
f 497/4/6 498/4/6 500/4/6
f 500/4/6 498/4/6 501/4/6
f 499/4/6 500/4/6 503/4/6
f 503/4/6 500/4/6 504/4/6
f 501/4/6 502/4/6 505/4/6
f 505/4/6 502/4/6 506/4/6
f 504/4/6 505/4/6 507/4/6
f 507/4/6 505/4/6 508/4/6
f 509/4/6 510/4/6 511/4/6
f 511/4/6 510/4/6 512/4/6
f 509/4/6 511/4/6 513/4/6
f 512/4/6 510/4/6 514/4/6
f 509/4/6 513/4/6 515/4/6
f 513/4/6 514/4/6 515/4/6
f 514/4/6 510/4/6 516/4/6
f 515/4/6 514/4/6 516/4/6
f 509/4/6 515/4/6 517/4/6
f 516/4/6 510/4/6 518/4/6
f 509/4/6 517/4/6 519/4/6
f 517/4/6 518/4/6 519/4/6
f 518/4/6 510/4/6 520/4/6
f 519/4/6 518/4/6 520/4/6
f 521/3/6 522/3/6 523/3/6
f 523/3/6 522/3/6 524/3/6
f 523/3/6 524/3/6 525/3/6
f 525/3/6 524/3/6 526/3/6
f 525/3/6 526/3/6 527/3/6
f 527/3/6 526/3/6 528/3/6
f 529/3/6 530/3/6 533/3/6
f 531/3/6 532/3/6 533/3/6
f 530/3/6 531/3/6 533/3/6
f 533/3/6 532/3/6 534/3/6
f 534/3/6 532/3/6 535/3/6
f 535/3/6 532/3/6 536/3/6
f 537/3/6 538/3/6 539/3/6
f 539/3/6 538/3/6 540/3/6
f 539/3/6 540/3/6 541/3/6
f 541/3/6 540/3/6 542/3/6
f 541/3/6 542/3/6 543/3/6
f 543/3/6 542/3/6 544/3/6
f 545/3/6 546/3/6 549/3/6
f 547/3/6 548/3/6 549/3/6
f 546/3/6 547/3/6 549/3/6
f 549/3/6 548/3/6 550/3/6
f 550/3/6 548/3/6 551/3/6
f 551/3/6 548/3/6 552/3/6
f 553/3/6 554/3/6 555/3/6
f 555/3/6 554/3/6 556/3/6
f 555/3/6 556/3/6 557/3/6
f 557/3/6 556/3/6 558/3/6
f 557/3/6 558/3/6 559/3/6
f 559/3/6 558/3/6 560/3/6
f 561/3/6 562/3/6 565/3/6
f 563/3/6 564/3/6 565/3/6
f 562/3/6 563/3/6 565/3/6
f 565/3/6 564/3/6 566/3/6
f 566/3/6 564/3/6 567/3/6
f 567/3/6 564/3/6 568/3/6
f 569/3/6 570/3/6 572/3/6
f 571/2/6 572/2/6 573/2/6
f 572/3/6 570/3/6 574/3/6
f 573/2/6 572/2/6 574/2/6
f 574/3/6 570/3/6 575/3/6
f 575/3/6 570/3/6 576/3/6
f 577/2/6 578/2/6 579/2/6
f 579/2/6 578/2/6 580/2/6
f 581/2/6 582/2/6 583/2/6
f 583/2/6 582/2/6 584/2/6
f 585/2/6 586/2/6 587/2/6
f 587/2/6 586/2/6 588/2/6
